G04 #@! TF.GenerationSoftware,KiCad,Pcbnew,5.0.2+dfsg1-1*
G04 #@! TF.CreationDate,2019-07-05T17:04:00+02:00*
G04 #@! TF.ProjectId,PollFoll,506f6c6c-466f-46c6-9c2e-6b696361645f,rev?*
G04 #@! TF.SameCoordinates,Original*
G04 #@! TF.FileFunction,Copper,L2,Bot*
G04 #@! TF.FilePolarity,Positive*
%FSLAX46Y46*%
G04 Gerber Fmt 4.6, Leading zero omitted, Abs format (unit mm)*
G04 Created by KiCad (PCBNEW 5.0.2+dfsg1-1) date vie 05 jul 2019 17:04:00 CEST*
%MOMM*%
%LPD*%
G01*
G04 APERTURE LIST*
G04 #@! TA.AperFunction,ComponentPad*
%ADD10R,1.700000X1.700000*%
G04 #@! TD*
G04 #@! TA.AperFunction,ComponentPad*
%ADD11O,1.700000X1.700000*%
G04 #@! TD*
G04 #@! TA.AperFunction,ComponentPad*
%ADD12R,1.600000X1.600000*%
G04 #@! TD*
G04 #@! TA.AperFunction,ComponentPad*
%ADD13O,1.600000X1.600000*%
G04 #@! TD*
G04 #@! TA.AperFunction,SMDPad,CuDef*
%ADD14R,3.960000X3.960000*%
G04 #@! TD*
G04 #@! TA.AperFunction,SMDPad,CuDef*
%ADD15R,1.740000X5.100000*%
G04 #@! TD*
G04 #@! TA.AperFunction,ViaPad*
%ADD16C,0.800000*%
G04 #@! TD*
G04 #@! TA.AperFunction,Conductor*
%ADD17C,0.350000*%
G04 #@! TD*
G04 #@! TA.AperFunction,Conductor*
%ADD18C,0.250000*%
G04 #@! TD*
G04 #@! TA.AperFunction,Conductor*
%ADD19C,0.254000*%
G04 #@! TD*
G04 APERTURE END LIST*
D10*
G04 #@! TO.P,J1,1*
G04 #@! TO.N,Net-(J1-Pad1)*
X154200000Y-67560000D03*
D11*
G04 #@! TO.P,J1,2*
G04 #@! TO.N,+3V3*
X154200000Y-70100000D03*
G04 #@! TO.P,J1,3*
G04 #@! TO.N,Net-(C1-Pad1)*
X154200000Y-72640000D03*
G04 #@! TD*
D12*
G04 #@! TO.P,U1,1*
G04 #@! TO.N,Net-(U1-Pad1)*
X132250000Y-80900000D03*
D13*
G04 #@! TO.P,U1,5*
G04 #@! TO.N,Net-(U1-Pad5)*
X139870000Y-88520000D03*
G04 #@! TO.P,U1,2*
G04 #@! TO.N,PB3*
X132250000Y-83440000D03*
G04 #@! TO.P,U1,6*
G04 #@! TO.N,Net-(U1-Pad6)*
X139870000Y-85980000D03*
G04 #@! TO.P,U1,3*
G04 #@! TO.N,Net-(U1-Pad3)*
X132250000Y-85980000D03*
G04 #@! TO.P,U1,7*
G04 #@! TO.N,Net-(U1-Pad7)*
X139870000Y-83440000D03*
G04 #@! TO.P,U1,4*
G04 #@! TO.N,GND*
X132250000Y-88520000D03*
G04 #@! TO.P,U1,8*
G04 #@! TO.N,Net-(C1-Pad1)*
X139870000Y-80900000D03*
G04 #@! TD*
D14*
G04 #@! TO.P,BT1,2*
G04 #@! TO.N,GND*
X136000000Y-67300000D03*
D15*
G04 #@! TO.P,BT1,1*
G04 #@! TO.N,+3V3*
X147360000Y-67300000D03*
X124640000Y-67300000D03*
G04 #@! TD*
D16*
G04 #@! TO.N,GND*
X124100000Y-84300000D03*
X141600000Y-63900000D03*
X136200000Y-71400000D03*
X132400000Y-64300000D03*
G04 #@! TO.N,PB3*
X129800000Y-59700000D03*
G04 #@! TD*
D17*
G04 #@! TO.N,GND*
X135900000Y-65600000D02*
X136000000Y-65500000D01*
X124100000Y-84300000D02*
X124100000Y-85200000D01*
X124100000Y-85200000D02*
X127500000Y-88600000D01*
X127580000Y-88520000D02*
X132250000Y-88520000D01*
X127500000Y-88600000D02*
X127580000Y-88520000D01*
X141600000Y-63900000D02*
X140000000Y-65500000D01*
X138330000Y-67300000D02*
X136000000Y-67300000D01*
X140000000Y-65630000D02*
X138330000Y-67300000D01*
X140000000Y-65500000D02*
X140000000Y-65630000D01*
X136000000Y-67300000D02*
X136000000Y-71200000D01*
X136000000Y-71200000D02*
X136200000Y-71400000D01*
G04 #@! TO.N,+3V3*
X146190000Y-67300000D02*
X147360000Y-67300000D01*
X129427999Y-58924999D02*
X137814999Y-58924999D01*
X137814999Y-58924999D02*
X146190000Y-67300000D01*
X124640000Y-63712998D02*
X129427999Y-58924999D01*
X124640000Y-67300000D02*
X124640000Y-63712998D01*
X152197919Y-70900000D02*
X152997919Y-70100000D01*
X149280000Y-70900000D02*
X152197919Y-70900000D01*
X152997919Y-70100000D02*
X154200000Y-70100000D01*
X147360000Y-67300000D02*
X147360000Y-68980000D01*
X147360000Y-68980000D02*
X149280000Y-70900000D01*
D18*
G04 #@! TO.N,PB3*
X132250000Y-83440000D02*
X129800000Y-80990000D01*
X129800000Y-80990000D02*
X129800000Y-59700000D01*
G04 #@! TO.N,Net-(C1-Pad1)*
X153760000Y-72200000D02*
X154200000Y-72640000D01*
X145940000Y-80900000D02*
X149700000Y-77140000D01*
X139870000Y-80900000D02*
X145940000Y-80900000D01*
X149700000Y-77140000D02*
X149700000Y-73900000D01*
X151400000Y-72200000D02*
X153760000Y-72200000D01*
X149700000Y-73900000D02*
X151400000Y-72200000D01*
G04 #@! TD*
D19*
G04 #@! TO.N,GND*
G36*
X137903810Y-55309801D02*
X139795882Y-55533742D01*
X141664552Y-55905444D01*
X143498297Y-56422614D01*
X145285813Y-57082063D01*
X147016079Y-57879727D01*
X148678428Y-58810686D01*
X150262609Y-59869203D01*
X151758857Y-61048749D01*
X153157946Y-62342054D01*
X154451251Y-63741143D01*
X155630797Y-65237391D01*
X156689314Y-66821572D01*
X157620273Y-68483921D01*
X158417937Y-70214187D01*
X159077386Y-72001703D01*
X159594556Y-73835448D01*
X159966258Y-75704118D01*
X160190199Y-77596190D01*
X160265000Y-79500000D01*
X160190199Y-81403810D01*
X159966258Y-83295882D01*
X159594556Y-85164552D01*
X159077386Y-86998297D01*
X158417937Y-88785813D01*
X157620273Y-90516079D01*
X156689314Y-92178428D01*
X155630797Y-93762609D01*
X154451251Y-95258857D01*
X153157946Y-96657946D01*
X151758857Y-97951251D01*
X150262609Y-99130797D01*
X148678428Y-100189314D01*
X147016079Y-101120273D01*
X145285813Y-101917937D01*
X143498297Y-102577386D01*
X141664552Y-103094556D01*
X139795882Y-103466258D01*
X137903810Y-103690199D01*
X136000000Y-103765000D01*
X134096190Y-103690199D01*
X132204118Y-103466258D01*
X130335448Y-103094556D01*
X128501703Y-102577386D01*
X126714187Y-101917937D01*
X124983921Y-101120273D01*
X123321572Y-100189314D01*
X121737391Y-99130797D01*
X120241143Y-97951251D01*
X118842054Y-96657946D01*
X117548749Y-95258857D01*
X116369203Y-93762609D01*
X115310686Y-92178428D01*
X114401647Y-90555220D01*
X146745386Y-90555220D01*
X146855894Y-91429987D01*
X147157460Y-92258532D01*
X147635095Y-92999676D01*
X148265059Y-93616583D01*
X149016043Y-94078591D01*
X149850722Y-94362739D01*
X150727611Y-94454904D01*
X151603128Y-94350505D01*
X152433758Y-94054730D01*
X153178218Y-93582282D01*
X153799508Y-92956639D01*
X154266748Y-92208899D01*
X154556716Y-91376224D01*
X154655000Y-90500000D01*
X154653458Y-90389570D01*
X154530746Y-89516431D01*
X154217642Y-88692178D01*
X153729706Y-87957775D01*
X153091189Y-87349724D01*
X152333828Y-86898246D01*
X151495263Y-86625780D01*
X150617173Y-86545867D01*
X149743199Y-86662480D01*
X148916779Y-86969823D01*
X148178988Y-87452620D01*
X147566494Y-88086876D01*
X147109740Y-88841067D01*
X146831426Y-89677709D01*
X146745386Y-90555220D01*
X114401647Y-90555220D01*
X114379727Y-90516079D01*
X113620431Y-88869039D01*
X130858096Y-88869039D01*
X131018959Y-89257423D01*
X131394866Y-89672389D01*
X131900959Y-89911914D01*
X132123000Y-89790629D01*
X132123000Y-88647000D01*
X132377000Y-88647000D01*
X132377000Y-89790629D01*
X132599041Y-89911914D01*
X133105134Y-89672389D01*
X133481041Y-89257423D01*
X133641904Y-88869039D01*
X133519915Y-88647000D01*
X132377000Y-88647000D01*
X132123000Y-88647000D01*
X130980085Y-88647000D01*
X130858096Y-88869039D01*
X113620431Y-88869039D01*
X113582063Y-88785813D01*
X112922614Y-86998297D01*
X112405444Y-85164552D01*
X112033742Y-83295882D01*
X111809801Y-81403810D01*
X111735000Y-79500000D01*
X111809801Y-77596190D01*
X112033742Y-75704118D01*
X112405444Y-73835448D01*
X112922614Y-72001703D01*
X113582063Y-70214187D01*
X113931951Y-69455220D01*
X115445386Y-69455220D01*
X115555894Y-70329987D01*
X115857460Y-71158532D01*
X116335095Y-71899676D01*
X116965059Y-72516583D01*
X117716043Y-72978591D01*
X118550722Y-73262739D01*
X119427611Y-73354904D01*
X120303128Y-73250505D01*
X121133758Y-72954730D01*
X121878218Y-72482282D01*
X122499508Y-71856639D01*
X122966748Y-71108899D01*
X123256716Y-70276224D01*
X123261656Y-70232179D01*
X123312191Y-70307809D01*
X123522235Y-70448157D01*
X123770000Y-70497440D01*
X125510000Y-70497440D01*
X125757765Y-70448157D01*
X125967809Y-70307809D01*
X126108157Y-70097765D01*
X126157440Y-69850000D01*
X126157440Y-64750000D01*
X126108157Y-64502235D01*
X125967809Y-64292191D01*
X125757765Y-64151843D01*
X125510000Y-64102560D01*
X125450000Y-64102560D01*
X125450000Y-64048510D01*
X129040001Y-60458510D01*
X129040000Y-80915153D01*
X129025112Y-80990000D01*
X129040000Y-81064847D01*
X129040000Y-81064851D01*
X129084096Y-81286536D01*
X129252071Y-81537929D01*
X129315530Y-81580331D01*
X130851312Y-83116114D01*
X130786887Y-83440000D01*
X130898260Y-83999909D01*
X131215423Y-84474577D01*
X131567758Y-84710000D01*
X131215423Y-84945423D01*
X130898260Y-85420091D01*
X130786887Y-85980000D01*
X130898260Y-86539909D01*
X131215423Y-87014577D01*
X131599108Y-87270947D01*
X131394866Y-87367611D01*
X131018959Y-87782577D01*
X130858096Y-88170961D01*
X130980085Y-88393000D01*
X132123000Y-88393000D01*
X132123000Y-88373000D01*
X132377000Y-88373000D01*
X132377000Y-88393000D01*
X133519915Y-88393000D01*
X133641904Y-88170961D01*
X133481041Y-87782577D01*
X133105134Y-87367611D01*
X132900892Y-87270947D01*
X133284577Y-87014577D01*
X133601740Y-86539909D01*
X133713113Y-85980000D01*
X133601740Y-85420091D01*
X133284577Y-84945423D01*
X132932242Y-84710000D01*
X133284577Y-84474577D01*
X133601740Y-83999909D01*
X133713113Y-83440000D01*
X133601740Y-82880091D01*
X133284577Y-82405423D01*
X133163894Y-82324785D01*
X133297765Y-82298157D01*
X133507809Y-82157809D01*
X133648157Y-81947765D01*
X133697440Y-81700000D01*
X133697440Y-80100000D01*
X133648157Y-79852235D01*
X133507809Y-79642191D01*
X133297765Y-79501843D01*
X133050000Y-79452560D01*
X131450000Y-79452560D01*
X131202235Y-79501843D01*
X130992191Y-79642191D01*
X130851843Y-79852235D01*
X130802560Y-80100000D01*
X130802560Y-80917759D01*
X130560000Y-80675199D01*
X130560000Y-67585750D01*
X133385000Y-67585750D01*
X133385000Y-69406310D01*
X133481673Y-69639699D01*
X133660302Y-69818327D01*
X133893691Y-69915000D01*
X135714250Y-69915000D01*
X135873000Y-69756250D01*
X135873000Y-67427000D01*
X136127000Y-67427000D01*
X136127000Y-69756250D01*
X136285750Y-69915000D01*
X138106309Y-69915000D01*
X138339698Y-69818327D01*
X138518327Y-69639699D01*
X138615000Y-69406310D01*
X138615000Y-67585750D01*
X138456250Y-67427000D01*
X136127000Y-67427000D01*
X135873000Y-67427000D01*
X133543750Y-67427000D01*
X133385000Y-67585750D01*
X130560000Y-67585750D01*
X130560000Y-65193690D01*
X133385000Y-65193690D01*
X133385000Y-67014250D01*
X133543750Y-67173000D01*
X135873000Y-67173000D01*
X135873000Y-64843750D01*
X136127000Y-64843750D01*
X136127000Y-67173000D01*
X138456250Y-67173000D01*
X138615000Y-67014250D01*
X138615000Y-65193690D01*
X138518327Y-64960301D01*
X138339698Y-64781673D01*
X138106309Y-64685000D01*
X136285750Y-64685000D01*
X136127000Y-64843750D01*
X135873000Y-64843750D01*
X135714250Y-64685000D01*
X133893691Y-64685000D01*
X133660302Y-64781673D01*
X133481673Y-64960301D01*
X133385000Y-65193690D01*
X130560000Y-65193690D01*
X130560000Y-60403711D01*
X130677431Y-60286280D01*
X130835000Y-59905874D01*
X130835000Y-59734999D01*
X137479487Y-59734999D01*
X145560834Y-67816347D01*
X145606023Y-67883977D01*
X145842560Y-68042026D01*
X145842560Y-69850000D01*
X145891843Y-70097765D01*
X146032191Y-70307809D01*
X146242235Y-70448157D01*
X146490000Y-70497440D01*
X147731928Y-70497440D01*
X148650834Y-71416347D01*
X148696023Y-71483977D01*
X148963954Y-71663003D01*
X149200226Y-71710000D01*
X149279999Y-71725868D01*
X149359772Y-71710000D01*
X150813364Y-71710000D01*
X150809671Y-71715527D01*
X149215528Y-73309671D01*
X149152072Y-73352071D01*
X149109672Y-73415527D01*
X149109671Y-73415528D01*
X148984097Y-73603463D01*
X148925112Y-73900000D01*
X148940001Y-73974852D01*
X148940000Y-76825198D01*
X145625199Y-80140000D01*
X141088043Y-80140000D01*
X140904577Y-79865423D01*
X140429909Y-79548260D01*
X140011333Y-79465000D01*
X139728667Y-79465000D01*
X139310091Y-79548260D01*
X138835423Y-79865423D01*
X138518260Y-80340091D01*
X138406887Y-80900000D01*
X138518260Y-81459909D01*
X138835423Y-81934577D01*
X139187758Y-82170000D01*
X138835423Y-82405423D01*
X138518260Y-82880091D01*
X138406887Y-83440000D01*
X138518260Y-83999909D01*
X138835423Y-84474577D01*
X139187758Y-84710000D01*
X138835423Y-84945423D01*
X138518260Y-85420091D01*
X138406887Y-85980000D01*
X138518260Y-86539909D01*
X138835423Y-87014577D01*
X139187758Y-87250000D01*
X138835423Y-87485423D01*
X138518260Y-87960091D01*
X138406887Y-88520000D01*
X138518260Y-89079909D01*
X138835423Y-89554577D01*
X139310091Y-89871740D01*
X139728667Y-89955000D01*
X140011333Y-89955000D01*
X140429909Y-89871740D01*
X140904577Y-89554577D01*
X141221740Y-89079909D01*
X141333113Y-88520000D01*
X141221740Y-87960091D01*
X140904577Y-87485423D01*
X140552242Y-87250000D01*
X140904577Y-87014577D01*
X141221740Y-86539909D01*
X141333113Y-85980000D01*
X141221740Y-85420091D01*
X140904577Y-84945423D01*
X140552242Y-84710000D01*
X140904577Y-84474577D01*
X141221740Y-83999909D01*
X141333113Y-83440000D01*
X141221740Y-82880091D01*
X140904577Y-82405423D01*
X140552242Y-82170000D01*
X140904577Y-81934577D01*
X141088043Y-81660000D01*
X145865153Y-81660000D01*
X145940000Y-81674888D01*
X146014847Y-81660000D01*
X146014852Y-81660000D01*
X146236537Y-81615904D01*
X146487929Y-81447929D01*
X146530331Y-81384470D01*
X150184473Y-77730329D01*
X150247929Y-77687929D01*
X150415904Y-77436537D01*
X150460000Y-77214852D01*
X150460000Y-77214847D01*
X150474888Y-77140000D01*
X150460000Y-77065153D01*
X150460000Y-74214801D01*
X151714802Y-72960000D01*
X152749560Y-72960000D01*
X152801161Y-73219418D01*
X153129375Y-73710625D01*
X153620582Y-74038839D01*
X154053744Y-74125000D01*
X154346256Y-74125000D01*
X154779418Y-74038839D01*
X155270625Y-73710625D01*
X155598839Y-73219418D01*
X155714092Y-72640000D01*
X155598839Y-72060582D01*
X155270625Y-71569375D01*
X154972239Y-71370000D01*
X155270625Y-71170625D01*
X155598839Y-70679418D01*
X155714092Y-70100000D01*
X155598839Y-69520582D01*
X155270625Y-69029375D01*
X155252381Y-69017184D01*
X155297765Y-69008157D01*
X155507809Y-68867809D01*
X155648157Y-68657765D01*
X155697440Y-68410000D01*
X155697440Y-66710000D01*
X155648157Y-66462235D01*
X155507809Y-66252191D01*
X155297765Y-66111843D01*
X155050000Y-66062560D01*
X153350000Y-66062560D01*
X153102235Y-66111843D01*
X152892191Y-66252191D01*
X152751843Y-66462235D01*
X152702560Y-66710000D01*
X152702560Y-68410000D01*
X152751843Y-68657765D01*
X152892191Y-68867809D01*
X153102235Y-69008157D01*
X153147619Y-69017184D01*
X153129375Y-69029375D01*
X152960915Y-69281492D01*
X152918146Y-69290000D01*
X152918145Y-69290000D01*
X152681873Y-69336997D01*
X152413942Y-69516023D01*
X152368753Y-69583653D01*
X151862407Y-70090000D01*
X149615513Y-70090000D01*
X148877440Y-69351928D01*
X148877440Y-64750000D01*
X148828157Y-64502235D01*
X148687809Y-64292191D01*
X148477765Y-64151843D01*
X148230000Y-64102560D01*
X146490000Y-64102560D01*
X146242235Y-64151843D01*
X146032191Y-64292191D01*
X145891843Y-64502235D01*
X145842560Y-64750000D01*
X145842560Y-65807047D01*
X138444167Y-58408655D01*
X138398976Y-58341022D01*
X138131045Y-58161996D01*
X137894773Y-58114999D01*
X137894772Y-58114999D01*
X137814999Y-58099131D01*
X137735226Y-58114999D01*
X129507771Y-58114999D01*
X129427998Y-58099131D01*
X129348225Y-58114999D01*
X129111953Y-58161996D01*
X128844022Y-58341022D01*
X128798833Y-58408652D01*
X124123654Y-63083832D01*
X124056024Y-63129021D01*
X124010835Y-63196651D01*
X123876998Y-63396952D01*
X123814132Y-63712998D01*
X123830001Y-63792776D01*
X123830001Y-64102560D01*
X123770000Y-64102560D01*
X123522235Y-64151843D01*
X123312191Y-64292191D01*
X123171843Y-64502235D01*
X123122560Y-64750000D01*
X123122560Y-68131629D01*
X122917642Y-67592178D01*
X122429706Y-66857775D01*
X121791189Y-66249724D01*
X121033828Y-65798246D01*
X120195263Y-65525780D01*
X119317173Y-65445867D01*
X118443199Y-65562480D01*
X117616779Y-65869823D01*
X116878988Y-66352620D01*
X116266494Y-66986876D01*
X115809740Y-67741067D01*
X115531426Y-68577709D01*
X115445386Y-69455220D01*
X113931951Y-69455220D01*
X114379727Y-68483921D01*
X115310686Y-66821572D01*
X116369203Y-65237391D01*
X117548749Y-63741143D01*
X118842054Y-62342054D01*
X120241143Y-61048749D01*
X121737391Y-59869203D01*
X123321572Y-58810686D01*
X124983921Y-57879727D01*
X126714187Y-57082063D01*
X128501703Y-56422614D01*
X130335448Y-55905444D01*
X132204118Y-55533742D01*
X134096190Y-55309801D01*
X136000000Y-55235000D01*
X137903810Y-55309801D01*
X137903810Y-55309801D01*
G37*
X137903810Y-55309801D02*
X139795882Y-55533742D01*
X141664552Y-55905444D01*
X143498297Y-56422614D01*
X145285813Y-57082063D01*
X147016079Y-57879727D01*
X148678428Y-58810686D01*
X150262609Y-59869203D01*
X151758857Y-61048749D01*
X153157946Y-62342054D01*
X154451251Y-63741143D01*
X155630797Y-65237391D01*
X156689314Y-66821572D01*
X157620273Y-68483921D01*
X158417937Y-70214187D01*
X159077386Y-72001703D01*
X159594556Y-73835448D01*
X159966258Y-75704118D01*
X160190199Y-77596190D01*
X160265000Y-79500000D01*
X160190199Y-81403810D01*
X159966258Y-83295882D01*
X159594556Y-85164552D01*
X159077386Y-86998297D01*
X158417937Y-88785813D01*
X157620273Y-90516079D01*
X156689314Y-92178428D01*
X155630797Y-93762609D01*
X154451251Y-95258857D01*
X153157946Y-96657946D01*
X151758857Y-97951251D01*
X150262609Y-99130797D01*
X148678428Y-100189314D01*
X147016079Y-101120273D01*
X145285813Y-101917937D01*
X143498297Y-102577386D01*
X141664552Y-103094556D01*
X139795882Y-103466258D01*
X137903810Y-103690199D01*
X136000000Y-103765000D01*
X134096190Y-103690199D01*
X132204118Y-103466258D01*
X130335448Y-103094556D01*
X128501703Y-102577386D01*
X126714187Y-101917937D01*
X124983921Y-101120273D01*
X123321572Y-100189314D01*
X121737391Y-99130797D01*
X120241143Y-97951251D01*
X118842054Y-96657946D01*
X117548749Y-95258857D01*
X116369203Y-93762609D01*
X115310686Y-92178428D01*
X114401647Y-90555220D01*
X146745386Y-90555220D01*
X146855894Y-91429987D01*
X147157460Y-92258532D01*
X147635095Y-92999676D01*
X148265059Y-93616583D01*
X149016043Y-94078591D01*
X149850722Y-94362739D01*
X150727611Y-94454904D01*
X151603128Y-94350505D01*
X152433758Y-94054730D01*
X153178218Y-93582282D01*
X153799508Y-92956639D01*
X154266748Y-92208899D01*
X154556716Y-91376224D01*
X154655000Y-90500000D01*
X154653458Y-90389570D01*
X154530746Y-89516431D01*
X154217642Y-88692178D01*
X153729706Y-87957775D01*
X153091189Y-87349724D01*
X152333828Y-86898246D01*
X151495263Y-86625780D01*
X150617173Y-86545867D01*
X149743199Y-86662480D01*
X148916779Y-86969823D01*
X148178988Y-87452620D01*
X147566494Y-88086876D01*
X147109740Y-88841067D01*
X146831426Y-89677709D01*
X146745386Y-90555220D01*
X114401647Y-90555220D01*
X114379727Y-90516079D01*
X113620431Y-88869039D01*
X130858096Y-88869039D01*
X131018959Y-89257423D01*
X131394866Y-89672389D01*
X131900959Y-89911914D01*
X132123000Y-89790629D01*
X132123000Y-88647000D01*
X132377000Y-88647000D01*
X132377000Y-89790629D01*
X132599041Y-89911914D01*
X133105134Y-89672389D01*
X133481041Y-89257423D01*
X133641904Y-88869039D01*
X133519915Y-88647000D01*
X132377000Y-88647000D01*
X132123000Y-88647000D01*
X130980085Y-88647000D01*
X130858096Y-88869039D01*
X113620431Y-88869039D01*
X113582063Y-88785813D01*
X112922614Y-86998297D01*
X112405444Y-85164552D01*
X112033742Y-83295882D01*
X111809801Y-81403810D01*
X111735000Y-79500000D01*
X111809801Y-77596190D01*
X112033742Y-75704118D01*
X112405444Y-73835448D01*
X112922614Y-72001703D01*
X113582063Y-70214187D01*
X113931951Y-69455220D01*
X115445386Y-69455220D01*
X115555894Y-70329987D01*
X115857460Y-71158532D01*
X116335095Y-71899676D01*
X116965059Y-72516583D01*
X117716043Y-72978591D01*
X118550722Y-73262739D01*
X119427611Y-73354904D01*
X120303128Y-73250505D01*
X121133758Y-72954730D01*
X121878218Y-72482282D01*
X122499508Y-71856639D01*
X122966748Y-71108899D01*
X123256716Y-70276224D01*
X123261656Y-70232179D01*
X123312191Y-70307809D01*
X123522235Y-70448157D01*
X123770000Y-70497440D01*
X125510000Y-70497440D01*
X125757765Y-70448157D01*
X125967809Y-70307809D01*
X126108157Y-70097765D01*
X126157440Y-69850000D01*
X126157440Y-64750000D01*
X126108157Y-64502235D01*
X125967809Y-64292191D01*
X125757765Y-64151843D01*
X125510000Y-64102560D01*
X125450000Y-64102560D01*
X125450000Y-64048510D01*
X129040001Y-60458510D01*
X129040000Y-80915153D01*
X129025112Y-80990000D01*
X129040000Y-81064847D01*
X129040000Y-81064851D01*
X129084096Y-81286536D01*
X129252071Y-81537929D01*
X129315530Y-81580331D01*
X130851312Y-83116114D01*
X130786887Y-83440000D01*
X130898260Y-83999909D01*
X131215423Y-84474577D01*
X131567758Y-84710000D01*
X131215423Y-84945423D01*
X130898260Y-85420091D01*
X130786887Y-85980000D01*
X130898260Y-86539909D01*
X131215423Y-87014577D01*
X131599108Y-87270947D01*
X131394866Y-87367611D01*
X131018959Y-87782577D01*
X130858096Y-88170961D01*
X130980085Y-88393000D01*
X132123000Y-88393000D01*
X132123000Y-88373000D01*
X132377000Y-88373000D01*
X132377000Y-88393000D01*
X133519915Y-88393000D01*
X133641904Y-88170961D01*
X133481041Y-87782577D01*
X133105134Y-87367611D01*
X132900892Y-87270947D01*
X133284577Y-87014577D01*
X133601740Y-86539909D01*
X133713113Y-85980000D01*
X133601740Y-85420091D01*
X133284577Y-84945423D01*
X132932242Y-84710000D01*
X133284577Y-84474577D01*
X133601740Y-83999909D01*
X133713113Y-83440000D01*
X133601740Y-82880091D01*
X133284577Y-82405423D01*
X133163894Y-82324785D01*
X133297765Y-82298157D01*
X133507809Y-82157809D01*
X133648157Y-81947765D01*
X133697440Y-81700000D01*
X133697440Y-80100000D01*
X133648157Y-79852235D01*
X133507809Y-79642191D01*
X133297765Y-79501843D01*
X133050000Y-79452560D01*
X131450000Y-79452560D01*
X131202235Y-79501843D01*
X130992191Y-79642191D01*
X130851843Y-79852235D01*
X130802560Y-80100000D01*
X130802560Y-80917759D01*
X130560000Y-80675199D01*
X130560000Y-67585750D01*
X133385000Y-67585750D01*
X133385000Y-69406310D01*
X133481673Y-69639699D01*
X133660302Y-69818327D01*
X133893691Y-69915000D01*
X135714250Y-69915000D01*
X135873000Y-69756250D01*
X135873000Y-67427000D01*
X136127000Y-67427000D01*
X136127000Y-69756250D01*
X136285750Y-69915000D01*
X138106309Y-69915000D01*
X138339698Y-69818327D01*
X138518327Y-69639699D01*
X138615000Y-69406310D01*
X138615000Y-67585750D01*
X138456250Y-67427000D01*
X136127000Y-67427000D01*
X135873000Y-67427000D01*
X133543750Y-67427000D01*
X133385000Y-67585750D01*
X130560000Y-67585750D01*
X130560000Y-65193690D01*
X133385000Y-65193690D01*
X133385000Y-67014250D01*
X133543750Y-67173000D01*
X135873000Y-67173000D01*
X135873000Y-64843750D01*
X136127000Y-64843750D01*
X136127000Y-67173000D01*
X138456250Y-67173000D01*
X138615000Y-67014250D01*
X138615000Y-65193690D01*
X138518327Y-64960301D01*
X138339698Y-64781673D01*
X138106309Y-64685000D01*
X136285750Y-64685000D01*
X136127000Y-64843750D01*
X135873000Y-64843750D01*
X135714250Y-64685000D01*
X133893691Y-64685000D01*
X133660302Y-64781673D01*
X133481673Y-64960301D01*
X133385000Y-65193690D01*
X130560000Y-65193690D01*
X130560000Y-60403711D01*
X130677431Y-60286280D01*
X130835000Y-59905874D01*
X130835000Y-59734999D01*
X137479487Y-59734999D01*
X145560834Y-67816347D01*
X145606023Y-67883977D01*
X145842560Y-68042026D01*
X145842560Y-69850000D01*
X145891843Y-70097765D01*
X146032191Y-70307809D01*
X146242235Y-70448157D01*
X146490000Y-70497440D01*
X147731928Y-70497440D01*
X148650834Y-71416347D01*
X148696023Y-71483977D01*
X148963954Y-71663003D01*
X149200226Y-71710000D01*
X149279999Y-71725868D01*
X149359772Y-71710000D01*
X150813364Y-71710000D01*
X150809671Y-71715527D01*
X149215528Y-73309671D01*
X149152072Y-73352071D01*
X149109672Y-73415527D01*
X149109671Y-73415528D01*
X148984097Y-73603463D01*
X148925112Y-73900000D01*
X148940001Y-73974852D01*
X148940000Y-76825198D01*
X145625199Y-80140000D01*
X141088043Y-80140000D01*
X140904577Y-79865423D01*
X140429909Y-79548260D01*
X140011333Y-79465000D01*
X139728667Y-79465000D01*
X139310091Y-79548260D01*
X138835423Y-79865423D01*
X138518260Y-80340091D01*
X138406887Y-80900000D01*
X138518260Y-81459909D01*
X138835423Y-81934577D01*
X139187758Y-82170000D01*
X138835423Y-82405423D01*
X138518260Y-82880091D01*
X138406887Y-83440000D01*
X138518260Y-83999909D01*
X138835423Y-84474577D01*
X139187758Y-84710000D01*
X138835423Y-84945423D01*
X138518260Y-85420091D01*
X138406887Y-85980000D01*
X138518260Y-86539909D01*
X138835423Y-87014577D01*
X139187758Y-87250000D01*
X138835423Y-87485423D01*
X138518260Y-87960091D01*
X138406887Y-88520000D01*
X138518260Y-89079909D01*
X138835423Y-89554577D01*
X139310091Y-89871740D01*
X139728667Y-89955000D01*
X140011333Y-89955000D01*
X140429909Y-89871740D01*
X140904577Y-89554577D01*
X141221740Y-89079909D01*
X141333113Y-88520000D01*
X141221740Y-87960091D01*
X140904577Y-87485423D01*
X140552242Y-87250000D01*
X140904577Y-87014577D01*
X141221740Y-86539909D01*
X141333113Y-85980000D01*
X141221740Y-85420091D01*
X140904577Y-84945423D01*
X140552242Y-84710000D01*
X140904577Y-84474577D01*
X141221740Y-83999909D01*
X141333113Y-83440000D01*
X141221740Y-82880091D01*
X140904577Y-82405423D01*
X140552242Y-82170000D01*
X140904577Y-81934577D01*
X141088043Y-81660000D01*
X145865153Y-81660000D01*
X145940000Y-81674888D01*
X146014847Y-81660000D01*
X146014852Y-81660000D01*
X146236537Y-81615904D01*
X146487929Y-81447929D01*
X146530331Y-81384470D01*
X150184473Y-77730329D01*
X150247929Y-77687929D01*
X150415904Y-77436537D01*
X150460000Y-77214852D01*
X150460000Y-77214847D01*
X150474888Y-77140000D01*
X150460000Y-77065153D01*
X150460000Y-74214801D01*
X151714802Y-72960000D01*
X152749560Y-72960000D01*
X152801161Y-73219418D01*
X153129375Y-73710625D01*
X153620582Y-74038839D01*
X154053744Y-74125000D01*
X154346256Y-74125000D01*
X154779418Y-74038839D01*
X155270625Y-73710625D01*
X155598839Y-73219418D01*
X155714092Y-72640000D01*
X155598839Y-72060582D01*
X155270625Y-71569375D01*
X154972239Y-71370000D01*
X155270625Y-71170625D01*
X155598839Y-70679418D01*
X155714092Y-70100000D01*
X155598839Y-69520582D01*
X155270625Y-69029375D01*
X155252381Y-69017184D01*
X155297765Y-69008157D01*
X155507809Y-68867809D01*
X155648157Y-68657765D01*
X155697440Y-68410000D01*
X155697440Y-66710000D01*
X155648157Y-66462235D01*
X155507809Y-66252191D01*
X155297765Y-66111843D01*
X155050000Y-66062560D01*
X153350000Y-66062560D01*
X153102235Y-66111843D01*
X152892191Y-66252191D01*
X152751843Y-66462235D01*
X152702560Y-66710000D01*
X152702560Y-68410000D01*
X152751843Y-68657765D01*
X152892191Y-68867809D01*
X153102235Y-69008157D01*
X153147619Y-69017184D01*
X153129375Y-69029375D01*
X152960915Y-69281492D01*
X152918146Y-69290000D01*
X152918145Y-69290000D01*
X152681873Y-69336997D01*
X152413942Y-69516023D01*
X152368753Y-69583653D01*
X151862407Y-70090000D01*
X149615513Y-70090000D01*
X148877440Y-69351928D01*
X148877440Y-64750000D01*
X148828157Y-64502235D01*
X148687809Y-64292191D01*
X148477765Y-64151843D01*
X148230000Y-64102560D01*
X146490000Y-64102560D01*
X146242235Y-64151843D01*
X146032191Y-64292191D01*
X145891843Y-64502235D01*
X145842560Y-64750000D01*
X145842560Y-65807047D01*
X138444167Y-58408655D01*
X138398976Y-58341022D01*
X138131045Y-58161996D01*
X137894773Y-58114999D01*
X137894772Y-58114999D01*
X137814999Y-58099131D01*
X137735226Y-58114999D01*
X129507771Y-58114999D01*
X129427998Y-58099131D01*
X129348225Y-58114999D01*
X129111953Y-58161996D01*
X128844022Y-58341022D01*
X128798833Y-58408652D01*
X124123654Y-63083832D01*
X124056024Y-63129021D01*
X124010835Y-63196651D01*
X123876998Y-63396952D01*
X123814132Y-63712998D01*
X123830001Y-63792776D01*
X123830001Y-64102560D01*
X123770000Y-64102560D01*
X123522235Y-64151843D01*
X123312191Y-64292191D01*
X123171843Y-64502235D01*
X123122560Y-64750000D01*
X123122560Y-68131629D01*
X122917642Y-67592178D01*
X122429706Y-66857775D01*
X121791189Y-66249724D01*
X121033828Y-65798246D01*
X120195263Y-65525780D01*
X119317173Y-65445867D01*
X118443199Y-65562480D01*
X117616779Y-65869823D01*
X116878988Y-66352620D01*
X116266494Y-66986876D01*
X115809740Y-67741067D01*
X115531426Y-68577709D01*
X115445386Y-69455220D01*
X113931951Y-69455220D01*
X114379727Y-68483921D01*
X115310686Y-66821572D01*
X116369203Y-65237391D01*
X117548749Y-63741143D01*
X118842054Y-62342054D01*
X120241143Y-61048749D01*
X121737391Y-59869203D01*
X123321572Y-58810686D01*
X124983921Y-57879727D01*
X126714187Y-57082063D01*
X128501703Y-56422614D01*
X130335448Y-55905444D01*
X132204118Y-55533742D01*
X134096190Y-55309801D01*
X136000000Y-55235000D01*
X137903810Y-55309801D01*
G04 #@! TD*
M02*
