G04 #@! TF.GenerationSoftware,KiCad,Pcbnew,5.0.2+dfsg1-1*
G04 #@! TF.CreationDate,2019-07-05T17:04:00+02:00*
G04 #@! TF.ProjectId,PollFoll,506f6c6c-466f-46c6-9c2e-6b696361645f,rev?*
G04 #@! TF.SameCoordinates,Original*
G04 #@! TF.FileFunction,Paste,Top*
G04 #@! TF.FilePolarity,Positive*
%FSLAX46Y46*%
G04 Gerber Fmt 4.6, Leading zero omitted, Abs format (unit mm)*
G04 Created by KiCad (PCBNEW 5.0.2+dfsg1-1) date vie 05 jul 2019 17:04:00 CEST*
%MOMM*%
%LPD*%
G01*
G04 APERTURE LIST*
%ADD10R,1.500000X1.000000*%
%ADD11C,0.100000*%
%ADD12C,1.150000*%
G04 APERTURE END LIST*
D10*
G04 #@! TO.C,D4*
X113550000Y-77900000D03*
X113550000Y-81100000D03*
X118450000Y-77900000D03*
X118450000Y-81100000D03*
G04 #@! TD*
G04 #@! TO.C,D3*
X138450000Y-101600000D03*
X138450000Y-98400000D03*
X133550000Y-101600000D03*
X133550000Y-98400000D03*
G04 #@! TD*
G04 #@! TO.C,D2*
X153050000Y-77900000D03*
X153050000Y-81100000D03*
X157950000Y-77900000D03*
X157950000Y-81100000D03*
G04 #@! TD*
G04 #@! TO.C,D1*
X138450000Y-60600000D03*
X138450000Y-57400000D03*
X133550000Y-60600000D03*
X133550000Y-57400000D03*
G04 #@! TD*
D11*
G04 #@! TO.C,C2*
G36*
X127324505Y-73301204D02*
X127348773Y-73304804D01*
X127372572Y-73310765D01*
X127395671Y-73319030D01*
X127417850Y-73329520D01*
X127438893Y-73342132D01*
X127458599Y-73356747D01*
X127476777Y-73373223D01*
X127493253Y-73391401D01*
X127507868Y-73411107D01*
X127520480Y-73432150D01*
X127530970Y-73454329D01*
X127539235Y-73477428D01*
X127545196Y-73501227D01*
X127548796Y-73525495D01*
X127550000Y-73549999D01*
X127550000Y-74450001D01*
X127548796Y-74474505D01*
X127545196Y-74498773D01*
X127539235Y-74522572D01*
X127530970Y-74545671D01*
X127520480Y-74567850D01*
X127507868Y-74588893D01*
X127493253Y-74608599D01*
X127476777Y-74626777D01*
X127458599Y-74643253D01*
X127438893Y-74657868D01*
X127417850Y-74670480D01*
X127395671Y-74680970D01*
X127372572Y-74689235D01*
X127348773Y-74695196D01*
X127324505Y-74698796D01*
X127300001Y-74700000D01*
X126649999Y-74700000D01*
X126625495Y-74698796D01*
X126601227Y-74695196D01*
X126577428Y-74689235D01*
X126554329Y-74680970D01*
X126532150Y-74670480D01*
X126511107Y-74657868D01*
X126491401Y-74643253D01*
X126473223Y-74626777D01*
X126456747Y-74608599D01*
X126442132Y-74588893D01*
X126429520Y-74567850D01*
X126419030Y-74545671D01*
X126410765Y-74522572D01*
X126404804Y-74498773D01*
X126401204Y-74474505D01*
X126400000Y-74450001D01*
X126400000Y-73549999D01*
X126401204Y-73525495D01*
X126404804Y-73501227D01*
X126410765Y-73477428D01*
X126419030Y-73454329D01*
X126429520Y-73432150D01*
X126442132Y-73411107D01*
X126456747Y-73391401D01*
X126473223Y-73373223D01*
X126491401Y-73356747D01*
X126511107Y-73342132D01*
X126532150Y-73329520D01*
X126554329Y-73319030D01*
X126577428Y-73310765D01*
X126601227Y-73304804D01*
X126625495Y-73301204D01*
X126649999Y-73300000D01*
X127300001Y-73300000D01*
X127324505Y-73301204D01*
X127324505Y-73301204D01*
G37*
D12*
X126975000Y-74000000D03*
D11*
G36*
X129374505Y-73301204D02*
X129398773Y-73304804D01*
X129422572Y-73310765D01*
X129445671Y-73319030D01*
X129467850Y-73329520D01*
X129488893Y-73342132D01*
X129508599Y-73356747D01*
X129526777Y-73373223D01*
X129543253Y-73391401D01*
X129557868Y-73411107D01*
X129570480Y-73432150D01*
X129580970Y-73454329D01*
X129589235Y-73477428D01*
X129595196Y-73501227D01*
X129598796Y-73525495D01*
X129600000Y-73549999D01*
X129600000Y-74450001D01*
X129598796Y-74474505D01*
X129595196Y-74498773D01*
X129589235Y-74522572D01*
X129580970Y-74545671D01*
X129570480Y-74567850D01*
X129557868Y-74588893D01*
X129543253Y-74608599D01*
X129526777Y-74626777D01*
X129508599Y-74643253D01*
X129488893Y-74657868D01*
X129467850Y-74670480D01*
X129445671Y-74680970D01*
X129422572Y-74689235D01*
X129398773Y-74695196D01*
X129374505Y-74698796D01*
X129350001Y-74700000D01*
X128699999Y-74700000D01*
X128675495Y-74698796D01*
X128651227Y-74695196D01*
X128627428Y-74689235D01*
X128604329Y-74680970D01*
X128582150Y-74670480D01*
X128561107Y-74657868D01*
X128541401Y-74643253D01*
X128523223Y-74626777D01*
X128506747Y-74608599D01*
X128492132Y-74588893D01*
X128479520Y-74567850D01*
X128469030Y-74545671D01*
X128460765Y-74522572D01*
X128454804Y-74498773D01*
X128451204Y-74474505D01*
X128450000Y-74450001D01*
X128450000Y-73549999D01*
X128451204Y-73525495D01*
X128454804Y-73501227D01*
X128460765Y-73477428D01*
X128469030Y-73454329D01*
X128479520Y-73432150D01*
X128492132Y-73411107D01*
X128506747Y-73391401D01*
X128523223Y-73373223D01*
X128541401Y-73356747D01*
X128561107Y-73342132D01*
X128582150Y-73329520D01*
X128604329Y-73319030D01*
X128627428Y-73310765D01*
X128651227Y-73304804D01*
X128675495Y-73301204D01*
X128699999Y-73300000D01*
X129350001Y-73300000D01*
X129374505Y-73301204D01*
X129374505Y-73301204D01*
G37*
D12*
X129025000Y-74000000D03*
G04 #@! TD*
D11*
G04 #@! TO.C,C1*
G36*
X146374505Y-73301204D02*
X146398773Y-73304804D01*
X146422572Y-73310765D01*
X146445671Y-73319030D01*
X146467850Y-73329520D01*
X146488893Y-73342132D01*
X146508599Y-73356747D01*
X146526777Y-73373223D01*
X146543253Y-73391401D01*
X146557868Y-73411107D01*
X146570480Y-73432150D01*
X146580970Y-73454329D01*
X146589235Y-73477428D01*
X146595196Y-73501227D01*
X146598796Y-73525495D01*
X146600000Y-73549999D01*
X146600000Y-74450001D01*
X146598796Y-74474505D01*
X146595196Y-74498773D01*
X146589235Y-74522572D01*
X146580970Y-74545671D01*
X146570480Y-74567850D01*
X146557868Y-74588893D01*
X146543253Y-74608599D01*
X146526777Y-74626777D01*
X146508599Y-74643253D01*
X146488893Y-74657868D01*
X146467850Y-74670480D01*
X146445671Y-74680970D01*
X146422572Y-74689235D01*
X146398773Y-74695196D01*
X146374505Y-74698796D01*
X146350001Y-74700000D01*
X145699999Y-74700000D01*
X145675495Y-74698796D01*
X145651227Y-74695196D01*
X145627428Y-74689235D01*
X145604329Y-74680970D01*
X145582150Y-74670480D01*
X145561107Y-74657868D01*
X145541401Y-74643253D01*
X145523223Y-74626777D01*
X145506747Y-74608599D01*
X145492132Y-74588893D01*
X145479520Y-74567850D01*
X145469030Y-74545671D01*
X145460765Y-74522572D01*
X145454804Y-74498773D01*
X145451204Y-74474505D01*
X145450000Y-74450001D01*
X145450000Y-73549999D01*
X145451204Y-73525495D01*
X145454804Y-73501227D01*
X145460765Y-73477428D01*
X145469030Y-73454329D01*
X145479520Y-73432150D01*
X145492132Y-73411107D01*
X145506747Y-73391401D01*
X145523223Y-73373223D01*
X145541401Y-73356747D01*
X145561107Y-73342132D01*
X145582150Y-73329520D01*
X145604329Y-73319030D01*
X145627428Y-73310765D01*
X145651227Y-73304804D01*
X145675495Y-73301204D01*
X145699999Y-73300000D01*
X146350001Y-73300000D01*
X146374505Y-73301204D01*
X146374505Y-73301204D01*
G37*
D12*
X146025000Y-74000000D03*
D11*
G36*
X144324505Y-73301204D02*
X144348773Y-73304804D01*
X144372572Y-73310765D01*
X144395671Y-73319030D01*
X144417850Y-73329520D01*
X144438893Y-73342132D01*
X144458599Y-73356747D01*
X144476777Y-73373223D01*
X144493253Y-73391401D01*
X144507868Y-73411107D01*
X144520480Y-73432150D01*
X144530970Y-73454329D01*
X144539235Y-73477428D01*
X144545196Y-73501227D01*
X144548796Y-73525495D01*
X144550000Y-73549999D01*
X144550000Y-74450001D01*
X144548796Y-74474505D01*
X144545196Y-74498773D01*
X144539235Y-74522572D01*
X144530970Y-74545671D01*
X144520480Y-74567850D01*
X144507868Y-74588893D01*
X144493253Y-74608599D01*
X144476777Y-74626777D01*
X144458599Y-74643253D01*
X144438893Y-74657868D01*
X144417850Y-74670480D01*
X144395671Y-74680970D01*
X144372572Y-74689235D01*
X144348773Y-74695196D01*
X144324505Y-74698796D01*
X144300001Y-74700000D01*
X143649999Y-74700000D01*
X143625495Y-74698796D01*
X143601227Y-74695196D01*
X143577428Y-74689235D01*
X143554329Y-74680970D01*
X143532150Y-74670480D01*
X143511107Y-74657868D01*
X143491401Y-74643253D01*
X143473223Y-74626777D01*
X143456747Y-74608599D01*
X143442132Y-74588893D01*
X143429520Y-74567850D01*
X143419030Y-74545671D01*
X143410765Y-74522572D01*
X143404804Y-74498773D01*
X143401204Y-74474505D01*
X143400000Y-74450001D01*
X143400000Y-73549999D01*
X143401204Y-73525495D01*
X143404804Y-73501227D01*
X143410765Y-73477428D01*
X143419030Y-73454329D01*
X143429520Y-73432150D01*
X143442132Y-73411107D01*
X143456747Y-73391401D01*
X143473223Y-73373223D01*
X143491401Y-73356747D01*
X143511107Y-73342132D01*
X143532150Y-73329520D01*
X143554329Y-73319030D01*
X143577428Y-73310765D01*
X143601227Y-73304804D01*
X143625495Y-73301204D01*
X143649999Y-73300000D01*
X144300001Y-73300000D01*
X144324505Y-73301204D01*
X144324505Y-73301204D01*
G37*
D12*
X143975000Y-74000000D03*
G04 #@! TD*
M02*
