G04 #@! TF.GenerationSoftware,KiCad,Pcbnew,5.0.2+dfsg1-1*
G04 #@! TF.CreationDate,2019-07-05T17:04:00+02:00*
G04 #@! TF.ProjectId,PollFoll,506f6c6c-466f-46c6-9c2e-6b696361645f,rev?*
G04 #@! TF.SameCoordinates,Original*
G04 #@! TF.FileFunction,Legend,Bot*
G04 #@! TF.FilePolarity,Positive*
%FSLAX46Y46*%
G04 Gerber Fmt 4.6, Leading zero omitted, Abs format (unit mm)*
G04 Created by KiCad (PCBNEW 5.0.2+dfsg1-1) date vie 05 jul 2019 17:04:00 CEST*
%MOMM*%
%LPD*%
G01*
G04 APERTURE LIST*
%ADD10C,0.375000*%
%ADD11C,0.120000*%
%ADD12C,0.100000*%
%ADD13C,0.010000*%
%ADD14C,0.150000*%
G04 APERTURE END LIST*
D10*
X156142857Y-78105952D02*
X156142857Y-75605952D01*
X155785714Y-75605952D01*
X155571428Y-75725000D01*
X155428571Y-75963095D01*
X155357142Y-76201190D01*
X155285714Y-76677380D01*
X155285714Y-77034523D01*
X155357142Y-77510714D01*
X155428571Y-77748809D01*
X155571428Y-77986904D01*
X155785714Y-78105952D01*
X156142857Y-78105952D01*
X154642857Y-78105952D02*
X154642857Y-75605952D01*
X154000000Y-77391666D02*
X153285714Y-77391666D01*
X154142857Y-78105952D02*
X153642857Y-75605952D01*
X153142857Y-78105952D01*
X152142857Y-76796428D02*
X151928571Y-76915476D01*
X151857142Y-77034523D01*
X151785714Y-77272619D01*
X151785714Y-77629761D01*
X151857142Y-77867857D01*
X151928571Y-77986904D01*
X152071428Y-78105952D01*
X152642857Y-78105952D01*
X152642857Y-75605952D01*
X152142857Y-75605952D01*
X152000000Y-75725000D01*
X151928571Y-75844047D01*
X151857142Y-76082142D01*
X151857142Y-76320238D01*
X151928571Y-76558333D01*
X152000000Y-76677380D01*
X152142857Y-76796428D01*
X152642857Y-76796428D01*
X150428571Y-78105952D02*
X151142857Y-78105952D01*
X151142857Y-75605952D01*
X149928571Y-76796428D02*
X149428571Y-76796428D01*
X149214285Y-78105952D02*
X149928571Y-78105952D01*
X149928571Y-75605952D01*
X149214285Y-75605952D01*
X148642857Y-77986904D02*
X148428571Y-78105952D01*
X148071428Y-78105952D01*
X147928571Y-77986904D01*
X147857142Y-77867857D01*
X147785714Y-77629761D01*
X147785714Y-77391666D01*
X147857142Y-77153571D01*
X147928571Y-77034523D01*
X148071428Y-76915476D01*
X148357142Y-76796428D01*
X148500000Y-76677380D01*
X148571428Y-76558333D01*
X148642857Y-76320238D01*
X148642857Y-76082142D01*
X148571428Y-75844047D01*
X148500000Y-75725000D01*
X148357142Y-75605952D01*
X148000000Y-75605952D01*
X147785714Y-75725000D01*
X158750000Y-82230952D02*
X158750000Y-79730952D01*
X158392857Y-79730952D01*
X158178571Y-79850000D01*
X158035714Y-80088095D01*
X157964285Y-80326190D01*
X157892857Y-80802380D01*
X157892857Y-81159523D01*
X157964285Y-81635714D01*
X158035714Y-81873809D01*
X158178571Y-82111904D01*
X158392857Y-82230952D01*
X158750000Y-82230952D01*
X157250000Y-80921428D02*
X156750000Y-80921428D01*
X156535714Y-82230952D02*
X157250000Y-82230952D01*
X157250000Y-79730952D01*
X156535714Y-79730952D01*
X153892857Y-82230952D02*
X154392857Y-81040476D01*
X154750000Y-82230952D02*
X154750000Y-79730952D01*
X154178571Y-79730952D01*
X154035714Y-79850000D01*
X153964285Y-79969047D01*
X153892857Y-80207142D01*
X153892857Y-80564285D01*
X153964285Y-80802380D01*
X154035714Y-80921428D01*
X154178571Y-81040476D01*
X154750000Y-81040476D01*
X153250000Y-82230952D02*
X153250000Y-79730952D01*
X152535714Y-82230952D02*
X152535714Y-79730952D01*
X151964285Y-79730952D01*
X151821428Y-79850000D01*
X151750000Y-79969047D01*
X151678571Y-80207142D01*
X151678571Y-80564285D01*
X151750000Y-80802380D01*
X151821428Y-80921428D01*
X151964285Y-81040476D01*
X152535714Y-81040476D01*
X150750000Y-79730952D02*
X150464285Y-79730952D01*
X150321428Y-79850000D01*
X150178571Y-80088095D01*
X150107142Y-80564285D01*
X150107142Y-81397619D01*
X150178571Y-81873809D01*
X150321428Y-82111904D01*
X150464285Y-82230952D01*
X150750000Y-82230952D01*
X150892857Y-82111904D01*
X151035714Y-81873809D01*
X151107142Y-81397619D01*
X151107142Y-80564285D01*
X151035714Y-80088095D01*
X150892857Y-79850000D01*
X150750000Y-79730952D01*
X148750000Y-82230952D02*
X149464285Y-82230952D01*
X149464285Y-79730952D01*
X147535714Y-82230952D02*
X148250000Y-82230952D01*
X148250000Y-79730952D01*
X147035714Y-80921428D02*
X146535714Y-80921428D01*
X146321428Y-82230952D02*
X147035714Y-82230952D01*
X147035714Y-79730952D01*
X146321428Y-79730952D01*
X145892857Y-79730952D02*
X145035714Y-79730952D01*
X145464285Y-82230952D02*
X145464285Y-79730952D01*
X154571428Y-84094047D02*
X154500000Y-83975000D01*
X154357142Y-83855952D01*
X154000000Y-83855952D01*
X153857142Y-83975000D01*
X153785714Y-84094047D01*
X153714285Y-84332142D01*
X153714285Y-84570238D01*
X153785714Y-84927380D01*
X154642857Y-86355952D01*
X153714285Y-86355952D01*
X152785714Y-83855952D02*
X152642857Y-83855952D01*
X152500000Y-83975000D01*
X152428571Y-84094047D01*
X152357142Y-84332142D01*
X152285714Y-84808333D01*
X152285714Y-85403571D01*
X152357142Y-85879761D01*
X152428571Y-86117857D01*
X152500000Y-86236904D01*
X152642857Y-86355952D01*
X152785714Y-86355952D01*
X152928571Y-86236904D01*
X153000000Y-86117857D01*
X153071428Y-85879761D01*
X153142857Y-85403571D01*
X153142857Y-84808333D01*
X153071428Y-84332142D01*
X153000000Y-84094047D01*
X152928571Y-83975000D01*
X152785714Y-83855952D01*
X150857142Y-86355952D02*
X151714285Y-86355952D01*
X151285714Y-86355952D02*
X151285714Y-83855952D01*
X151428571Y-84213095D01*
X151571428Y-84451190D01*
X151714285Y-84570238D01*
X150142857Y-86355952D02*
X149857142Y-86355952D01*
X149714285Y-86236904D01*
X149642857Y-86117857D01*
X149500000Y-85760714D01*
X149428571Y-85284523D01*
X149428571Y-84332142D01*
X149500000Y-84094047D01*
X149571428Y-83975000D01*
X149714285Y-83855952D01*
X150000000Y-83855952D01*
X150142857Y-83975000D01*
X150214285Y-84094047D01*
X150285714Y-84332142D01*
X150285714Y-84927380D01*
X150214285Y-85165476D01*
X150142857Y-85284523D01*
X150000000Y-85403571D01*
X149714285Y-85403571D01*
X149571428Y-85284523D01*
X149500000Y-85165476D01*
X149428571Y-84927380D01*
D11*
G04 #@! TO.C,J1*
X155530000Y-73970000D02*
X152870000Y-73970000D01*
X155530000Y-68830000D02*
X155530000Y-73970000D01*
X152870000Y-68830000D02*
X152870000Y-73970000D01*
X155530000Y-68830000D02*
X152870000Y-68830000D01*
X155530000Y-67560000D02*
X155530000Y-66230000D01*
X155530000Y-66230000D02*
X154200000Y-66230000D01*
D12*
G04 #@! TO.C,BT1*
X129995399Y-58746464D02*
G75*
G03X142000000Y-58750000I6004601J7806464D01*
G01*
X129996646Y-58733470D02*
G75*
G03X126660000Y-59720000I-1306646J-1716530D01*
G01*
X125220000Y-63670000D02*
X126660000Y-59720000D01*
X127300000Y-74840000D02*
X125220000Y-72760000D01*
X144700000Y-74840000D02*
X127300000Y-74840000D01*
X144700000Y-74840000D02*
X146780000Y-72760000D01*
X146780000Y-63670000D02*
X145340000Y-59720000D01*
X145325244Y-59711831D02*
G75*
G03X142000000Y-58750000I-2015244J-738169D01*
G01*
X125220000Y-72760000D02*
X125220000Y-70300000D01*
X125220000Y-64300000D02*
X125220000Y-63670000D01*
X146780000Y-72760000D02*
X146780000Y-70300000D01*
X146780000Y-64300000D02*
X146780000Y-63670000D01*
G04 #@! TO.C,svg2mod*
G36*
X125292982Y-78835991D02*
X125408623Y-78845624D01*
X125521304Y-78878858D01*
X122709057Y-82425827D01*
X122556355Y-82276844D01*
X122351084Y-82410414D01*
X122145813Y-82543954D01*
X121992986Y-82479231D01*
X121895544Y-82431156D01*
X121837306Y-82368329D01*
X121799081Y-82255922D01*
X121761680Y-82059074D01*
X121744533Y-81960033D01*
X121744540Y-81959912D01*
X121500592Y-81967438D01*
X121256582Y-81974964D01*
X121216717Y-82196136D01*
X121176789Y-82417248D01*
X121011759Y-82481007D01*
X120846728Y-82544707D01*
X120651282Y-82411649D01*
X120455899Y-82278530D01*
X120286989Y-82446418D01*
X120118078Y-82614397D01*
X120254070Y-82806278D01*
X120390125Y-82998219D01*
X120320596Y-83153313D01*
X120246185Y-83316084D01*
X120011500Y-83365424D01*
X119781759Y-83406967D01*
X119789330Y-83645118D01*
X119796901Y-83883298D01*
X119995976Y-83917887D01*
X120145096Y-83951423D01*
X120224152Y-83983393D01*
X120312394Y-84162028D01*
X120371472Y-84309687D01*
X120334924Y-84363844D01*
X121213585Y-84363844D01*
X121324482Y-84102513D01*
X121263901Y-84052752D01*
X121184547Y-84002057D01*
X121098307Y-83887814D01*
X121057752Y-83801416D01*
X121035746Y-83712129D01*
X121031670Y-83622389D01*
X121044901Y-83534697D01*
X121074815Y-83451521D01*
X121120794Y-83375268D01*
X121182214Y-83308438D01*
X121258454Y-83253499D01*
X121379938Y-83205122D01*
X121512233Y-83188264D01*
X121640378Y-83203316D01*
X121749415Y-83250097D01*
X121841845Y-83325687D01*
X121910403Y-83412025D01*
X121954866Y-83506310D01*
X121975012Y-83605652D01*
X121970619Y-83707252D01*
X121941467Y-83808250D01*
X121887331Y-83905816D01*
X121807991Y-83997060D01*
X121688145Y-84110641D01*
X121727885Y-84206221D01*
X121792721Y-84363783D01*
X122670130Y-84363783D01*
X122630077Y-84305924D01*
X122701547Y-84133972D01*
X122773078Y-83961929D01*
X122996561Y-83922584D01*
X123220107Y-83883238D01*
X123220107Y-83648068D01*
X123220107Y-83412898D01*
X122999378Y-83370602D01*
X122837449Y-83333966D01*
X122758059Y-83305367D01*
X122678579Y-83135492D01*
X122619752Y-82988737D01*
X122740786Y-82818109D01*
X122826267Y-82686947D01*
X122861821Y-82611116D01*
X122816945Y-82541697D01*
X122709057Y-82425827D01*
X125521304Y-78878858D01*
X125627090Y-78936146D01*
X125722048Y-79018028D01*
X125806877Y-79131639D01*
X125859912Y-79253710D01*
X125881964Y-79379844D01*
X125873842Y-79505618D01*
X125836358Y-79626665D01*
X125770321Y-79738620D01*
X125676541Y-79837089D01*
X125555829Y-79917647D01*
X125447500Y-79950791D01*
X125310719Y-79960725D01*
X125171515Y-79948082D01*
X125055918Y-79912710D01*
X124954597Y-79863159D01*
X124879623Y-79951935D01*
X124220502Y-80707418D01*
X118893080Y-82844480D01*
X118978561Y-82713288D01*
X119014115Y-82637456D01*
X118969239Y-82568037D01*
X118861351Y-82452168D01*
X118708587Y-82303215D01*
X118503315Y-82436755D01*
X118298107Y-82570325D01*
X118145280Y-82505572D01*
X118047838Y-82457496D01*
X117989600Y-82394700D01*
X117951375Y-82282293D01*
X117913974Y-82085415D01*
X117896827Y-81986404D01*
X117896822Y-81986404D01*
X117896824Y-81986223D01*
X117652814Y-81993749D01*
X117408866Y-82001275D01*
X117368939Y-82222477D01*
X117329074Y-82443589D01*
X117164043Y-82507348D01*
X116998951Y-82571048D01*
X116803567Y-82437959D01*
X116608184Y-82304841D01*
X116439273Y-82472759D01*
X116270300Y-82640708D01*
X116406355Y-82832589D01*
X116542347Y-83024560D01*
X116472880Y-83179624D01*
X116398407Y-83342485D01*
X116163722Y-83391735D01*
X115934043Y-83433308D01*
X115941617Y-83671428D01*
X115949191Y-83909639D01*
X116148205Y-83944228D01*
X116297324Y-83977734D01*
X116376380Y-84009704D01*
X116464622Y-84188339D01*
X116523700Y-84336028D01*
X116504801Y-84364024D01*
X117376953Y-84364024D01*
X117476773Y-84128824D01*
X117416193Y-84079063D01*
X117336838Y-84028398D01*
X117250599Y-83914124D01*
X117210044Y-83827727D01*
X117188038Y-83738439D01*
X117183965Y-83648730D01*
X117197196Y-83561038D01*
X117227110Y-83477831D01*
X117273088Y-83401579D01*
X117334509Y-83334779D01*
X117410749Y-83279839D01*
X117532223Y-83231463D01*
X117664496Y-83214605D01*
X117792620Y-83229656D01*
X117901647Y-83276468D01*
X117994080Y-83352058D01*
X118062644Y-83438396D01*
X118107118Y-83532680D01*
X118127275Y-83632023D01*
X118122895Y-83733623D01*
X118093752Y-83834621D01*
X118039624Y-83932157D01*
X117960286Y-84023431D01*
X117840440Y-84137012D01*
X117880117Y-84232591D01*
X117934251Y-84363994D01*
X118804276Y-84363994D01*
X118782309Y-84332295D01*
X118853841Y-84160312D01*
X118925310Y-83988270D01*
X119148856Y-83948954D01*
X119372339Y-83909609D01*
X119372339Y-83674439D01*
X119372339Y-83439238D01*
X119151672Y-83396943D01*
X118989712Y-83360307D01*
X118910291Y-83331708D01*
X118830873Y-83161833D01*
X118772045Y-83015077D01*
X118893080Y-82844480D01*
X124220502Y-80707418D01*
X123636292Y-81374154D01*
X123846132Y-81586626D01*
X124025007Y-81784649D01*
X124050861Y-81845127D01*
X124055847Y-81913432D01*
X124046752Y-82006362D01*
X124001062Y-82107992D01*
X123890878Y-82264441D01*
X123688299Y-82521918D01*
X123419131Y-82877564D01*
X123548301Y-83167733D01*
X123661115Y-83425030D01*
X123750944Y-83661825D01*
X123830612Y-83891637D01*
X124284774Y-83950670D01*
X124615055Y-83991792D01*
X124813540Y-84028398D01*
X124925454Y-84072229D01*
X124996027Y-84134965D01*
X125064367Y-84214951D01*
X125064367Y-85033741D01*
X125064367Y-85852532D01*
X123574637Y-87766435D01*
X123745425Y-87994380D01*
X123816707Y-88120244D01*
X123782834Y-88176538D01*
X123682329Y-88291895D01*
X123290699Y-88689686D01*
X122857220Y-89101444D01*
X122760991Y-89174837D01*
X122713562Y-89187179D01*
X122232364Y-88832076D01*
X121801857Y-88496029D01*
X121555657Y-88625595D01*
X121336920Y-88730747D01*
X121092794Y-88832407D01*
X120855959Y-88917812D01*
X120659097Y-88974286D01*
X120565567Y-89002584D01*
X120526672Y-89028473D01*
X120459834Y-89592676D01*
X120397674Y-90027163D01*
X120373275Y-90124157D01*
X120348626Y-90165189D01*
X120265552Y-90181445D01*
X120088632Y-90192884D01*
X119579991Y-90201012D01*
X119076166Y-90190175D01*
X118905267Y-90177832D01*
X118830621Y-90160974D01*
X118789091Y-89975023D01*
X118732491Y-89579250D01*
X118647253Y-89018749D01*
X118320759Y-88907576D01*
X118011194Y-88794146D01*
X117700252Y-88655939D01*
X117388340Y-88500062D01*
X116973917Y-88821931D01*
X116497100Y-89176282D01*
X116450450Y-89182905D01*
X116368057Y-89130103D01*
X115906695Y-88690950D01*
X115513878Y-88291986D01*
X115413088Y-88176387D01*
X115379123Y-88119973D01*
X115450415Y-87994109D01*
X115621192Y-87766164D01*
X115966899Y-87330835D01*
X116070974Y-87196241D01*
X115923842Y-86910196D01*
X115776710Y-86593866D01*
X115811883Y-86579717D01*
X115925591Y-86570385D01*
X116437772Y-86563461D01*
X117098832Y-86563461D01*
X117217864Y-86726864D01*
X117356584Y-86899990D01*
X117514250Y-87065681D01*
X117687959Y-87221859D01*
X117874814Y-87366447D01*
X118071914Y-87497368D01*
X118276360Y-87612575D01*
X118485253Y-87709931D01*
X118695692Y-87787387D01*
X119036410Y-87870714D01*
X119400355Y-87915418D01*
X119764497Y-87919934D01*
X120105806Y-87882666D01*
X120384846Y-87817732D01*
X120656068Y-87726638D01*
X120917102Y-87610919D01*
X121165579Y-87471991D01*
X121399130Y-87311327D01*
X121615387Y-87130434D01*
X121811980Y-86930786D01*
X121986541Y-86713829D01*
X122095247Y-86563491D01*
X122757184Y-86563491D01*
X122757182Y-86563732D01*
X123270048Y-86570656D01*
X123383903Y-86579988D01*
X123419119Y-86594137D01*
X123271987Y-86910466D01*
X123124855Y-87196512D01*
X123228930Y-87331105D01*
X123574637Y-87766435D01*
X125064367Y-85852532D01*
X124988767Y-85932186D01*
X124927168Y-85988872D01*
X124843552Y-86024876D01*
X124685583Y-86054377D01*
X124400928Y-86091405D01*
X124079080Y-86117896D01*
X123414967Y-86132647D01*
X119643329Y-86142581D01*
X115797508Y-86138066D01*
X115162343Y-86122412D01*
X114827529Y-86091826D01*
X114488851Y-86041674D01*
X114296640Y-85996819D01*
X114243462Y-85969124D01*
X114203122Y-85935287D01*
X114173850Y-85884743D01*
X114153873Y-85806955D01*
X114134718Y-85527261D01*
X114131485Y-85011766D01*
X114131485Y-84215041D01*
X114199763Y-84135086D01*
X114270227Y-84072410D01*
X114382104Y-84028549D01*
X114580842Y-83991672D01*
X114911891Y-83949978D01*
X115365991Y-83890975D01*
X115444908Y-83661946D01*
X115534737Y-83425150D01*
X115647551Y-83167854D01*
X115776721Y-82876751D01*
X115471380Y-82472699D01*
X115250936Y-82182108D01*
X115149705Y-82023792D01*
X115138398Y-81921500D01*
X115162550Y-81823482D01*
X115226779Y-81719173D01*
X115335699Y-81597976D01*
X115506737Y-81426565D01*
X114909135Y-80746733D01*
X114236559Y-79978216D01*
X114161585Y-79889410D01*
X114071904Y-79931344D01*
X113966023Y-79970660D01*
X113860041Y-79990528D01*
X113755789Y-79990528D01*
X113655093Y-79973068D01*
X113559786Y-79937606D01*
X113471694Y-79884714D01*
X113392649Y-79814843D01*
X113324479Y-79728536D01*
X113289244Y-79667816D01*
X113268346Y-79608060D01*
X113255763Y-79431623D01*
X113260799Y-79296758D01*
X113282170Y-79200456D01*
X113329245Y-79118243D01*
X113411402Y-79025644D01*
X113519527Y-78939548D01*
X113641167Y-78885391D01*
X113770420Y-78862211D01*
X113901381Y-78869135D01*
X114028146Y-78905019D01*
X114144813Y-78968989D01*
X114245477Y-79059992D01*
X114324233Y-79177126D01*
X114364921Y-79279900D01*
X114383950Y-79383667D01*
X114381120Y-79485930D01*
X114356218Y-79584218D01*
X114308217Y-79745755D01*
X114355618Y-79807407D01*
X114500456Y-79945914D01*
X115073040Y-80445064D01*
X115842181Y-81098675D01*
X116071609Y-80873680D01*
X116283022Y-80683124D01*
X116349333Y-80649227D01*
X116419756Y-80635379D01*
X116521685Y-80635379D01*
X116598179Y-80654044D01*
X117036384Y-80979555D01*
X117414946Y-81273638D01*
X117677167Y-81148316D01*
X117938357Y-81035187D01*
X118198106Y-80939186D01*
X118380981Y-80871633D01*
X118457324Y-80826959D01*
X118522097Y-80303817D01*
X118588707Y-79865176D01*
X118620503Y-79783836D01*
X118668040Y-79728596D01*
X118749772Y-79648129D01*
X119597893Y-79648129D01*
X120446077Y-79648129D01*
X120529937Y-79730733D01*
X120578788Y-79786756D01*
X120610877Y-79866320D01*
X120675818Y-80292860D01*
X120738400Y-80813894D01*
X120753473Y-80837375D01*
X120799920Y-80865372D01*
X120997680Y-80939186D01*
X121257952Y-81035428D01*
X121520370Y-81149129D01*
X121784282Y-81275234D01*
X122143944Y-80995841D01*
X122428207Y-80776837D01*
X122587250Y-80666988D01*
X122681802Y-80631466D01*
X122772587Y-80635379D01*
X122843947Y-80648625D01*
X122908073Y-80679451D01*
X123098643Y-80848694D01*
X123302662Y-81048523D01*
X124065733Y-80401715D01*
X124642053Y-79900789D01*
X124776556Y-79770741D01*
X124815662Y-79714507D01*
X124759400Y-79558299D01*
X124734392Y-79457662D01*
X124732793Y-79353624D01*
X124754543Y-79246936D01*
X124799576Y-79138142D01*
X124891204Y-79009208D01*
X125009563Y-78915013D01*
X125146278Y-78856732D01*
X125292978Y-78835359D01*
X125292982Y-78835991D01*
X125292982Y-78835991D01*
G37*
G36*
X123431252Y-79536564D02*
X123524597Y-79403476D01*
X123321071Y-79264908D01*
X123243168Y-79167312D01*
X123280447Y-79045844D01*
X123423577Y-78841771D01*
X123524451Y-78766241D01*
X123644671Y-78803509D01*
X123848197Y-78942076D01*
X123524597Y-79403476D01*
X123431252Y-79536564D01*
X123070314Y-80051217D01*
X123227011Y-80157905D01*
X124098241Y-78915675D01*
X123759631Y-78685141D01*
X123481793Y-78595613D01*
X123255679Y-78751068D01*
X123136196Y-78921425D01*
X123122805Y-79282007D01*
X122490353Y-79656347D01*
X122661459Y-79772848D01*
X123254742Y-79416390D01*
X123431252Y-79536564D01*
X123431252Y-79536564D01*
G37*
G36*
X122332846Y-77923427D02*
X121513927Y-79046687D01*
X121450289Y-79195820D01*
X121920529Y-79390621D01*
X122281144Y-78545520D01*
X122577819Y-78668403D01*
X122641457Y-78519270D01*
X122173235Y-78325312D01*
X121812620Y-79170413D01*
X121513927Y-79046687D01*
X122332846Y-77923427D01*
X122256480Y-78102394D01*
X122448209Y-78181837D01*
X122524575Y-78002871D01*
X122332846Y-77923427D01*
X122332846Y-77923427D01*
G37*
G36*
X121135433Y-78001396D02*
X121125459Y-78052241D01*
X120953802Y-78131594D01*
X121051649Y-78189755D01*
X121070665Y-78274677D01*
X120948087Y-78899449D01*
X120687995Y-78849899D01*
X120574686Y-78790986D01*
X120553791Y-78681529D01*
X120645205Y-78215614D01*
X120705991Y-78121720D01*
X120833428Y-78108776D01*
X120953801Y-78131654D01*
X120953802Y-78131594D01*
X121125459Y-78052241D01*
X120963470Y-77968643D01*
X120886088Y-77953892D01*
X120593010Y-77981587D01*
X120454187Y-78223170D01*
X120379393Y-78604373D01*
X120418979Y-78879972D01*
X120678328Y-79012850D01*
X120916924Y-79058277D01*
X120846286Y-79418317D01*
X121028995Y-79453117D01*
X121307393Y-78034149D01*
X121135432Y-78001396D01*
X121135433Y-78001396D01*
X121135433Y-78001396D01*
G37*
G36*
X119120449Y-78577069D02*
X119300152Y-78143004D01*
X119340217Y-78038875D01*
X119462264Y-78000462D01*
X119578285Y-77997452D01*
X119701415Y-78032372D01*
X119744536Y-78135297D01*
X119751541Y-78609822D01*
X119711476Y-78713950D01*
X119589429Y-78752363D01*
X119473408Y-78755373D01*
X119350278Y-78720483D01*
X119307158Y-78617528D01*
X119300153Y-78143034D01*
X119300152Y-78143004D01*
X119120449Y-78577069D01*
X119216274Y-78838881D01*
X119497686Y-78916819D01*
X119569926Y-78916819D01*
X119851107Y-78830813D01*
X119936975Y-78566382D01*
X119931243Y-78178165D01*
X119837607Y-77916323D01*
X119554006Y-77838384D01*
X119481766Y-77838384D01*
X119202774Y-77924360D01*
X119114717Y-78188791D01*
X119120449Y-78577039D01*
X119120449Y-78577069D01*
X119120449Y-78577069D01*
G37*
G36*
X118294289Y-79067007D02*
X118411058Y-78988316D01*
X118428253Y-78816544D01*
X118178025Y-77711256D01*
X118492135Y-77642228D01*
X118456388Y-77484334D01*
X117960650Y-77593280D01*
X118244242Y-78845955D01*
X118238110Y-78898125D01*
X118183753Y-78925519D01*
X117899558Y-78987984D01*
X117935305Y-79145878D01*
X118294287Y-79066977D01*
X118294289Y-79067007D01*
X118294289Y-79067007D01*
G37*
G36*
X116952168Y-79550713D02*
X117135646Y-79291068D01*
X117047219Y-79297390D01*
X116998731Y-79233781D01*
X116899316Y-79017667D01*
X117148573Y-78906343D01*
X117249682Y-78901527D01*
X117322443Y-78970855D01*
X117367632Y-79069114D01*
X117378045Y-79154458D01*
X117313116Y-79211866D01*
X117135645Y-79291099D01*
X117135646Y-79291068D01*
X116952168Y-79550713D01*
X117002765Y-79509170D01*
X117034729Y-79442821D01*
X117183479Y-79447337D01*
X117360951Y-79368074D01*
X117555178Y-79210300D01*
X117528081Y-78973745D01*
X117510007Y-78934430D01*
X117078790Y-78759919D01*
X116831526Y-78870339D01*
X116786337Y-78772111D01*
X116780846Y-78660878D01*
X116877149Y-78577611D01*
X117186229Y-78439585D01*
X117118446Y-78292258D01*
X116829307Y-78421372D01*
X116608411Y-78610002D01*
X116634920Y-78887077D01*
X116851826Y-79358621D01*
X116850682Y-79413591D01*
X116779240Y-79462088D01*
X116842504Y-79599601D01*
X116952177Y-79550623D01*
X116952168Y-79550713D01*
X116952168Y-79550713D01*
G37*
G36*
X115698232Y-79961117D02*
X115969877Y-79946727D01*
X115874182Y-79887453D01*
X115589308Y-79504805D01*
X115560694Y-79397094D01*
X115637539Y-79296066D01*
X115736397Y-79224630D01*
X115736398Y-79224630D01*
X115846207Y-79193412D01*
X115922363Y-79237363D01*
X116304352Y-79750451D01*
X116090749Y-79904823D01*
X115969877Y-79946727D01*
X115698232Y-79961117D01*
X115930351Y-80119733D01*
X116205518Y-80022528D01*
X116551521Y-79772457D01*
X115645105Y-78554943D01*
X115495052Y-78663376D01*
X115779926Y-79046024D01*
X115621629Y-79106924D01*
X115558078Y-79152862D01*
X115379556Y-79383547D01*
X115465154Y-79648038D01*
X115698232Y-79961117D01*
X115698232Y-79961117D01*
G37*
G36*
X123262296Y-90534096D02*
X123641549Y-91258210D01*
X123837194Y-91155740D01*
X123012732Y-89581582D01*
X122817086Y-89684052D01*
X123175138Y-90367687D01*
X122711886Y-90610314D01*
X122353834Y-89926680D01*
X122158189Y-90029150D01*
X122982651Y-91603308D01*
X123178297Y-91500838D01*
X122799044Y-90776726D01*
X123262296Y-90534096D01*
X123262296Y-90534096D01*
G37*
G36*
X121794645Y-92023328D02*
X122040511Y-91743877D01*
X121937790Y-91739730D01*
X121890383Y-91659001D01*
X121804579Y-91393270D01*
X122106548Y-91295764D01*
X122223681Y-91303375D01*
X122298290Y-91393992D01*
X122337292Y-91514779D01*
X122337944Y-91615939D01*
X122255506Y-91674570D01*
X122040504Y-91743994D01*
X122040511Y-91743877D01*
X121794645Y-92023328D01*
X121858462Y-91981379D01*
X121904110Y-91907954D01*
X122074872Y-91932859D01*
X122289873Y-91863435D01*
X122534621Y-91704377D01*
X122534854Y-91424204D01*
X122519252Y-91375886D01*
X122045646Y-91115332D01*
X121746093Y-91212056D01*
X121707091Y-91091269D01*
X121715534Y-90960490D01*
X121837555Y-90875743D01*
X122211997Y-90754835D01*
X122153494Y-90573653D01*
X121803210Y-90686758D01*
X121523635Y-90878402D01*
X121517338Y-91205887D01*
X121704547Y-91785667D01*
X121695914Y-91849808D01*
X121607160Y-91897140D01*
X121661762Y-92066245D01*
X121794629Y-92023342D01*
X121794645Y-92023328D01*
X121794645Y-92023328D01*
G37*
G36*
X120767657Y-92222924D02*
X121078640Y-92083815D01*
X121137710Y-91760024D01*
X121073358Y-91307637D01*
X120926698Y-91015678D01*
X120588901Y-90966291D01*
X120264690Y-91012410D01*
X120291504Y-91200906D01*
X120640847Y-91151212D01*
X120787668Y-91173905D01*
X120852581Y-91287747D01*
X120931234Y-91840666D01*
X120900643Y-91968096D01*
X120765978Y-92030843D01*
X120416635Y-92080536D01*
X120443448Y-92269031D01*
X120767659Y-92222912D01*
X120767657Y-92222924D01*
X120767657Y-92222924D01*
G37*
G36*
X119694739Y-91755665D02*
X119679072Y-92298692D01*
X119894760Y-92304928D01*
X119946010Y-90528669D01*
X119730321Y-90522464D01*
X119702645Y-91481641D01*
X119317288Y-91018468D01*
X119045774Y-91010650D01*
X119472878Y-91523280D01*
X118973642Y-92278379D01*
X119240079Y-92286084D01*
X119630958Y-91677694D01*
X119694736Y-91755722D01*
X119694739Y-91755665D01*
X119694739Y-91755665D01*
G37*
G36*
X118015555Y-92121209D02*
X118176877Y-92091431D01*
X118277047Y-91914750D01*
X118539171Y-90608035D01*
X118905051Y-90681431D01*
X118942496Y-90494755D01*
X118365053Y-90378922D01*
X118067980Y-91859865D01*
X118036585Y-91913119D01*
X117965888Y-91917062D01*
X117634853Y-91850655D01*
X117597408Y-92037330D01*
X118015557Y-92121209D01*
X118015555Y-92121209D01*
X118015555Y-92121209D01*
G37*
G36*
X116434239Y-91622215D02*
X116801108Y-91559297D01*
X116723816Y-91491514D01*
X116737648Y-91398925D01*
X116837834Y-91138274D01*
X117134028Y-91252121D01*
X117220436Y-91331566D01*
X117221554Y-91448941D01*
X117176015Y-91567418D01*
X117112971Y-91646533D01*
X117011998Y-91640367D01*
X116801108Y-91559306D01*
X116801108Y-91559297D01*
X116434239Y-91622215D01*
X116510243Y-91629672D01*
X116591888Y-91601223D01*
X116709108Y-91727867D01*
X116919998Y-91808928D01*
X117210342Y-91838949D01*
X117386538Y-91621112D01*
X117404752Y-91573721D01*
X117199968Y-91073466D01*
X116906143Y-90960529D01*
X116951681Y-90842053D01*
X117040420Y-90745617D01*
X117188598Y-90756353D01*
X117555879Y-90897523D01*
X117624187Y-90719808D01*
X117280602Y-90587744D01*
X116942689Y-90561213D01*
X116732053Y-90812045D01*
X116513466Y-91380738D01*
X116466453Y-91425220D01*
X116367665Y-91406296D01*
X116303910Y-91572163D01*
X116434236Y-91622257D01*
X116434239Y-91622215D01*
X116434239Y-91622215D01*
G37*
G36*
X115361439Y-90572648D02*
X115500038Y-90856004D01*
X115520902Y-90726625D01*
X115806510Y-90246694D01*
X115910272Y-90166651D01*
X116054506Y-90202261D01*
X116176670Y-90274960D01*
X116176671Y-90274963D01*
X116260196Y-90377843D01*
X116247067Y-90479331D01*
X115864094Y-91122874D01*
X115600132Y-90965791D01*
X115500038Y-90856004D01*
X115361439Y-90572648D01*
X115294680Y-90893317D01*
X115524580Y-91142384D01*
X115952154Y-91396835D01*
X116860905Y-89869785D01*
X116675477Y-89759436D01*
X116389870Y-90239364D01*
X116252221Y-90098371D01*
X116173687Y-90051633D01*
X115842942Y-89967061D01*
X115595118Y-90179978D01*
X115361439Y-90572648D01*
X115361439Y-90572648D01*
G37*
D13*
G04 #@! TO.C,Ref\002A\002A*
G36*
X136846666Y-93295833D02*
X136825500Y-93317000D01*
X136804333Y-93295833D01*
X136825500Y-93274666D01*
X136846666Y-93295833D01*
X136846666Y-93295833D01*
G37*
X136846666Y-93295833D02*
X136825500Y-93317000D01*
X136804333Y-93295833D01*
X136825500Y-93274666D01*
X136846666Y-93295833D01*
G36*
X133106199Y-101793043D02*
X133311833Y-101807430D01*
X133154443Y-101880215D01*
X133026238Y-101934500D01*
X132951593Y-101947880D01*
X132910077Y-101920606D01*
X132892032Y-101883440D01*
X132877071Y-101824386D01*
X132900818Y-101794312D01*
X132979008Y-101786580D01*
X133106199Y-101793043D01*
X133106199Y-101793043D01*
G37*
X133106199Y-101793043D02*
X133311833Y-101807430D01*
X133154443Y-101880215D01*
X133026238Y-101934500D01*
X132951593Y-101947880D01*
X132910077Y-101920606D01*
X132892032Y-101883440D01*
X132877071Y-101824386D01*
X132900818Y-101794312D01*
X132979008Y-101786580D01*
X133106199Y-101793043D01*
G36*
X134041351Y-101693258D02*
X134005131Y-101816985D01*
X133961039Y-101904199D01*
X133941682Y-101923353D01*
X133901610Y-101989768D01*
X133883741Y-102117185D01*
X133883333Y-102143105D01*
X133873257Y-102284741D01*
X133845536Y-102344135D01*
X133803926Y-102320598D01*
X133752185Y-102213440D01*
X133736929Y-102169973D01*
X133680715Y-102033942D01*
X133615955Y-101923286D01*
X133586249Y-101888821D01*
X133529469Y-101810748D01*
X133548477Y-101757731D01*
X133623543Y-101741333D01*
X133699736Y-101719605D01*
X133814207Y-101663987D01*
X133890047Y-101619175D01*
X134082670Y-101497017D01*
X134041351Y-101693258D01*
X134041351Y-101693258D01*
G37*
X134041351Y-101693258D02*
X134005131Y-101816985D01*
X133961039Y-101904199D01*
X133941682Y-101923353D01*
X133901610Y-101989768D01*
X133883741Y-102117185D01*
X133883333Y-102143105D01*
X133873257Y-102284741D01*
X133845536Y-102344135D01*
X133803926Y-102320598D01*
X133752185Y-102213440D01*
X133736929Y-102169973D01*
X133680715Y-102033942D01*
X133615955Y-101923286D01*
X133586249Y-101888821D01*
X133529469Y-101810748D01*
X133548477Y-101757731D01*
X133623543Y-101741333D01*
X133699736Y-101719605D01*
X133814207Y-101663987D01*
X133890047Y-101619175D01*
X134082670Y-101497017D01*
X134041351Y-101693258D01*
G36*
X134490084Y-101229261D02*
X134560083Y-101331722D01*
X134633550Y-101479900D01*
X134703110Y-101655310D01*
X134761390Y-101839468D01*
X134801016Y-102013891D01*
X134814666Y-102152910D01*
X134796584Y-102338763D01*
X134735201Y-102465504D01*
X134619811Y-102552162D01*
X134579785Y-102570417D01*
X134474719Y-102611078D01*
X134403705Y-102622096D01*
X134323403Y-102608166D01*
X134296112Y-102601157D01*
X134235734Y-102560225D01*
X134194371Y-102467869D01*
X134169833Y-102314386D01*
X134159932Y-102090072D01*
X134159513Y-101995333D01*
X134164136Y-101801358D01*
X134180880Y-101660715D01*
X134216008Y-101542270D01*
X134275786Y-101414891D01*
X134276643Y-101413250D01*
X134344593Y-101294558D01*
X134402120Y-101213920D01*
X134430927Y-101191000D01*
X134490084Y-101229261D01*
X134490084Y-101229261D01*
G37*
X134490084Y-101229261D02*
X134560083Y-101331722D01*
X134633550Y-101479900D01*
X134703110Y-101655310D01*
X134761390Y-101839468D01*
X134801016Y-102013891D01*
X134814666Y-102152910D01*
X134796584Y-102338763D01*
X134735201Y-102465504D01*
X134619811Y-102552162D01*
X134579785Y-102570417D01*
X134474719Y-102611078D01*
X134403705Y-102622096D01*
X134323403Y-102608166D01*
X134296112Y-102601157D01*
X134235734Y-102560225D01*
X134194371Y-102467869D01*
X134169833Y-102314386D01*
X134159932Y-102090072D01*
X134159513Y-101995333D01*
X134164136Y-101801358D01*
X134180880Y-101660715D01*
X134216008Y-101542270D01*
X134275786Y-101414891D01*
X134276643Y-101413250D01*
X134344593Y-101294558D01*
X134402120Y-101213920D01*
X134430927Y-101191000D01*
X134490084Y-101229261D01*
G36*
X132693761Y-101866064D02*
X132781377Y-101953928D01*
X132837104Y-102092822D01*
X132862346Y-102262728D01*
X132858507Y-102443624D01*
X132826989Y-102615491D01*
X132769198Y-102758308D01*
X132686536Y-102852054D01*
X132622897Y-102876827D01*
X132557672Y-102870878D01*
X132504162Y-102819714D01*
X132445095Y-102706080D01*
X132439546Y-102693625D01*
X132388006Y-102559756D01*
X132374307Y-102452410D01*
X132393894Y-102324822D01*
X132400768Y-102295411D01*
X132448548Y-102141273D01*
X132510186Y-101997154D01*
X132531416Y-101958655D01*
X132593963Y-101871767D01*
X132647037Y-101849315D01*
X132693761Y-101866064D01*
X132693761Y-101866064D01*
G37*
X132693761Y-101866064D02*
X132781377Y-101953928D01*
X132837104Y-102092822D01*
X132862346Y-102262728D01*
X132858507Y-102443624D01*
X132826989Y-102615491D01*
X132769198Y-102758308D01*
X132686536Y-102852054D01*
X132622897Y-102876827D01*
X132557672Y-102870878D01*
X132504162Y-102819714D01*
X132445095Y-102706080D01*
X132439546Y-102693625D01*
X132388006Y-102559756D01*
X132374307Y-102452410D01*
X132393894Y-102324822D01*
X132400768Y-102295411D01*
X132448548Y-102141273D01*
X132510186Y-101997154D01*
X132531416Y-101958655D01*
X132593963Y-101871767D01*
X132647037Y-101849315D01*
X132693761Y-101866064D01*
G36*
X133469647Y-101985608D02*
X133536085Y-102021661D01*
X133592964Y-102113763D01*
X133597280Y-102122333D01*
X133640051Y-102261214D01*
X133665299Y-102454062D01*
X133672099Y-102671822D01*
X133659527Y-102885437D01*
X133627244Y-103063751D01*
X133551010Y-103209501D01*
X133432218Y-103293408D01*
X133290362Y-103308918D01*
X133144937Y-103249474D01*
X133123423Y-103233205D01*
X133079366Y-103192442D01*
X133055287Y-103145386D01*
X133048990Y-103071810D01*
X133058276Y-102951489D01*
X133076400Y-102800399D01*
X133097777Y-102610039D01*
X133113823Y-102429417D01*
X133121651Y-102292035D01*
X133121981Y-102271610D01*
X133133607Y-102121041D01*
X133177157Y-102034899D01*
X133267801Y-101994622D01*
X133356647Y-101984395D01*
X133469647Y-101985608D01*
X133469647Y-101985608D01*
G37*
X133469647Y-101985608D02*
X133536085Y-102021661D01*
X133592964Y-102113763D01*
X133597280Y-102122333D01*
X133640051Y-102261214D01*
X133665299Y-102454062D01*
X133672099Y-102671822D01*
X133659527Y-102885437D01*
X133627244Y-103063751D01*
X133551010Y-103209501D01*
X133432218Y-103293408D01*
X133290362Y-103308918D01*
X133144937Y-103249474D01*
X133123423Y-103233205D01*
X133079366Y-103192442D01*
X133055287Y-103145386D01*
X133048990Y-103071810D01*
X133058276Y-102951489D01*
X133076400Y-102800399D01*
X133097777Y-102610039D01*
X133113823Y-102429417D01*
X133121651Y-102292035D01*
X133121981Y-102271610D01*
X133133607Y-102121041D01*
X133177157Y-102034899D01*
X133267801Y-101994622D01*
X133356647Y-101984395D01*
X133469647Y-101985608D01*
G36*
X132013678Y-94244561D02*
X132114845Y-94285614D01*
X132250834Y-94362909D01*
X132420770Y-94475397D01*
X132606212Y-94608999D01*
X132788717Y-94749634D01*
X132949844Y-94883225D01*
X133071150Y-94995691D01*
X133123414Y-95055589D01*
X133185030Y-95155484D01*
X133198497Y-95225214D01*
X133155910Y-95269782D01*
X133049370Y-95294185D01*
X132870971Y-95303423D01*
X132731078Y-95303801D01*
X132539004Y-95298685D01*
X132371938Y-95287210D01*
X132252436Y-95271295D01*
X132211166Y-95259583D01*
X132111941Y-95175569D01*
X132010984Y-95031798D01*
X131919752Y-94852143D01*
X131849699Y-94660481D01*
X131812280Y-94480686D01*
X131809000Y-94421370D01*
X131830727Y-94293712D01*
X131897939Y-94235226D01*
X132013678Y-94244561D01*
X132013678Y-94244561D01*
G37*
X132013678Y-94244561D02*
X132114845Y-94285614D01*
X132250834Y-94362909D01*
X132420770Y-94475397D01*
X132606212Y-94608999D01*
X132788717Y-94749634D01*
X132949844Y-94883225D01*
X133071150Y-94995691D01*
X133123414Y-95055589D01*
X133185030Y-95155484D01*
X133198497Y-95225214D01*
X133155910Y-95269782D01*
X133049370Y-95294185D01*
X132870971Y-95303423D01*
X132731078Y-95303801D01*
X132539004Y-95298685D01*
X132371938Y-95287210D01*
X132252436Y-95271295D01*
X132211166Y-95259583D01*
X132111941Y-95175569D01*
X132010984Y-95031798D01*
X131919752Y-94852143D01*
X131849699Y-94660481D01*
X131812280Y-94480686D01*
X131809000Y-94421370D01*
X131830727Y-94293712D01*
X131897939Y-94235226D01*
X132013678Y-94244561D01*
G36*
X131343333Y-95581833D02*
X131322166Y-95603000D01*
X131301000Y-95581833D01*
X131322166Y-95560666D01*
X131343333Y-95581833D01*
X131343333Y-95581833D01*
G37*
X131343333Y-95581833D02*
X131322166Y-95603000D01*
X131301000Y-95581833D01*
X131322166Y-95560666D01*
X131343333Y-95581833D01*
G36*
X132282163Y-95407649D02*
X132396044Y-95436009D01*
X132437573Y-95468339D01*
X132418550Y-95517906D01*
X132400597Y-95540788D01*
X132306130Y-95628893D01*
X132225347Y-95658410D01*
X132174597Y-95623654D01*
X132173065Y-95619929D01*
X132151282Y-95521015D01*
X132147666Y-95467245D01*
X132159350Y-95409833D01*
X132210561Y-95396567D01*
X132282163Y-95407649D01*
X132282163Y-95407649D01*
G37*
X132282163Y-95407649D02*
X132396044Y-95436009D01*
X132437573Y-95468339D01*
X132418550Y-95517906D01*
X132400597Y-95540788D01*
X132306130Y-95628893D01*
X132225347Y-95658410D01*
X132174597Y-95623654D01*
X132173065Y-95619929D01*
X132151282Y-95521015D01*
X132147666Y-95467245D01*
X132159350Y-95409833D01*
X132210561Y-95396567D01*
X132282163Y-95407649D01*
G36*
X133080995Y-95797256D02*
X133144992Y-95834486D01*
X133202076Y-95883207D01*
X133189307Y-95891175D01*
X133104796Y-95858454D01*
X133057833Y-95837362D01*
X132990997Y-95798531D01*
X132988254Y-95776973D01*
X132996825Y-95775771D01*
X133080995Y-95797256D01*
X133080995Y-95797256D01*
G37*
X133080995Y-95797256D02*
X133144992Y-95834486D01*
X133202076Y-95883207D01*
X133189307Y-95891175D01*
X133104796Y-95858454D01*
X133057833Y-95837362D01*
X132990997Y-95798531D01*
X132988254Y-95776973D01*
X132996825Y-95775771D01*
X133080995Y-95797256D01*
G36*
X132302888Y-96082777D02*
X132297077Y-96107944D01*
X132274666Y-96111000D01*
X132239821Y-96095510D01*
X132246444Y-96082777D01*
X132296684Y-96077711D01*
X132302888Y-96082777D01*
X132302888Y-96082777D01*
G37*
X132302888Y-96082777D02*
X132297077Y-96107944D01*
X132274666Y-96111000D01*
X132239821Y-96095510D01*
X132246444Y-96082777D01*
X132296684Y-96077711D01*
X132302888Y-96082777D01*
G36*
X132755595Y-96055706D02*
X132781804Y-96113999D01*
X132754696Y-96151862D01*
X132742831Y-96153333D01*
X132685089Y-96122727D01*
X132678641Y-96113925D01*
X132680664Y-96063674D01*
X132725418Y-96041801D01*
X132755595Y-96055706D01*
X132755595Y-96055706D01*
G37*
X132755595Y-96055706D02*
X132781804Y-96113999D01*
X132754696Y-96151862D01*
X132742831Y-96153333D01*
X132685089Y-96122727D01*
X132678641Y-96113925D01*
X132680664Y-96063674D01*
X132725418Y-96041801D01*
X132755595Y-96055706D01*
G36*
X132616258Y-96260974D02*
X132653795Y-96301841D01*
X132611041Y-96321838D01*
X132589668Y-96322666D01*
X132546066Y-96301838D01*
X132550260Y-96279642D01*
X132600994Y-96255221D01*
X132616258Y-96260974D01*
X132616258Y-96260974D01*
G37*
X132616258Y-96260974D02*
X132653795Y-96301841D01*
X132611041Y-96321838D01*
X132589668Y-96322666D01*
X132546066Y-96301838D01*
X132550260Y-96279642D01*
X132600994Y-96255221D01*
X132616258Y-96260974D01*
G36*
X131434601Y-94876828D02*
X131590745Y-94973960D01*
X131744115Y-95116867D01*
X131875542Y-95290019D01*
X131899866Y-95331089D01*
X131999065Y-95551136D01*
X132066895Y-95789805D01*
X132096509Y-96016429D01*
X132087506Y-96171583D01*
X132046809Y-96285447D01*
X131981322Y-96318755D01*
X131889112Y-96271992D01*
X131845719Y-96232385D01*
X131800142Y-96167172D01*
X131728021Y-96041786D01*
X131637809Y-95873150D01*
X131537958Y-95678186D01*
X131436922Y-95473817D01*
X131343154Y-95276965D01*
X131265106Y-95104553D01*
X131211231Y-94973504D01*
X131198279Y-94936250D01*
X131187619Y-94869309D01*
X131228108Y-94844143D01*
X131294856Y-94841000D01*
X131434601Y-94876828D01*
X131434601Y-94876828D01*
G37*
X131434601Y-94876828D02*
X131590745Y-94973960D01*
X131744115Y-95116867D01*
X131875542Y-95290019D01*
X131899866Y-95331089D01*
X131999065Y-95551136D01*
X132066895Y-95789805D01*
X132096509Y-96016429D01*
X132087506Y-96171583D01*
X132046809Y-96285447D01*
X131981322Y-96318755D01*
X131889112Y-96271992D01*
X131845719Y-96232385D01*
X131800142Y-96167172D01*
X131728021Y-96041786D01*
X131637809Y-95873150D01*
X131537958Y-95678186D01*
X131436922Y-95473817D01*
X131343154Y-95276965D01*
X131265106Y-95104553D01*
X131211231Y-94973504D01*
X131198279Y-94936250D01*
X131187619Y-94869309D01*
X131228108Y-94844143D01*
X131294856Y-94841000D01*
X131434601Y-94876828D01*
G36*
X132612103Y-96524214D02*
X132613333Y-96534333D01*
X132581118Y-96575436D01*
X132571000Y-96576666D01*
X132529896Y-96544452D01*
X132528666Y-96534333D01*
X132560881Y-96493230D01*
X132571000Y-96492000D01*
X132612103Y-96524214D01*
X132612103Y-96524214D01*
G37*
X132612103Y-96524214D02*
X132613333Y-96534333D01*
X132581118Y-96575436D01*
X132571000Y-96576666D01*
X132529896Y-96544452D01*
X132528666Y-96534333D01*
X132560881Y-96493230D01*
X132571000Y-96492000D01*
X132612103Y-96524214D01*
G36*
X132622505Y-96653572D02*
X132650445Y-96711742D01*
X132623187Y-96753078D01*
X132576116Y-96775563D01*
X132545991Y-96730086D01*
X132536295Y-96651241D01*
X132571373Y-96623969D01*
X132622505Y-96653572D01*
X132622505Y-96653572D01*
G37*
X132622505Y-96653572D02*
X132650445Y-96711742D01*
X132623187Y-96753078D01*
X132576116Y-96775563D01*
X132545991Y-96730086D01*
X132536295Y-96651241D01*
X132571373Y-96623969D01*
X132622505Y-96653572D01*
G36*
X132683888Y-96887111D02*
X132678077Y-96912278D01*
X132655666Y-96915333D01*
X132620821Y-96899844D01*
X132627444Y-96887111D01*
X132677684Y-96882044D01*
X132683888Y-96887111D01*
X132683888Y-96887111D01*
G37*
X132683888Y-96887111D02*
X132678077Y-96912278D01*
X132655666Y-96915333D01*
X132620821Y-96899844D01*
X132627444Y-96887111D01*
X132677684Y-96882044D01*
X132683888Y-96887111D01*
G36*
X132860169Y-97022858D02*
X132867333Y-97042333D01*
X132833045Y-97079890D01*
X132803833Y-97084666D01*
X132747497Y-97061807D01*
X132740333Y-97042333D01*
X132774621Y-97004776D01*
X132803833Y-97000000D01*
X132860169Y-97022858D01*
X132860169Y-97022858D01*
G37*
X132860169Y-97022858D02*
X132867333Y-97042333D01*
X132833045Y-97079890D01*
X132803833Y-97084666D01*
X132747497Y-97061807D01*
X132740333Y-97042333D01*
X132774621Y-97004776D01*
X132803833Y-97000000D01*
X132860169Y-97022858D01*
G36*
X133001837Y-96036224D02*
X133081020Y-96092192D01*
X133088500Y-96100416D01*
X133203359Y-96276702D01*
X133269104Y-96474649D01*
X133285928Y-96675126D01*
X133254024Y-96859002D01*
X133173586Y-97007145D01*
X133078561Y-97084901D01*
X133014706Y-97107385D01*
X132995074Y-97066135D01*
X132994333Y-97039293D01*
X133012522Y-96973296D01*
X133057833Y-96972975D01*
X133107428Y-96966807D01*
X133128047Y-96889815D01*
X133128574Y-96882254D01*
X133138139Y-96744111D01*
X133147502Y-96664855D01*
X133160913Y-96618822D01*
X133177120Y-96589146D01*
X133193308Y-96508949D01*
X133174685Y-96413879D01*
X133132555Y-96340870D01*
X133095577Y-96322666D01*
X133041653Y-96299810D01*
X133056805Y-96240306D01*
X133087466Y-96204133D01*
X133106947Y-96167366D01*
X133056169Y-96154003D01*
X133023966Y-96153333D01*
X132932533Y-96132645D01*
X132909666Y-96089833D01*
X132936712Y-96034963D01*
X133001837Y-96036224D01*
X133001837Y-96036224D01*
G37*
X133001837Y-96036224D02*
X133081020Y-96092192D01*
X133088500Y-96100416D01*
X133203359Y-96276702D01*
X133269104Y-96474649D01*
X133285928Y-96675126D01*
X133254024Y-96859002D01*
X133173586Y-97007145D01*
X133078561Y-97084901D01*
X133014706Y-97107385D01*
X132995074Y-97066135D01*
X132994333Y-97039293D01*
X133012522Y-96973296D01*
X133057833Y-96972975D01*
X133107428Y-96966807D01*
X133128047Y-96889815D01*
X133128574Y-96882254D01*
X133138139Y-96744111D01*
X133147502Y-96664855D01*
X133160913Y-96618822D01*
X133177120Y-96589146D01*
X133193308Y-96508949D01*
X133174685Y-96413879D01*
X133132555Y-96340870D01*
X133095577Y-96322666D01*
X133041653Y-96299810D01*
X133056805Y-96240306D01*
X133087466Y-96204133D01*
X133106947Y-96167366D01*
X133056169Y-96154003D01*
X133023966Y-96153333D01*
X132932533Y-96132645D01*
X132909666Y-96089833D01*
X132936712Y-96034963D01*
X133001837Y-96036224D01*
G36*
X130101374Y-90671669D02*
X130166433Y-90741620D01*
X130230998Y-90867261D01*
X130298296Y-91056004D01*
X130371552Y-91315261D01*
X130436536Y-91578086D01*
X130497024Y-91824553D01*
X130558945Y-92061585D01*
X130616507Y-92268015D01*
X130663921Y-92422677D01*
X130680625Y-92470333D01*
X130785833Y-92679784D01*
X130941033Y-92872468D01*
X131155201Y-93056424D01*
X131437316Y-93239692D01*
X131696873Y-93380500D01*
X131901417Y-93483875D01*
X132052703Y-93554985D01*
X132172710Y-93600396D01*
X132283418Y-93626670D01*
X132406807Y-93640371D01*
X132564857Y-93648064D01*
X132596798Y-93649248D01*
X132787659Y-93654600D01*
X132917007Y-93651167D01*
X133007860Y-93634945D01*
X133083235Y-93601926D01*
X133162186Y-93550859D01*
X133358086Y-93454843D01*
X133569800Y-93404562D01*
X133674403Y-93388167D01*
X133757075Y-93364473D01*
X133834196Y-93322444D01*
X133922144Y-93251044D01*
X134037298Y-93139239D01*
X134177728Y-92994951D01*
X134232361Y-92934128D01*
X134433666Y-92934128D01*
X134440313Y-92977209D01*
X134471639Y-93003024D01*
X134544722Y-93015938D01*
X134676640Y-93020315D01*
X134772333Y-93020666D01*
X134929607Y-93024431D01*
X135048039Y-93034436D01*
X135107599Y-93048747D01*
X135111000Y-93053373D01*
X135077240Y-93092074D01*
X134992950Y-93148843D01*
X134959457Y-93167690D01*
X134761683Y-93312466D01*
X134641144Y-93491897D01*
X134598075Y-93705429D01*
X134629682Y-93941416D01*
X134663196Y-94024527D01*
X134694059Y-94029833D01*
X134717673Y-93964176D01*
X134729445Y-93834396D01*
X134730000Y-93792086D01*
X134746503Y-93591599D01*
X134804765Y-93447928D01*
X134917916Y-93338208D01*
X135027444Y-93274099D01*
X135186898Y-93206430D01*
X135290852Y-93196191D01*
X135345518Y-93242852D01*
X135347122Y-93246806D01*
X135348443Y-93313862D01*
X135332223Y-93441609D01*
X135302304Y-93608815D01*
X135262528Y-93794248D01*
X135216737Y-93976677D01*
X135211865Y-93994333D01*
X135194574Y-94066475D01*
X135212598Y-94070871D01*
X135273449Y-94019737D01*
X135347230Y-93923306D01*
X135403828Y-93797265D01*
X135406859Y-93786903D01*
X135429471Y-93661977D01*
X135444924Y-93493465D01*
X135449430Y-93353024D01*
X135449666Y-93071548D01*
X135621789Y-92981833D01*
X135761025Y-92924542D01*
X135842411Y-92927561D01*
X135865110Y-92990709D01*
X135857690Y-93032305D01*
X135866339Y-93114323D01*
X135939394Y-93212486D01*
X135983167Y-93254766D01*
X136080992Y-93363946D01*
X136150515Y-93476793D01*
X136163727Y-93512488D01*
X136193804Y-93588629D01*
X136248867Y-93629407D01*
X136355203Y-93651017D01*
X136396112Y-93655666D01*
X136531094Y-93679706D01*
X136609662Y-93724654D01*
X136649483Y-93782666D01*
X136684462Y-93838783D01*
X136732879Y-93869782D01*
X136817147Y-93882142D01*
X136959681Y-93882342D01*
X136991799Y-93881621D01*
X137182980Y-93875451D01*
X137331000Y-93861657D01*
X137452497Y-93831717D01*
X137564110Y-93777112D01*
X137682480Y-93689320D01*
X137824244Y-93559822D01*
X138006042Y-93380097D01*
X138042447Y-93343614D01*
X138293508Y-93100567D01*
X138505313Y-92917497D01*
X138690064Y-92787147D01*
X138859961Y-92702257D01*
X139027204Y-92655568D01*
X139203994Y-92639821D01*
X139225645Y-92639666D01*
X139471333Y-92639666D01*
X139471333Y-92414293D01*
X139462035Y-92247829D01*
X139437212Y-92028678D01*
X139401468Y-91786045D01*
X139359407Y-91549130D01*
X139315634Y-91347138D01*
X139286604Y-91242666D01*
X139235784Y-91135272D01*
X139161391Y-91088202D01*
X139122083Y-91081104D01*
X139005666Y-91067709D01*
X139003003Y-91356271D01*
X138996952Y-91569493D01*
X138983812Y-91789659D01*
X138965456Y-91998869D01*
X138943760Y-92179221D01*
X138920597Y-92312818D01*
X138897841Y-92381757D01*
X138895317Y-92384748D01*
X138838677Y-92390335D01*
X138722832Y-92370258D01*
X138567979Y-92328228D01*
X138540000Y-92319415D01*
X138228281Y-92243270D01*
X137943641Y-92216900D01*
X137788587Y-92212418D01*
X137676455Y-92191929D01*
X137572260Y-92143714D01*
X137441020Y-92056057D01*
X137421247Y-92041941D01*
X137288435Y-91950828D01*
X137200252Y-91904690D01*
X137135172Y-91895659D01*
X137073697Y-91914941D01*
X136951022Y-91956074D01*
X136865326Y-91937350D01*
X136792677Y-91849446D01*
X136762315Y-91793619D01*
X136656856Y-91636360D01*
X136537133Y-91538655D01*
X136417008Y-91510562D01*
X136381933Y-91517537D01*
X136302716Y-91559825D01*
X136190038Y-91639852D01*
X136102119Y-91711547D01*
X135991191Y-91800528D01*
X135900497Y-91860815D01*
X135858344Y-91877666D01*
X135815619Y-91842298D01*
X135751184Y-91749056D01*
X135678167Y-91617230D01*
X135670098Y-91601048D01*
X135578139Y-91430614D01*
X135500050Y-91331568D01*
X135423143Y-91294905D01*
X135334724Y-91311620D01*
X135291293Y-91332291D01*
X135152764Y-91447835D01*
X135026714Y-91634397D01*
X134920356Y-91878492D01*
X134840908Y-92166634D01*
X134838435Y-92178672D01*
X134804130Y-92266057D01*
X134733910Y-92396139D01*
X134641832Y-92543269D01*
X134624843Y-92568385D01*
X134534111Y-92711329D01*
X134466687Y-92837434D01*
X134434732Y-92923433D01*
X134433666Y-92934128D01*
X134232361Y-92934128D01*
X134415805Y-92729901D01*
X134593339Y-92485188D01*
X134723420Y-92239351D01*
X134819135Y-91970932D01*
X134833337Y-91920000D01*
X134917345Y-91688639D01*
X135031197Y-91489100D01*
X135164011Y-91333545D01*
X135304905Y-91234135D01*
X135442997Y-91203031D01*
X135471761Y-91206532D01*
X135537867Y-91252927D01*
X135623573Y-91361420D01*
X135699896Y-91486521D01*
X135776085Y-91616385D01*
X135839928Y-91710655D01*
X135878510Y-91750407D01*
X135880180Y-91750666D01*
X135930110Y-91726807D01*
X136023398Y-91665140D01*
X136108709Y-91602500D01*
X136271994Y-91496199D01*
X136409147Y-91457985D01*
X136540895Y-91489231D01*
X136687966Y-91591310D01*
X136747764Y-91644833D01*
X136874440Y-91754005D01*
X136973385Y-91812384D01*
X137071437Y-91833913D01*
X137114412Y-91835333D01*
X137237254Y-91852467D01*
X137369697Y-91911109D01*
X137515935Y-92006784D01*
X137669916Y-92107054D01*
X137779942Y-92153078D01*
X137852374Y-92153886D01*
X137937987Y-92148583D01*
X138080660Y-92155835D01*
X138253980Y-92174035D01*
X138310803Y-92181793D01*
X138491463Y-92205617D01*
X138606022Y-92213483D01*
X138671574Y-92205150D01*
X138705213Y-92180379D01*
X138707962Y-92176217D01*
X138723423Y-92114111D01*
X138740422Y-91985114D01*
X138757081Y-91806934D01*
X138771522Y-91597276D01*
X138773893Y-91554722D01*
X138790376Y-91291762D01*
X138810371Y-91102738D01*
X138838465Y-90976929D01*
X138879246Y-90903612D01*
X138937300Y-90872064D01*
X139017215Y-90871562D01*
X139063014Y-90878886D01*
X139240205Y-90944529D01*
X139386070Y-91071809D01*
X139502929Y-91265225D01*
X139593100Y-91529274D01*
X139658903Y-91868456D01*
X139685261Y-92085820D01*
X139707272Y-92276254D01*
X139731141Y-92439372D01*
X139753491Y-92553992D01*
X139766307Y-92593820D01*
X139822700Y-92642203D01*
X139934729Y-92703435D01*
X140070929Y-92761396D01*
X140219434Y-92822421D01*
X140415302Y-92910346D01*
X140631034Y-93012528D01*
X140804833Y-93098784D01*
X141036002Y-93221783D01*
X141217023Y-93334083D01*
X141376478Y-93456130D01*
X141542947Y-93608369D01*
X141611151Y-93675554D01*
X141911017Y-94017912D01*
X142137983Y-94371603D01*
X142286908Y-94728281D01*
X142309384Y-94809077D01*
X142332985Y-94945089D01*
X142319494Y-95054152D01*
X142259136Y-95151230D01*
X142142137Y-95251286D01*
X141958720Y-95369283D01*
X141933653Y-95384248D01*
X141685652Y-95554988D01*
X141477455Y-95754681D01*
X141293668Y-96001155D01*
X141118896Y-96312240D01*
X141100650Y-96348953D01*
X140996828Y-96574376D01*
X140936557Y-96749075D01*
X140916665Y-96892929D01*
X140933980Y-97025822D01*
X140974166Y-97141637D01*
X141031910Y-97327775D01*
X141032958Y-97467965D01*
X140978040Y-97554745D01*
X140931833Y-97575282D01*
X140807347Y-97586468D01*
X140726108Y-97576773D01*
X140657017Y-97571348D01*
X140593950Y-97599585D01*
X140528388Y-97671829D01*
X140451810Y-97798423D01*
X140355694Y-97989710D01*
X140314861Y-98075991D01*
X140207365Y-98335364D01*
X140137839Y-98568588D01*
X140108204Y-98763923D01*
X140120383Y-98909629D01*
X140165807Y-98986325D01*
X140251633Y-99010220D01*
X140410051Y-99003761D01*
X140635051Y-98968065D01*
X140920624Y-98904249D01*
X141260761Y-98813429D01*
X141538056Y-98731336D01*
X141815064Y-98649434D01*
X142023560Y-98596523D01*
X142174355Y-98571990D01*
X142278259Y-98575226D01*
X142346086Y-98605617D01*
X142388644Y-98662554D01*
X142397341Y-98682750D01*
X142429332Y-98865667D01*
X142408583Y-99094063D01*
X142340552Y-99351922D01*
X142230694Y-99623228D01*
X142084467Y-99891965D01*
X141907327Y-100142116D01*
X141895001Y-100157195D01*
X141767998Y-100305802D01*
X141603500Y-100490648D01*
X141423322Y-100687552D01*
X141258909Y-100862280D01*
X140864044Y-101274916D01*
X140897938Y-101539874D01*
X140930161Y-101888774D01*
X140927706Y-102160569D01*
X140890578Y-102355207D01*
X140846110Y-102442685D01*
X140746124Y-102538675D01*
X140580278Y-102655214D01*
X140362799Y-102785376D01*
X140107912Y-102922236D01*
X139829842Y-103058870D01*
X139542815Y-103188352D01*
X139261056Y-103303756D01*
X138998793Y-103398158D01*
X138770249Y-103464632D01*
X138725934Y-103474815D01*
X138509074Y-103518564D01*
X138292556Y-103554935D01*
X138065140Y-103584752D01*
X137815581Y-103608844D01*
X137532640Y-103628037D01*
X137205074Y-103643157D01*
X136821641Y-103655032D01*
X136371099Y-103664487D01*
X136084666Y-103669043D01*
X135648205Y-103674398D01*
X135291036Y-103676504D01*
X135007846Y-103675267D01*
X134793319Y-103670595D01*
X134642140Y-103662394D01*
X134548995Y-103650570D01*
X134518333Y-103641505D01*
X134432693Y-103621528D01*
X134279322Y-103605015D01*
X134075131Y-103593309D01*
X133841000Y-103587783D01*
X133607988Y-103584876D01*
X133438941Y-103578565D01*
X133313158Y-103565396D01*
X133209937Y-103541918D01*
X133108576Y-103504678D01*
X132988374Y-103450224D01*
X132973166Y-103443061D01*
X132756107Y-103320585D01*
X132551809Y-103169106D01*
X132377250Y-103004379D01*
X132249407Y-102842163D01*
X132189503Y-102715722D01*
X132157986Y-102523248D01*
X132149905Y-102277062D01*
X132164551Y-102004605D01*
X132201213Y-101733314D01*
X132216960Y-101653636D01*
X132260215Y-101377760D01*
X132255025Y-101147633D01*
X132197232Y-100936843D01*
X132082676Y-100718976D01*
X132065532Y-100692052D01*
X131996574Y-100582826D01*
X131949952Y-100494097D01*
X131920578Y-100404499D01*
X131903360Y-100292668D01*
X131893211Y-100137238D01*
X131885738Y-99937315D01*
X131878993Y-99739800D01*
X132120037Y-99739800D01*
X132120850Y-99948797D01*
X132204913Y-100158118D01*
X132337179Y-100334586D01*
X132516955Y-100534833D01*
X132537303Y-101102359D01*
X132544649Y-101335283D01*
X132545965Y-101501521D01*
X132539446Y-101618949D01*
X132523287Y-101705442D01*
X132495686Y-101778875D01*
X132462531Y-101843193D01*
X132394395Y-101986483D01*
X132325380Y-102161119D01*
X132293036Y-102257076D01*
X132252845Y-102397143D01*
X132239881Y-102493274D01*
X132254085Y-102581680D01*
X132292324Y-102690538D01*
X132362744Y-102827357D01*
X132455748Y-102947919D01*
X132551612Y-103030200D01*
X132617569Y-103053666D01*
X132667558Y-103027882D01*
X132754802Y-102962383D01*
X132806104Y-102918993D01*
X132959489Y-102784320D01*
X132930147Y-102979986D01*
X132917478Y-103108095D01*
X132934794Y-103191141D01*
X132991743Y-103266249D01*
X133009144Y-103283993D01*
X133155703Y-103375590D01*
X133327945Y-103400053D01*
X133500986Y-103358151D01*
X133636658Y-103264520D01*
X133764471Y-103136707D01*
X133910042Y-103264520D01*
X134086365Y-103367306D01*
X134286578Y-103397376D01*
X134495999Y-103357385D01*
X134699942Y-103249985D01*
X134873042Y-103090513D01*
X134957658Y-102997070D01*
X135020286Y-102937743D01*
X135039059Y-102926666D01*
X135062878Y-102963598D01*
X135088561Y-103054649D01*
X135092962Y-103076624D01*
X135160320Y-103238015D01*
X135285739Y-103385963D01*
X135443738Y-103493249D01*
X135505344Y-103517186D01*
X135656870Y-103539592D01*
X135852231Y-103537096D01*
X136055385Y-103512878D01*
X136230291Y-103470116D01*
X136284341Y-103448497D01*
X136385497Y-103377622D01*
X136463309Y-103261362D01*
X136504385Y-103165928D01*
X136549644Y-103058073D01*
X136580975Y-103002088D01*
X136590460Y-103004935D01*
X136622666Y-103126868D01*
X136695734Y-103257087D01*
X136786565Y-103358727D01*
X136829532Y-103386467D01*
X136967513Y-103424757D01*
X137120962Y-103431992D01*
X137256033Y-103409339D01*
X137329357Y-103369261D01*
X137382735Y-103285015D01*
X137427595Y-103164534D01*
X137432060Y-103147011D01*
X137464296Y-103002695D01*
X137697017Y-103002695D01*
X137747501Y-103227122D01*
X137757804Y-103253021D01*
X137811160Y-103354355D01*
X137850367Y-103378174D01*
X137872420Y-103330890D01*
X137874313Y-103218920D01*
X137853180Y-103049490D01*
X137829580Y-102895078D01*
X137826379Y-102793268D01*
X137837646Y-102749635D01*
X138125172Y-102749635D01*
X138149726Y-102823515D01*
X138219861Y-102911305D01*
X138275779Y-102968740D01*
X138426044Y-103091768D01*
X138559001Y-103136119D01*
X138685991Y-103102792D01*
X138797256Y-103014589D01*
X138876335Y-102919453D01*
X138912652Y-102818271D01*
X138918288Y-102725659D01*
X139048000Y-102725659D01*
X139062769Y-102757320D01*
X139101786Y-102723059D01*
X139157115Y-102635263D01*
X139220817Y-102506321D01*
X139278591Y-102365750D01*
X139331498Y-102207411D01*
X139350246Y-102109017D01*
X139335026Y-102076087D01*
X139286031Y-102114143D01*
X139270480Y-102132916D01*
X139232604Y-102202314D01*
X139181118Y-102322022D01*
X139126707Y-102463571D01*
X139080056Y-102598496D01*
X139051850Y-102698328D01*
X139048000Y-102725659D01*
X138918288Y-102725659D01*
X138921000Y-102681106D01*
X138906017Y-102516471D01*
X138859295Y-102421227D01*
X138850573Y-102413266D01*
X138807788Y-102384819D01*
X138793385Y-102406159D01*
X138802017Y-102491885D01*
X138807890Y-102529768D01*
X138813616Y-102721529D01*
X138770394Y-102872046D01*
X138687177Y-102970734D01*
X138572922Y-103007011D01*
X138436585Y-102970292D01*
X138435581Y-102969756D01*
X138318397Y-102864316D01*
X138271395Y-102718283D01*
X138287440Y-102582978D01*
X138308440Y-102484211D01*
X138307151Y-102426374D01*
X138305434Y-102423990D01*
X138261408Y-102427177D01*
X138206471Y-102488072D01*
X138156844Y-102584179D01*
X138133538Y-102662390D01*
X138125172Y-102749635D01*
X137837646Y-102749635D01*
X137846918Y-102713730D01*
X137894539Y-102626137D01*
X137900970Y-102615685D01*
X137952177Y-102510943D01*
X137950472Y-102462034D01*
X137907894Y-102470479D01*
X137836483Y-102537799D01*
X137788583Y-102601492D01*
X137711103Y-102785843D01*
X137697017Y-103002695D01*
X137464296Y-103002695D01*
X137473299Y-102962392D01*
X137508809Y-102783068D01*
X137535271Y-102628419D01*
X137549362Y-102517824D01*
X137547924Y-102470813D01*
X137511858Y-102480437D01*
X137466325Y-102554436D01*
X137419117Y-102674298D01*
X137378026Y-102821507D01*
X137358730Y-102920316D01*
X137322015Y-103105637D01*
X137276053Y-103221554D01*
X137208958Y-103283287D01*
X137108841Y-103306058D01*
X137056222Y-103307666D01*
X136897428Y-103270999D01*
X136781396Y-103161826D01*
X136709297Y-102981389D01*
X136698926Y-102929190D01*
X136663050Y-102805221D01*
X136610399Y-102711273D01*
X136600088Y-102700549D01*
X136521908Y-102646837D01*
X136420453Y-102596314D01*
X136326550Y-102562135D01*
X136271026Y-102557455D01*
X136268739Y-102559149D01*
X136273317Y-102604226D01*
X136304275Y-102696866D01*
X136316944Y-102728307D01*
X136359579Y-102875048D01*
X136378607Y-103035551D01*
X136372115Y-103176530D01*
X136347118Y-103253108D01*
X136252713Y-103333112D01*
X136100127Y-103390872D01*
X135913717Y-103423000D01*
X135717843Y-103426107D01*
X135536861Y-103396808D01*
X135472766Y-103374702D01*
X135326412Y-103289663D01*
X135239125Y-103176031D01*
X135209577Y-103025011D01*
X135236439Y-102827805D01*
X135318380Y-102575616D01*
X135342733Y-102514179D01*
X135412542Y-102330268D01*
X135442226Y-102220849D01*
X135431787Y-102185859D01*
X135381227Y-102225238D01*
X135351144Y-102260116D01*
X135255667Y-102376733D01*
X135204662Y-102186033D01*
X135167387Y-102073464D01*
X135130891Y-102004991D01*
X135116729Y-101995333D01*
X135096279Y-102034130D01*
X135076469Y-102136506D01*
X135061203Y-102281435D01*
X135059759Y-102302250D01*
X135016342Y-102592339D01*
X134921894Y-102830588D01*
X134766777Y-103039015D01*
X134713901Y-103092404D01*
X134604073Y-103183392D01*
X134493198Y-103232012D01*
X134341009Y-103255382D01*
X134327856Y-103256507D01*
X134150680Y-103259721D01*
X134033379Y-103226357D01*
X133964803Y-103144356D01*
X133933798Y-103001660D01*
X133928642Y-102824855D01*
X133934769Y-102661784D01*
X133947965Y-102523374D01*
X133965307Y-102439833D01*
X133990247Y-102395270D01*
X134016791Y-102410242D01*
X134057554Y-102494053D01*
X134066117Y-102514185D01*
X134162083Y-102652007D01*
X134295521Y-102727224D01*
X134450047Y-102742562D01*
X134609276Y-102700748D01*
X134756824Y-102604507D01*
X134876307Y-102456564D01*
X134917043Y-102372627D01*
X134953885Y-102267735D01*
X134965475Y-102178314D01*
X134952134Y-102070554D01*
X134921148Y-101938164D01*
X134845511Y-101691601D01*
X134750970Y-101465149D01*
X134645127Y-101270532D01*
X134535588Y-101119476D01*
X134429956Y-101023705D01*
X134335836Y-100994944D01*
X134312927Y-101000362D01*
X134240151Y-100993528D01*
X134194878Y-100910201D01*
X134179666Y-100767666D01*
X134168117Y-100649047D01*
X134141831Y-100561986D01*
X134139593Y-100558207D01*
X134108540Y-100535751D01*
X134083715Y-100580778D01*
X134064070Y-100698211D01*
X134048560Y-100892973D01*
X134042246Y-101016042D01*
X134031914Y-101181178D01*
X134013331Y-101287585D01*
X133977614Y-101361197D01*
X133915878Y-101427949D01*
X133894509Y-101447346D01*
X133732745Y-101556859D01*
X133532224Y-101624135D01*
X133276170Y-101653937D01*
X133157773Y-101656430D01*
X132949873Y-101642720D01*
X132807527Y-101594692D01*
X132715270Y-101502624D01*
X132657639Y-101356791D01*
X132653255Y-101339166D01*
X132635901Y-101207300D01*
X132631028Y-101032092D01*
X132638250Y-100872533D01*
X132663811Y-100575233D01*
X132920507Y-100499581D01*
X132973309Y-100477917D01*
X134373678Y-100477917D01*
X134382616Y-100618284D01*
X134426413Y-100728867D01*
X134507921Y-100837750D01*
X134584954Y-100936101D01*
X134694290Y-101085292D01*
X134821663Y-101265452D01*
X134952804Y-101456712D01*
X134959174Y-101466166D01*
X135136476Y-101723672D01*
X135290312Y-101924911D01*
X135434223Y-102075448D01*
X135581748Y-102180847D01*
X135746429Y-102246672D01*
X135941806Y-102278487D01*
X136181419Y-102281856D01*
X136478809Y-102262344D01*
X136815367Y-102228937D01*
X137308984Y-102170908D01*
X137720723Y-102110075D01*
X138053343Y-102045833D01*
X138246629Y-101994350D01*
X139701710Y-101994350D01*
X139747793Y-102126135D01*
X139844645Y-102257454D01*
X139977876Y-102373583D01*
X140133096Y-102459798D01*
X140295914Y-102501373D01*
X140332816Y-102503072D01*
X140470251Y-102461574D01*
X140593036Y-102363763D01*
X140707333Y-102212162D01*
X140782909Y-102036106D01*
X140819139Y-101853374D01*
X140815394Y-101681746D01*
X140771047Y-101538999D01*
X140685472Y-101442914D01*
X140626406Y-101417768D01*
X140508875Y-101420718D01*
X140349013Y-101466512D01*
X140169442Y-101543683D01*
X139992783Y-101640763D01*
X139841658Y-101746287D01*
X139738689Y-101848786D01*
X139720788Y-101876825D01*
X139701710Y-101994350D01*
X138246629Y-101994350D01*
X138309602Y-101977577D01*
X138492260Y-101904701D01*
X138590665Y-101839626D01*
X138639412Y-101770605D01*
X138613430Y-101716456D01*
X138509814Y-101675393D01*
X138325660Y-101645628D01*
X138265702Y-101639652D01*
X138075025Y-101616221D01*
X137885876Y-101583003D01*
X137747483Y-101549446D01*
X137619734Y-101515464D01*
X137436682Y-101472967D01*
X137226382Y-101428264D01*
X137082406Y-101399877D01*
X136831673Y-101347581D01*
X136630139Y-101291221D01*
X136451820Y-101219590D01*
X136270729Y-101121482D01*
X136060883Y-100985691D01*
X135958735Y-100915294D01*
X135792388Y-100803196D01*
X135628989Y-100699458D01*
X135496852Y-100621874D01*
X135465902Y-100605531D01*
X135252036Y-100480687D01*
X135104569Y-100348155D01*
X135006036Y-100188619D01*
X134953516Y-100038814D01*
X134907734Y-99901966D01*
X134859663Y-99801405D01*
X134825496Y-99763008D01*
X134741930Y-99772492D01*
X134647360Y-99846707D01*
X134552584Y-99968571D01*
X134468395Y-100121003D01*
X134405589Y-100286922D01*
X134374962Y-100449245D01*
X134373678Y-100477917D01*
X132973309Y-100477917D01*
X133165162Y-100399203D01*
X133340509Y-100258215D01*
X133455988Y-100067113D01*
X133503124Y-99912831D01*
X133529921Y-99749286D01*
X133531022Y-99626643D01*
X133507882Y-99558924D01*
X133466211Y-99557327D01*
X133438887Y-99609627D01*
X133412382Y-99715483D01*
X133403122Y-99772407D01*
X133337850Y-100025927D01*
X133220919Y-100212641D01*
X133052726Y-100332166D01*
X132833669Y-100384116D01*
X132767850Y-100386508D01*
X132627434Y-100377121D01*
X132527367Y-100336973D01*
X132424364Y-100248493D01*
X132421938Y-100246072D01*
X132291894Y-100066182D01*
X132244079Y-99867532D01*
X132278007Y-99647682D01*
X132293636Y-99603360D01*
X132402922Y-99417614D01*
X132510357Y-99326567D01*
X132601442Y-99267105D01*
X132652016Y-99227937D01*
X132655666Y-99222509D01*
X132668714Y-99176114D01*
X132681362Y-99141295D01*
X132688820Y-99079816D01*
X132648007Y-99074215D01*
X132569136Y-99119144D01*
X132462419Y-99209259D01*
X132368704Y-99304972D01*
X132202609Y-99526676D01*
X132120037Y-99739800D01*
X131878993Y-99739800D01*
X131868554Y-99434166D01*
X131648277Y-99001019D01*
X131545133Y-98790434D01*
X131478914Y-98632674D01*
X131442844Y-98508044D01*
X131430151Y-98396852D01*
X131429858Y-98366019D01*
X131431716Y-98164166D01*
X131490508Y-98329138D01*
X131559650Y-98485293D01*
X131639654Y-98571561D01*
X131748848Y-98602390D01*
X131834600Y-98600409D01*
X131999500Y-98586309D01*
X131839226Y-98514344D01*
X131696571Y-98411008D01*
X131603016Y-98264248D01*
X131572237Y-98099854D01*
X131581949Y-98029195D01*
X131644516Y-97906234D01*
X131766201Y-97764475D01*
X131929286Y-97620681D01*
X132116050Y-97491611D01*
X132200482Y-97444156D01*
X132355226Y-97356897D01*
X132431117Y-97296877D01*
X132429091Y-97263017D01*
X132365896Y-97254000D01*
X132261019Y-97283301D01*
X132117644Y-97361925D01*
X131953566Y-97475945D01*
X131786577Y-97611441D01*
X131634469Y-97754486D01*
X131515036Y-97891159D01*
X131473285Y-97952500D01*
X131448798Y-97981029D01*
X131436537Y-97955825D01*
X131435244Y-97866630D01*
X131443328Y-97708447D01*
X131468026Y-97482262D01*
X131517702Y-97292289D01*
X131599284Y-97101828D01*
X131664161Y-96957508D01*
X131699928Y-96835477D01*
X131706975Y-96712187D01*
X131685692Y-96564090D01*
X131636470Y-96367639D01*
X131612834Y-96283521D01*
X131583590Y-96180875D01*
X131740104Y-96300254D01*
X131924603Y-96399467D01*
X132109370Y-96420512D01*
X132185757Y-96404713D01*
X132223767Y-96419108D01*
X132258323Y-96495106D01*
X132293860Y-96643225D01*
X132300366Y-96676588D01*
X132360505Y-96921352D01*
X132438610Y-97090935D01*
X132544383Y-97194418D01*
X132687525Y-97240882D01*
X132877738Y-97239407D01*
X132899135Y-97237042D01*
X133081171Y-97205686D01*
X133278243Y-97157301D01*
X133359039Y-97132432D01*
X133492633Y-97092377D01*
X133555525Y-97084901D01*
X133553379Y-97106024D01*
X133491858Y-97151765D01*
X133376627Y-97218143D01*
X133213349Y-97301176D01*
X133007688Y-97396884D01*
X132940495Y-97426631D01*
X132601961Y-97590639D01*
X132344985Y-97751668D01*
X132166668Y-97912735D01*
X132064113Y-98076854D01*
X132034424Y-98247039D01*
X132050302Y-98353015D01*
X132071691Y-98406865D01*
X132114208Y-98432226D01*
X132200463Y-98435448D01*
X132312568Y-98426685D01*
X132462535Y-98409208D01*
X132589859Y-98388176D01*
X132641594Y-98375684D01*
X132699870Y-98364274D01*
X132721364Y-98393784D01*
X132716525Y-98483649D01*
X132713461Y-98509391D01*
X132729344Y-98710399D01*
X132819083Y-98897873D01*
X132972204Y-99050699D01*
X132986920Y-99060823D01*
X133121479Y-99131952D01*
X133296639Y-99200483D01*
X133477802Y-99254971D01*
X133630371Y-99283972D01*
X133667598Y-99286000D01*
X133721805Y-99290629D01*
X133747944Y-99315841D01*
X133747559Y-99378622D01*
X133722193Y-99495958D01*
X133695971Y-99598279D01*
X133658351Y-99805790D01*
X133671300Y-99962714D01*
X133736744Y-100087762D01*
X133747698Y-100100916D01*
X133853887Y-100166575D01*
X133989583Y-100169624D01*
X134140819Y-100120110D01*
X134293629Y-100028078D01*
X134434047Y-99903571D01*
X134548107Y-99756637D01*
X134621842Y-99597319D01*
X134642343Y-99457442D01*
X134639352Y-99307166D01*
X134555222Y-99497666D01*
X134452749Y-99681914D01*
X134324708Y-99842142D01*
X134185277Y-99966733D01*
X134048630Y-100044074D01*
X133928944Y-100062549D01*
X133883450Y-100048062D01*
X133793483Y-99957255D01*
X133766409Y-99822578D01*
X133800379Y-99654717D01*
X133893541Y-99464360D01*
X134013266Y-99298419D01*
X134125051Y-99153537D01*
X134174062Y-99064425D01*
X134160114Y-99029834D01*
X134083022Y-99048518D01*
X133983422Y-99096865D01*
X133833781Y-99138269D01*
X133638739Y-99139580D01*
X133424248Y-99106286D01*
X133216257Y-99043875D01*
X133128200Y-99000714D01*
X134819468Y-99000714D01*
X134844987Y-99282292D01*
X134914619Y-99522493D01*
X134951905Y-99603500D01*
X135049805Y-99753057D01*
X135201110Y-99933361D01*
X135389240Y-100127510D01*
X135597612Y-100318606D01*
X135809645Y-100489748D01*
X135851833Y-100520671D01*
X136196893Y-100736177D01*
X136617535Y-100942792D01*
X137104851Y-101137104D01*
X137649934Y-101315704D01*
X138243877Y-101475179D01*
X138497666Y-101533851D01*
X138755177Y-101575967D01*
X139042360Y-101598759D01*
X139336397Y-101602608D01*
X139614470Y-101587896D01*
X139853759Y-101555004D01*
X140021666Y-101508364D01*
X140282225Y-101379445D01*
X140556153Y-101200832D01*
X140835187Y-100982101D01*
X141111061Y-100732832D01*
X141375512Y-100462602D01*
X141620275Y-100180989D01*
X141837084Y-99897571D01*
X142017676Y-99621927D01*
X142153786Y-99363634D01*
X142237150Y-99132271D01*
X142259502Y-98937416D01*
X142257694Y-98916960D01*
X142243820Y-98847258D01*
X142207713Y-98813316D01*
X142126147Y-98803575D01*
X142032500Y-98804886D01*
X141915838Y-98816894D01*
X141737930Y-98846058D01*
X141519539Y-98888502D01*
X141281431Y-98940348D01*
X141181872Y-98963677D01*
X140861261Y-99038892D01*
X140580787Y-99099999D01*
X140325342Y-99148650D01*
X140079819Y-99186499D01*
X139829107Y-99215200D01*
X139558099Y-99236405D01*
X139251687Y-99251768D01*
X138894763Y-99262942D01*
X138472216Y-99271580D01*
X138349500Y-99273618D01*
X137797150Y-99279853D01*
X137322335Y-99278747D01*
X136918150Y-99269210D01*
X136577693Y-99250149D01*
X136294062Y-99220473D01*
X136060354Y-99179090D01*
X135869667Y-99124907D01*
X135715098Y-99056833D01*
X135589745Y-98973777D01*
X135542875Y-98928684D01*
X137150257Y-98928684D01*
X137151618Y-98940168D01*
X137181964Y-98988396D01*
X137257541Y-99023254D01*
X137386866Y-99045859D01*
X137578456Y-99057329D01*
X137840828Y-99058783D01*
X138029849Y-99055453D01*
X138260256Y-99049282D01*
X138421562Y-99041602D01*
X138529324Y-99029628D01*
X138599100Y-99010576D01*
X138646445Y-98981660D01*
X138686916Y-98940097D01*
X138689224Y-98937420D01*
X138741200Y-98864988D01*
X138825097Y-98734351D01*
X138931288Y-98561075D01*
X139050146Y-98360727D01*
X139114708Y-98249374D01*
X139268175Y-97992441D01*
X139404218Y-97784469D01*
X139516316Y-97634911D01*
X139591888Y-97557645D01*
X139773172Y-97469521D01*
X140024275Y-97428777D01*
X140344825Y-97435448D01*
X140600975Y-97466881D01*
X140765238Y-97488671D01*
X140896310Y-97499034D01*
X140972814Y-97496542D01*
X140982701Y-97492409D01*
X140990441Y-97431961D01*
X140964093Y-97321497D01*
X140912913Y-97183731D01*
X140846155Y-97041380D01*
X140773074Y-96917158D01*
X140721601Y-96851554D01*
X140540454Y-96714060D01*
X140300577Y-96610659D01*
X140023628Y-96548861D01*
X139807076Y-96534333D01*
X139433706Y-96574123D01*
X139067616Y-96694293D01*
X138706458Y-96896037D01*
X138347884Y-97180552D01*
X138140817Y-97383291D01*
X137970433Y-97574514D01*
X137797298Y-97791563D01*
X137629440Y-98021802D01*
X137474886Y-98252600D01*
X137341664Y-98471320D01*
X137237800Y-98665330D01*
X137171322Y-98821996D01*
X137150257Y-98928684D01*
X135542875Y-98928684D01*
X135486705Y-98874645D01*
X135437064Y-98812903D01*
X135369711Y-98667655D01*
X135334472Y-98476637D01*
X135334805Y-98273749D01*
X135365995Y-98116185D01*
X135443020Y-97938926D01*
X135570202Y-97715732D01*
X135737563Y-97460267D01*
X135935129Y-97186198D01*
X136152921Y-96907192D01*
X136380965Y-96636914D01*
X136609284Y-96389033D01*
X136676536Y-96320885D01*
X137149798Y-95908368D01*
X137676655Y-95555254D01*
X138245183Y-95267325D01*
X138843457Y-95050360D01*
X139459553Y-94910139D01*
X139639556Y-94884691D01*
X139927642Y-94859223D01*
X140254363Y-94846061D01*
X140594903Y-94844886D01*
X140924451Y-94855379D01*
X141218194Y-94877220D01*
X141439833Y-94907876D01*
X141683920Y-94953677D01*
X141857598Y-94984279D01*
X141973680Y-95000041D01*
X142044983Y-95001328D01*
X142084320Y-94988499D01*
X142104506Y-94961918D01*
X142116746Y-94926991D01*
X142113226Y-94828574D01*
X142064525Y-94679074D01*
X141977946Y-94493844D01*
X141860794Y-94288238D01*
X141720371Y-94077608D01*
X141698160Y-94047083D01*
X141490417Y-93812704D01*
X141218482Y-93577440D01*
X140901780Y-93353689D01*
X140559737Y-93153852D01*
X140211780Y-92990325D01*
X139877333Y-92875509D01*
X139852333Y-92868950D01*
X139485532Y-92804532D01*
X139159013Y-92810655D01*
X138865830Y-92887589D01*
X138815065Y-92909434D01*
X138730452Y-92950561D01*
X138653007Y-92996138D01*
X138573251Y-93054929D01*
X138481708Y-93135698D01*
X138368901Y-93247211D01*
X138225352Y-93398231D01*
X138041585Y-93597522D01*
X137883403Y-93771035D01*
X137794015Y-93864800D01*
X137717911Y-93923427D01*
X137628603Y-93958780D01*
X137499599Y-93982726D01*
X137375403Y-93998583D01*
X136919746Y-94073655D01*
X136539163Y-94180459D01*
X136229531Y-94320795D01*
X135986725Y-94496461D01*
X135832081Y-94671666D01*
X135740719Y-94820939D01*
X135709354Y-94918567D01*
X135730407Y-94963909D01*
X135796295Y-94956324D01*
X135899438Y-94895172D01*
X136032255Y-94779812D01*
X136113047Y-94695413D01*
X136298219Y-94511993D01*
X136484063Y-94379941D01*
X136697903Y-94283915D01*
X136967058Y-94208572D01*
X136988770Y-94203656D01*
X137142047Y-94175404D01*
X137234224Y-94175453D01*
X137278880Y-94197946D01*
X137295693Y-94253821D01*
X137249497Y-94330568D01*
X137136058Y-94432589D01*
X136951139Y-94564286D01*
X136883955Y-94608388D01*
X136737547Y-94708784D01*
X136618932Y-94807482D01*
X136515644Y-94920145D01*
X136415221Y-95062438D01*
X136305198Y-95250025D01*
X136173112Y-95498571D01*
X136168360Y-95507750D01*
X136077319Y-95678810D01*
X135998414Y-95818095D01*
X135940447Y-95910646D01*
X135912984Y-95941666D01*
X135882027Y-95905579D01*
X135854077Y-95825250D01*
X135796250Y-95603233D01*
X135750511Y-95464216D01*
X135717427Y-95407321D01*
X135697570Y-95431669D01*
X135691508Y-95536381D01*
X135699811Y-95720577D01*
X135723048Y-95983379D01*
X135726998Y-96021402D01*
X135754180Y-96304722D01*
X135764127Y-96523859D01*
X135751234Y-96698492D01*
X135709894Y-96848302D01*
X135634504Y-96992968D01*
X135519456Y-97152172D01*
X135359145Y-97345593D01*
X135345146Y-97362021D01*
X134995164Y-97772386D01*
X134899094Y-98271238D01*
X134837643Y-98667211D01*
X134819468Y-99000714D01*
X133128200Y-99000714D01*
X133040717Y-98957835D01*
X132941919Y-98876618D01*
X132878759Y-98772479D01*
X132842788Y-98665859D01*
X132836954Y-98608372D01*
X132844548Y-98576037D01*
X133502333Y-98576037D01*
X133537488Y-98668852D01*
X133630739Y-98721766D01*
X133763769Y-98731333D01*
X133918259Y-98694107D01*
X133980685Y-98666001D01*
X134092428Y-98598927D01*
X134236129Y-98499964D01*
X134388054Y-98386975D01*
X134524467Y-98277826D01*
X134621633Y-98190381D01*
X134641855Y-98168357D01*
X134678968Y-98109531D01*
X134655079Y-98099168D01*
X134576522Y-98134403D01*
X134449630Y-98212369D01*
X134280734Y-98330202D01*
X134275117Y-98334299D01*
X134073391Y-98474364D01*
X133920798Y-98561670D01*
X133804996Y-98601674D01*
X133713644Y-98599834D01*
X133690952Y-98592636D01*
X133661916Y-98567886D01*
X133665998Y-98516543D01*
X133707584Y-98422158D01*
X133764941Y-98315188D01*
X133839048Y-98172068D01*
X133870709Y-98081823D01*
X133864878Y-98027172D01*
X133852288Y-98010523D01*
X133802823Y-97974802D01*
X133788788Y-97976488D01*
X133728038Y-98083692D01*
X133658026Y-98219397D01*
X133590016Y-98360033D01*
X133535268Y-98482029D01*
X133505045Y-98561814D01*
X133502333Y-98576037D01*
X132844548Y-98576037D01*
X132850278Y-98551644D01*
X132891701Y-98482761D01*
X132970164Y-98388811D01*
X133094605Y-98256881D01*
X133201907Y-98147159D01*
X133358969Y-97994192D01*
X133505084Y-97863905D01*
X133625004Y-97769147D01*
X133703484Y-97722769D01*
X133706632Y-97721779D01*
X133799091Y-97710167D01*
X133951478Y-97706610D01*
X134139423Y-97711245D01*
X134267760Y-97718620D01*
X134481504Y-97729634D01*
X134655212Y-97730638D01*
X134779447Y-97722624D01*
X134844772Y-97706585D01*
X134841749Y-97683515D01*
X134792804Y-97663370D01*
X134716925Y-97648754D01*
X134578585Y-97629845D01*
X134399689Y-97609430D01*
X134260055Y-97595550D01*
X133995667Y-97575678D01*
X133797111Y-97576053D01*
X133646912Y-97601806D01*
X133527596Y-97658070D01*
X133421689Y-97749978D01*
X133320176Y-97871596D01*
X133201306Y-98008264D01*
X133094176Y-98098256D01*
X133036666Y-98124750D01*
X132948077Y-98147363D01*
X132805323Y-98188402D01*
X132634788Y-98240203D01*
X132579923Y-98257402D01*
X132380164Y-98314288D01*
X132248302Y-98333986D01*
X132175212Y-98314468D01*
X132151769Y-98253709D01*
X132164791Y-98165197D01*
X132228851Y-98023294D01*
X132351925Y-97888235D01*
X132541191Y-97754383D01*
X132803828Y-97616098D01*
X132945417Y-97551986D01*
X133198727Y-97435374D01*
X133412888Y-97324565D01*
X133577585Y-97225695D01*
X133682498Y-97144897D01*
X133717238Y-97093095D01*
X133746981Y-96958757D01*
X133757044Y-96939760D01*
X134017086Y-96939760D01*
X134039142Y-97129827D01*
X134132935Y-97300827D01*
X134276971Y-97425047D01*
X134431938Y-97493705D01*
X134585504Y-97498226D01*
X134754981Y-97445634D01*
X134899716Y-97375064D01*
X135022575Y-97297270D01*
X135106032Y-97225315D01*
X135132558Y-97172262D01*
X135130126Y-97166032D01*
X135083516Y-97164012D01*
X134985360Y-97197031D01*
X134865045Y-97253845D01*
X134667623Y-97343787D01*
X134514493Y-97375911D01*
X134388048Y-97350161D01*
X134270678Y-97266483D01*
X134255777Y-97251956D01*
X134173273Y-97156788D01*
X134143062Y-97070043D01*
X134149858Y-96950502D01*
X134212431Y-96764889D01*
X134313908Y-96632657D01*
X134454833Y-96487223D01*
X134941666Y-96515751D01*
X135159050Y-96526369D01*
X135300360Y-96527733D01*
X135373717Y-96519489D01*
X135387246Y-96501279D01*
X135383481Y-96496404D01*
X135320482Y-96468698D01*
X135196430Y-96439986D01*
X135034839Y-96413288D01*
X134859227Y-96391626D01*
X134693109Y-96378020D01*
X134560003Y-96375492D01*
X134496751Y-96382488D01*
X134367855Y-96443909D01*
X134229667Y-96553195D01*
X134113069Y-96683681D01*
X134072312Y-96748940D01*
X134017086Y-96939760D01*
X133757044Y-96939760D01*
X133815730Y-96828980D01*
X133849605Y-96780333D01*
X133972953Y-96590248D01*
X134035032Y-96441770D01*
X134040493Y-96323371D01*
X134038113Y-96312776D01*
X133968027Y-96157501D01*
X133937820Y-96116734D01*
X134398561Y-96116734D01*
X134413458Y-96148331D01*
X134423275Y-96158987D01*
X134513781Y-96205138D01*
X134675385Y-96239444D01*
X134895117Y-96260125D01*
X135160009Y-96265404D01*
X135195666Y-96264892D01*
X135513166Y-96259166D01*
X135540351Y-95595760D01*
X135551413Y-95365186D01*
X135564131Y-95163433D01*
X135577282Y-95006154D01*
X135589641Y-94908998D01*
X135595815Y-94886597D01*
X135585805Y-94839910D01*
X135507958Y-94799018D01*
X135379101Y-94769391D01*
X135216065Y-94756496D01*
X135194994Y-94756333D01*
X135037324Y-94764282D01*
X134873601Y-94785166D01*
X134725430Y-94814540D01*
X134614417Y-94847959D01*
X134562167Y-94880977D01*
X134560666Y-94886841D01*
X134600728Y-94917035D01*
X134719109Y-94922690D01*
X134913096Y-94903823D01*
X135044893Y-94884009D01*
X135179794Y-94864161D01*
X135275924Y-94854244D01*
X135308933Y-94855488D01*
X135299075Y-94897076D01*
X135260338Y-94990926D01*
X135220272Y-95076817D01*
X135140545Y-95245093D01*
X135058573Y-95424145D01*
X135030507Y-95487320D01*
X134908433Y-95682603D01*
X134745225Y-95825986D01*
X134577823Y-95943805D01*
X134470845Y-96024710D01*
X134414390Y-96078940D01*
X134398561Y-96116734D01*
X133937820Y-96116734D01*
X133837450Y-95981278D01*
X133661282Y-95801683D01*
X133480286Y-95654747D01*
X133208494Y-95457635D01*
X133391224Y-95263127D01*
X133522877Y-95390730D01*
X133632145Y-95486748D01*
X133694641Y-95516487D01*
X133714000Y-95483399D01*
X133689717Y-95435137D01*
X133625671Y-95340232D01*
X133535059Y-95218096D01*
X133522936Y-95202413D01*
X133394004Y-95018333D01*
X133266018Y-94804641D01*
X133151388Y-94585199D01*
X133062523Y-94383871D01*
X133011835Y-94224518D01*
X133010235Y-94216583D01*
X132998678Y-94122820D01*
X133024279Y-94085427D01*
X133092101Y-94079000D01*
X133175760Y-94106244D01*
X133303080Y-94179371D01*
X133456796Y-94285467D01*
X133619647Y-94411619D01*
X133774368Y-94544915D01*
X133903697Y-94672442D01*
X133939114Y-94712547D01*
X134090143Y-94932197D01*
X134229689Y-95212178D01*
X134326644Y-95469218D01*
X134377965Y-95602719D01*
X134419686Y-95657292D01*
X134444908Y-95651025D01*
X134458612Y-95584172D01*
X134438326Y-95462280D01*
X134390738Y-95304568D01*
X134322535Y-95130250D01*
X134240403Y-94958545D01*
X134152540Y-94810878D01*
X134016264Y-94637425D01*
X133843519Y-94456525D01*
X133651054Y-94282055D01*
X133455619Y-94127894D01*
X133273963Y-94007919D01*
X133122835Y-93936008D01*
X133083940Y-93925471D01*
X132986687Y-93918284D01*
X132930510Y-93960846D01*
X132903348Y-94012460D01*
X132879590Y-94087249D01*
X132880545Y-94173577D01*
X132908786Y-94296536D01*
X132944304Y-94412063D01*
X132989877Y-94557026D01*
X133022875Y-94668592D01*
X133036600Y-94724048D01*
X133036666Y-94725253D01*
X133003928Y-94712840D01*
X132914237Y-94660331D01*
X132780378Y-94575640D01*
X132615138Y-94466680D01*
X132571801Y-94437508D01*
X132341839Y-94284949D01*
X132168477Y-94179030D01*
X132040250Y-94116030D01*
X131945697Y-94092230D01*
X131873354Y-94103910D01*
X131811758Y-94147352D01*
X131780578Y-94180783D01*
X131706106Y-94304896D01*
X131685658Y-94453285D01*
X131717059Y-94646500D01*
X131727256Y-94684773D01*
X131757538Y-94823476D01*
X131749176Y-94888433D01*
X131700317Y-94882151D01*
X131625500Y-94822614D01*
X131554099Y-94746504D01*
X131525216Y-94672348D01*
X131528255Y-94563956D01*
X131534716Y-94512580D01*
X131575814Y-94276180D01*
X131631954Y-94110102D01*
X131714469Y-94000082D01*
X131834690Y-93931856D01*
X131910469Y-93913637D01*
X133544666Y-93913637D01*
X133570012Y-93949795D01*
X133648167Y-93930385D01*
X133782304Y-93854199D01*
X133888223Y-93782666D01*
X134018760Y-93697465D01*
X134129258Y-93636647D01*
X134195867Y-93613333D01*
X134196002Y-93613333D01*
X134286042Y-93653811D01*
X134355243Y-93772127D01*
X134401735Y-93963605D01*
X134421882Y-94177819D01*
X134435427Y-94410737D01*
X134451833Y-94569711D01*
X134473043Y-94665461D01*
X134501001Y-94708704D01*
X134519139Y-94714000D01*
X134538364Y-94674212D01*
X134552382Y-94564875D01*
X134559615Y-94401029D01*
X134560253Y-94322416D01*
X134557812Y-94207475D01*
X134882995Y-94207475D01*
X134897798Y-94255365D01*
X134972160Y-94308128D01*
X135085296Y-94360810D01*
X135167341Y-94364893D01*
X135256961Y-94319762D01*
X135281497Y-94303192D01*
X135389671Y-94216232D01*
X135465841Y-94116236D01*
X135529159Y-93974579D01*
X135558929Y-93888500D01*
X135636837Y-93683963D01*
X135710632Y-93548505D01*
X135775730Y-93484392D01*
X135827542Y-93493890D01*
X135861484Y-93579267D01*
X135873000Y-93733277D01*
X135876740Y-93870116D01*
X135886422Y-93969453D01*
X135896563Y-94003785D01*
X135946734Y-94005241D01*
X136049945Y-93983516D01*
X136131623Y-93959715D01*
X136270495Y-93921874D01*
X136360367Y-93917776D01*
X136425560Y-93943566D01*
X136485209Y-93971172D01*
X136506002Y-93937416D01*
X136508000Y-93882936D01*
X136503968Y-93819395D01*
X136478108Y-93788689D01*
X136409768Y-93783004D01*
X136278298Y-93794528D01*
X136275166Y-93794852D01*
X136042333Y-93818882D01*
X136042333Y-93673774D01*
X136011604Y-93531722D01*
X135932131Y-93420045D01*
X135822986Y-93362506D01*
X135789982Y-93359333D01*
X135677967Y-93400901D01*
X135576693Y-93523312D01*
X135488864Y-93723123D01*
X135478108Y-93756085D01*
X135420350Y-93907985D01*
X135352222Y-94044102D01*
X135315550Y-94099598D01*
X135242394Y-94175207D01*
X135163257Y-94198637D01*
X135064712Y-94189111D01*
X134940747Y-94182672D01*
X134882995Y-94207475D01*
X134557812Y-94207475D01*
X134555799Y-94112744D01*
X134539791Y-93958837D01*
X134507471Y-93832065D01*
X134459340Y-93715000D01*
X134374306Y-93560695D01*
X134290970Y-93481800D01*
X134195155Y-93470560D01*
X134087267Y-93511498D01*
X133966088Y-93581516D01*
X133832445Y-93669807D01*
X133705638Y-93762065D01*
X133604966Y-93843988D01*
X133549729Y-93901273D01*
X133544666Y-93913637D01*
X131910469Y-93913637D01*
X132003948Y-93891163D01*
X132031770Y-93886914D01*
X132154097Y-93863198D01*
X132236807Y-93836154D01*
X132254310Y-93823688D01*
X132226953Y-93796046D01*
X132135909Y-93751583D01*
X131998443Y-93698284D01*
X131938733Y-93677743D01*
X131528771Y-93503315D01*
X131170875Y-93267301D01*
X130870328Y-92982474D01*
X130631532Y-92668330D01*
X130436746Y-92310452D01*
X130294999Y-91931065D01*
X130215323Y-91552399D01*
X130201068Y-91335133D01*
X130181529Y-91149386D01*
X130126298Y-91032291D01*
X130037814Y-90988825D01*
X130031142Y-90988666D01*
X129977968Y-91008318D01*
X129935543Y-91072930D01*
X129901961Y-91190986D01*
X129875316Y-91370972D01*
X129853703Y-91621372D01*
X129840952Y-91835333D01*
X129829942Y-92284687D01*
X129851123Y-92671182D01*
X129909180Y-93012032D01*
X130008797Y-93324451D01*
X130154658Y-93625653D01*
X130351446Y-93932853D01*
X130447265Y-94063646D01*
X130626475Y-94292882D01*
X130773143Y-94459042D01*
X130898723Y-94571385D01*
X131014672Y-94639173D01*
X131132443Y-94671665D01*
X131207223Y-94678024D01*
X131406833Y-94684383D01*
X131216711Y-94709774D01*
X131075143Y-94743800D01*
X131015129Y-94797370D01*
X131013709Y-94803097D01*
X131025770Y-94871087D01*
X131069287Y-94990677D01*
X131135620Y-95138899D01*
X131154417Y-95177065D01*
X131223086Y-95321402D01*
X131270079Y-95435005D01*
X131287662Y-95498610D01*
X131286108Y-95505002D01*
X131257643Y-95481884D01*
X131204181Y-95400194D01*
X131138130Y-95279200D01*
X131074578Y-95161491D01*
X131000479Y-95040652D01*
X130907362Y-94904988D01*
X130786758Y-94742805D01*
X130630197Y-94542407D01*
X130429207Y-94292099D01*
X130373191Y-94223019D01*
X130114606Y-93856234D01*
X129898685Y-93452495D01*
X129738381Y-93038547D01*
X129668265Y-92767436D01*
X129622339Y-92391740D01*
X129622603Y-91969827D01*
X129668151Y-91525841D01*
X129726382Y-91215351D01*
X129795686Y-90956767D01*
X129870184Y-90778967D01*
X129951947Y-90678124D01*
X130032598Y-90650000D01*
X130101374Y-90671669D01*
X130101374Y-90671669D01*
G37*
X130101374Y-90671669D02*
X130166433Y-90741620D01*
X130230998Y-90867261D01*
X130298296Y-91056004D01*
X130371552Y-91315261D01*
X130436536Y-91578086D01*
X130497024Y-91824553D01*
X130558945Y-92061585D01*
X130616507Y-92268015D01*
X130663921Y-92422677D01*
X130680625Y-92470333D01*
X130785833Y-92679784D01*
X130941033Y-92872468D01*
X131155201Y-93056424D01*
X131437316Y-93239692D01*
X131696873Y-93380500D01*
X131901417Y-93483875D01*
X132052703Y-93554985D01*
X132172710Y-93600396D01*
X132283418Y-93626670D01*
X132406807Y-93640371D01*
X132564857Y-93648064D01*
X132596798Y-93649248D01*
X132787659Y-93654600D01*
X132917007Y-93651167D01*
X133007860Y-93634945D01*
X133083235Y-93601926D01*
X133162186Y-93550859D01*
X133358086Y-93454843D01*
X133569800Y-93404562D01*
X133674403Y-93388167D01*
X133757075Y-93364473D01*
X133834196Y-93322444D01*
X133922144Y-93251044D01*
X134037298Y-93139239D01*
X134177728Y-92994951D01*
X134232361Y-92934128D01*
X134433666Y-92934128D01*
X134440313Y-92977209D01*
X134471639Y-93003024D01*
X134544722Y-93015938D01*
X134676640Y-93020315D01*
X134772333Y-93020666D01*
X134929607Y-93024431D01*
X135048039Y-93034436D01*
X135107599Y-93048747D01*
X135111000Y-93053373D01*
X135077240Y-93092074D01*
X134992950Y-93148843D01*
X134959457Y-93167690D01*
X134761683Y-93312466D01*
X134641144Y-93491897D01*
X134598075Y-93705429D01*
X134629682Y-93941416D01*
X134663196Y-94024527D01*
X134694059Y-94029833D01*
X134717673Y-93964176D01*
X134729445Y-93834396D01*
X134730000Y-93792086D01*
X134746503Y-93591599D01*
X134804765Y-93447928D01*
X134917916Y-93338208D01*
X135027444Y-93274099D01*
X135186898Y-93206430D01*
X135290852Y-93196191D01*
X135345518Y-93242852D01*
X135347122Y-93246806D01*
X135348443Y-93313862D01*
X135332223Y-93441609D01*
X135302304Y-93608815D01*
X135262528Y-93794248D01*
X135216737Y-93976677D01*
X135211865Y-93994333D01*
X135194574Y-94066475D01*
X135212598Y-94070871D01*
X135273449Y-94019737D01*
X135347230Y-93923306D01*
X135403828Y-93797265D01*
X135406859Y-93786903D01*
X135429471Y-93661977D01*
X135444924Y-93493465D01*
X135449430Y-93353024D01*
X135449666Y-93071548D01*
X135621789Y-92981833D01*
X135761025Y-92924542D01*
X135842411Y-92927561D01*
X135865110Y-92990709D01*
X135857690Y-93032305D01*
X135866339Y-93114323D01*
X135939394Y-93212486D01*
X135983167Y-93254766D01*
X136080992Y-93363946D01*
X136150515Y-93476793D01*
X136163727Y-93512488D01*
X136193804Y-93588629D01*
X136248867Y-93629407D01*
X136355203Y-93651017D01*
X136396112Y-93655666D01*
X136531094Y-93679706D01*
X136609662Y-93724654D01*
X136649483Y-93782666D01*
X136684462Y-93838783D01*
X136732879Y-93869782D01*
X136817147Y-93882142D01*
X136959681Y-93882342D01*
X136991799Y-93881621D01*
X137182980Y-93875451D01*
X137331000Y-93861657D01*
X137452497Y-93831717D01*
X137564110Y-93777112D01*
X137682480Y-93689320D01*
X137824244Y-93559822D01*
X138006042Y-93380097D01*
X138042447Y-93343614D01*
X138293508Y-93100567D01*
X138505313Y-92917497D01*
X138690064Y-92787147D01*
X138859961Y-92702257D01*
X139027204Y-92655568D01*
X139203994Y-92639821D01*
X139225645Y-92639666D01*
X139471333Y-92639666D01*
X139471333Y-92414293D01*
X139462035Y-92247829D01*
X139437212Y-92028678D01*
X139401468Y-91786045D01*
X139359407Y-91549130D01*
X139315634Y-91347138D01*
X139286604Y-91242666D01*
X139235784Y-91135272D01*
X139161391Y-91088202D01*
X139122083Y-91081104D01*
X139005666Y-91067709D01*
X139003003Y-91356271D01*
X138996952Y-91569493D01*
X138983812Y-91789659D01*
X138965456Y-91998869D01*
X138943760Y-92179221D01*
X138920597Y-92312818D01*
X138897841Y-92381757D01*
X138895317Y-92384748D01*
X138838677Y-92390335D01*
X138722832Y-92370258D01*
X138567979Y-92328228D01*
X138540000Y-92319415D01*
X138228281Y-92243270D01*
X137943641Y-92216900D01*
X137788587Y-92212418D01*
X137676455Y-92191929D01*
X137572260Y-92143714D01*
X137441020Y-92056057D01*
X137421247Y-92041941D01*
X137288435Y-91950828D01*
X137200252Y-91904690D01*
X137135172Y-91895659D01*
X137073697Y-91914941D01*
X136951022Y-91956074D01*
X136865326Y-91937350D01*
X136792677Y-91849446D01*
X136762315Y-91793619D01*
X136656856Y-91636360D01*
X136537133Y-91538655D01*
X136417008Y-91510562D01*
X136381933Y-91517537D01*
X136302716Y-91559825D01*
X136190038Y-91639852D01*
X136102119Y-91711547D01*
X135991191Y-91800528D01*
X135900497Y-91860815D01*
X135858344Y-91877666D01*
X135815619Y-91842298D01*
X135751184Y-91749056D01*
X135678167Y-91617230D01*
X135670098Y-91601048D01*
X135578139Y-91430614D01*
X135500050Y-91331568D01*
X135423143Y-91294905D01*
X135334724Y-91311620D01*
X135291293Y-91332291D01*
X135152764Y-91447835D01*
X135026714Y-91634397D01*
X134920356Y-91878492D01*
X134840908Y-92166634D01*
X134838435Y-92178672D01*
X134804130Y-92266057D01*
X134733910Y-92396139D01*
X134641832Y-92543269D01*
X134624843Y-92568385D01*
X134534111Y-92711329D01*
X134466687Y-92837434D01*
X134434732Y-92923433D01*
X134433666Y-92934128D01*
X134232361Y-92934128D01*
X134415805Y-92729901D01*
X134593339Y-92485188D01*
X134723420Y-92239351D01*
X134819135Y-91970932D01*
X134833337Y-91920000D01*
X134917345Y-91688639D01*
X135031197Y-91489100D01*
X135164011Y-91333545D01*
X135304905Y-91234135D01*
X135442997Y-91203031D01*
X135471761Y-91206532D01*
X135537867Y-91252927D01*
X135623573Y-91361420D01*
X135699896Y-91486521D01*
X135776085Y-91616385D01*
X135839928Y-91710655D01*
X135878510Y-91750407D01*
X135880180Y-91750666D01*
X135930110Y-91726807D01*
X136023398Y-91665140D01*
X136108709Y-91602500D01*
X136271994Y-91496199D01*
X136409147Y-91457985D01*
X136540895Y-91489231D01*
X136687966Y-91591310D01*
X136747764Y-91644833D01*
X136874440Y-91754005D01*
X136973385Y-91812384D01*
X137071437Y-91833913D01*
X137114412Y-91835333D01*
X137237254Y-91852467D01*
X137369697Y-91911109D01*
X137515935Y-92006784D01*
X137669916Y-92107054D01*
X137779942Y-92153078D01*
X137852374Y-92153886D01*
X137937987Y-92148583D01*
X138080660Y-92155835D01*
X138253980Y-92174035D01*
X138310803Y-92181793D01*
X138491463Y-92205617D01*
X138606022Y-92213483D01*
X138671574Y-92205150D01*
X138705213Y-92180379D01*
X138707962Y-92176217D01*
X138723423Y-92114111D01*
X138740422Y-91985114D01*
X138757081Y-91806934D01*
X138771522Y-91597276D01*
X138773893Y-91554722D01*
X138790376Y-91291762D01*
X138810371Y-91102738D01*
X138838465Y-90976929D01*
X138879246Y-90903612D01*
X138937300Y-90872064D01*
X139017215Y-90871562D01*
X139063014Y-90878886D01*
X139240205Y-90944529D01*
X139386070Y-91071809D01*
X139502929Y-91265225D01*
X139593100Y-91529274D01*
X139658903Y-91868456D01*
X139685261Y-92085820D01*
X139707272Y-92276254D01*
X139731141Y-92439372D01*
X139753491Y-92553992D01*
X139766307Y-92593820D01*
X139822700Y-92642203D01*
X139934729Y-92703435D01*
X140070929Y-92761396D01*
X140219434Y-92822421D01*
X140415302Y-92910346D01*
X140631034Y-93012528D01*
X140804833Y-93098784D01*
X141036002Y-93221783D01*
X141217023Y-93334083D01*
X141376478Y-93456130D01*
X141542947Y-93608369D01*
X141611151Y-93675554D01*
X141911017Y-94017912D01*
X142137983Y-94371603D01*
X142286908Y-94728281D01*
X142309384Y-94809077D01*
X142332985Y-94945089D01*
X142319494Y-95054152D01*
X142259136Y-95151230D01*
X142142137Y-95251286D01*
X141958720Y-95369283D01*
X141933653Y-95384248D01*
X141685652Y-95554988D01*
X141477455Y-95754681D01*
X141293668Y-96001155D01*
X141118896Y-96312240D01*
X141100650Y-96348953D01*
X140996828Y-96574376D01*
X140936557Y-96749075D01*
X140916665Y-96892929D01*
X140933980Y-97025822D01*
X140974166Y-97141637D01*
X141031910Y-97327775D01*
X141032958Y-97467965D01*
X140978040Y-97554745D01*
X140931833Y-97575282D01*
X140807347Y-97586468D01*
X140726108Y-97576773D01*
X140657017Y-97571348D01*
X140593950Y-97599585D01*
X140528388Y-97671829D01*
X140451810Y-97798423D01*
X140355694Y-97989710D01*
X140314861Y-98075991D01*
X140207365Y-98335364D01*
X140137839Y-98568588D01*
X140108204Y-98763923D01*
X140120383Y-98909629D01*
X140165807Y-98986325D01*
X140251633Y-99010220D01*
X140410051Y-99003761D01*
X140635051Y-98968065D01*
X140920624Y-98904249D01*
X141260761Y-98813429D01*
X141538056Y-98731336D01*
X141815064Y-98649434D01*
X142023560Y-98596523D01*
X142174355Y-98571990D01*
X142278259Y-98575226D01*
X142346086Y-98605617D01*
X142388644Y-98662554D01*
X142397341Y-98682750D01*
X142429332Y-98865667D01*
X142408583Y-99094063D01*
X142340552Y-99351922D01*
X142230694Y-99623228D01*
X142084467Y-99891965D01*
X141907327Y-100142116D01*
X141895001Y-100157195D01*
X141767998Y-100305802D01*
X141603500Y-100490648D01*
X141423322Y-100687552D01*
X141258909Y-100862280D01*
X140864044Y-101274916D01*
X140897938Y-101539874D01*
X140930161Y-101888774D01*
X140927706Y-102160569D01*
X140890578Y-102355207D01*
X140846110Y-102442685D01*
X140746124Y-102538675D01*
X140580278Y-102655214D01*
X140362799Y-102785376D01*
X140107912Y-102922236D01*
X139829842Y-103058870D01*
X139542815Y-103188352D01*
X139261056Y-103303756D01*
X138998793Y-103398158D01*
X138770249Y-103464632D01*
X138725934Y-103474815D01*
X138509074Y-103518564D01*
X138292556Y-103554935D01*
X138065140Y-103584752D01*
X137815581Y-103608844D01*
X137532640Y-103628037D01*
X137205074Y-103643157D01*
X136821641Y-103655032D01*
X136371099Y-103664487D01*
X136084666Y-103669043D01*
X135648205Y-103674398D01*
X135291036Y-103676504D01*
X135007846Y-103675267D01*
X134793319Y-103670595D01*
X134642140Y-103662394D01*
X134548995Y-103650570D01*
X134518333Y-103641505D01*
X134432693Y-103621528D01*
X134279322Y-103605015D01*
X134075131Y-103593309D01*
X133841000Y-103587783D01*
X133607988Y-103584876D01*
X133438941Y-103578565D01*
X133313158Y-103565396D01*
X133209937Y-103541918D01*
X133108576Y-103504678D01*
X132988374Y-103450224D01*
X132973166Y-103443061D01*
X132756107Y-103320585D01*
X132551809Y-103169106D01*
X132377250Y-103004379D01*
X132249407Y-102842163D01*
X132189503Y-102715722D01*
X132157986Y-102523248D01*
X132149905Y-102277062D01*
X132164551Y-102004605D01*
X132201213Y-101733314D01*
X132216960Y-101653636D01*
X132260215Y-101377760D01*
X132255025Y-101147633D01*
X132197232Y-100936843D01*
X132082676Y-100718976D01*
X132065532Y-100692052D01*
X131996574Y-100582826D01*
X131949952Y-100494097D01*
X131920578Y-100404499D01*
X131903360Y-100292668D01*
X131893211Y-100137238D01*
X131885738Y-99937315D01*
X131878993Y-99739800D01*
X132120037Y-99739800D01*
X132120850Y-99948797D01*
X132204913Y-100158118D01*
X132337179Y-100334586D01*
X132516955Y-100534833D01*
X132537303Y-101102359D01*
X132544649Y-101335283D01*
X132545965Y-101501521D01*
X132539446Y-101618949D01*
X132523287Y-101705442D01*
X132495686Y-101778875D01*
X132462531Y-101843193D01*
X132394395Y-101986483D01*
X132325380Y-102161119D01*
X132293036Y-102257076D01*
X132252845Y-102397143D01*
X132239881Y-102493274D01*
X132254085Y-102581680D01*
X132292324Y-102690538D01*
X132362744Y-102827357D01*
X132455748Y-102947919D01*
X132551612Y-103030200D01*
X132617569Y-103053666D01*
X132667558Y-103027882D01*
X132754802Y-102962383D01*
X132806104Y-102918993D01*
X132959489Y-102784320D01*
X132930147Y-102979986D01*
X132917478Y-103108095D01*
X132934794Y-103191141D01*
X132991743Y-103266249D01*
X133009144Y-103283993D01*
X133155703Y-103375590D01*
X133327945Y-103400053D01*
X133500986Y-103358151D01*
X133636658Y-103264520D01*
X133764471Y-103136707D01*
X133910042Y-103264520D01*
X134086365Y-103367306D01*
X134286578Y-103397376D01*
X134495999Y-103357385D01*
X134699942Y-103249985D01*
X134873042Y-103090513D01*
X134957658Y-102997070D01*
X135020286Y-102937743D01*
X135039059Y-102926666D01*
X135062878Y-102963598D01*
X135088561Y-103054649D01*
X135092962Y-103076624D01*
X135160320Y-103238015D01*
X135285739Y-103385963D01*
X135443738Y-103493249D01*
X135505344Y-103517186D01*
X135656870Y-103539592D01*
X135852231Y-103537096D01*
X136055385Y-103512878D01*
X136230291Y-103470116D01*
X136284341Y-103448497D01*
X136385497Y-103377622D01*
X136463309Y-103261362D01*
X136504385Y-103165928D01*
X136549644Y-103058073D01*
X136580975Y-103002088D01*
X136590460Y-103004935D01*
X136622666Y-103126868D01*
X136695734Y-103257087D01*
X136786565Y-103358727D01*
X136829532Y-103386467D01*
X136967513Y-103424757D01*
X137120962Y-103431992D01*
X137256033Y-103409339D01*
X137329357Y-103369261D01*
X137382735Y-103285015D01*
X137427595Y-103164534D01*
X137432060Y-103147011D01*
X137464296Y-103002695D01*
X137697017Y-103002695D01*
X137747501Y-103227122D01*
X137757804Y-103253021D01*
X137811160Y-103354355D01*
X137850367Y-103378174D01*
X137872420Y-103330890D01*
X137874313Y-103218920D01*
X137853180Y-103049490D01*
X137829580Y-102895078D01*
X137826379Y-102793268D01*
X137837646Y-102749635D01*
X138125172Y-102749635D01*
X138149726Y-102823515D01*
X138219861Y-102911305D01*
X138275779Y-102968740D01*
X138426044Y-103091768D01*
X138559001Y-103136119D01*
X138685991Y-103102792D01*
X138797256Y-103014589D01*
X138876335Y-102919453D01*
X138912652Y-102818271D01*
X138918288Y-102725659D01*
X139048000Y-102725659D01*
X139062769Y-102757320D01*
X139101786Y-102723059D01*
X139157115Y-102635263D01*
X139220817Y-102506321D01*
X139278591Y-102365750D01*
X139331498Y-102207411D01*
X139350246Y-102109017D01*
X139335026Y-102076087D01*
X139286031Y-102114143D01*
X139270480Y-102132916D01*
X139232604Y-102202314D01*
X139181118Y-102322022D01*
X139126707Y-102463571D01*
X139080056Y-102598496D01*
X139051850Y-102698328D01*
X139048000Y-102725659D01*
X138918288Y-102725659D01*
X138921000Y-102681106D01*
X138906017Y-102516471D01*
X138859295Y-102421227D01*
X138850573Y-102413266D01*
X138807788Y-102384819D01*
X138793385Y-102406159D01*
X138802017Y-102491885D01*
X138807890Y-102529768D01*
X138813616Y-102721529D01*
X138770394Y-102872046D01*
X138687177Y-102970734D01*
X138572922Y-103007011D01*
X138436585Y-102970292D01*
X138435581Y-102969756D01*
X138318397Y-102864316D01*
X138271395Y-102718283D01*
X138287440Y-102582978D01*
X138308440Y-102484211D01*
X138307151Y-102426374D01*
X138305434Y-102423990D01*
X138261408Y-102427177D01*
X138206471Y-102488072D01*
X138156844Y-102584179D01*
X138133538Y-102662390D01*
X138125172Y-102749635D01*
X137837646Y-102749635D01*
X137846918Y-102713730D01*
X137894539Y-102626137D01*
X137900970Y-102615685D01*
X137952177Y-102510943D01*
X137950472Y-102462034D01*
X137907894Y-102470479D01*
X137836483Y-102537799D01*
X137788583Y-102601492D01*
X137711103Y-102785843D01*
X137697017Y-103002695D01*
X137464296Y-103002695D01*
X137473299Y-102962392D01*
X137508809Y-102783068D01*
X137535271Y-102628419D01*
X137549362Y-102517824D01*
X137547924Y-102470813D01*
X137511858Y-102480437D01*
X137466325Y-102554436D01*
X137419117Y-102674298D01*
X137378026Y-102821507D01*
X137358730Y-102920316D01*
X137322015Y-103105637D01*
X137276053Y-103221554D01*
X137208958Y-103283287D01*
X137108841Y-103306058D01*
X137056222Y-103307666D01*
X136897428Y-103270999D01*
X136781396Y-103161826D01*
X136709297Y-102981389D01*
X136698926Y-102929190D01*
X136663050Y-102805221D01*
X136610399Y-102711273D01*
X136600088Y-102700549D01*
X136521908Y-102646837D01*
X136420453Y-102596314D01*
X136326550Y-102562135D01*
X136271026Y-102557455D01*
X136268739Y-102559149D01*
X136273317Y-102604226D01*
X136304275Y-102696866D01*
X136316944Y-102728307D01*
X136359579Y-102875048D01*
X136378607Y-103035551D01*
X136372115Y-103176530D01*
X136347118Y-103253108D01*
X136252713Y-103333112D01*
X136100127Y-103390872D01*
X135913717Y-103423000D01*
X135717843Y-103426107D01*
X135536861Y-103396808D01*
X135472766Y-103374702D01*
X135326412Y-103289663D01*
X135239125Y-103176031D01*
X135209577Y-103025011D01*
X135236439Y-102827805D01*
X135318380Y-102575616D01*
X135342733Y-102514179D01*
X135412542Y-102330268D01*
X135442226Y-102220849D01*
X135431787Y-102185859D01*
X135381227Y-102225238D01*
X135351144Y-102260116D01*
X135255667Y-102376733D01*
X135204662Y-102186033D01*
X135167387Y-102073464D01*
X135130891Y-102004991D01*
X135116729Y-101995333D01*
X135096279Y-102034130D01*
X135076469Y-102136506D01*
X135061203Y-102281435D01*
X135059759Y-102302250D01*
X135016342Y-102592339D01*
X134921894Y-102830588D01*
X134766777Y-103039015D01*
X134713901Y-103092404D01*
X134604073Y-103183392D01*
X134493198Y-103232012D01*
X134341009Y-103255382D01*
X134327856Y-103256507D01*
X134150680Y-103259721D01*
X134033379Y-103226357D01*
X133964803Y-103144356D01*
X133933798Y-103001660D01*
X133928642Y-102824855D01*
X133934769Y-102661784D01*
X133947965Y-102523374D01*
X133965307Y-102439833D01*
X133990247Y-102395270D01*
X134016791Y-102410242D01*
X134057554Y-102494053D01*
X134066117Y-102514185D01*
X134162083Y-102652007D01*
X134295521Y-102727224D01*
X134450047Y-102742562D01*
X134609276Y-102700748D01*
X134756824Y-102604507D01*
X134876307Y-102456564D01*
X134917043Y-102372627D01*
X134953885Y-102267735D01*
X134965475Y-102178314D01*
X134952134Y-102070554D01*
X134921148Y-101938164D01*
X134845511Y-101691601D01*
X134750970Y-101465149D01*
X134645127Y-101270532D01*
X134535588Y-101119476D01*
X134429956Y-101023705D01*
X134335836Y-100994944D01*
X134312927Y-101000362D01*
X134240151Y-100993528D01*
X134194878Y-100910201D01*
X134179666Y-100767666D01*
X134168117Y-100649047D01*
X134141831Y-100561986D01*
X134139593Y-100558207D01*
X134108540Y-100535751D01*
X134083715Y-100580778D01*
X134064070Y-100698211D01*
X134048560Y-100892973D01*
X134042246Y-101016042D01*
X134031914Y-101181178D01*
X134013331Y-101287585D01*
X133977614Y-101361197D01*
X133915878Y-101427949D01*
X133894509Y-101447346D01*
X133732745Y-101556859D01*
X133532224Y-101624135D01*
X133276170Y-101653937D01*
X133157773Y-101656430D01*
X132949873Y-101642720D01*
X132807527Y-101594692D01*
X132715270Y-101502624D01*
X132657639Y-101356791D01*
X132653255Y-101339166D01*
X132635901Y-101207300D01*
X132631028Y-101032092D01*
X132638250Y-100872533D01*
X132663811Y-100575233D01*
X132920507Y-100499581D01*
X132973309Y-100477917D01*
X134373678Y-100477917D01*
X134382616Y-100618284D01*
X134426413Y-100728867D01*
X134507921Y-100837750D01*
X134584954Y-100936101D01*
X134694290Y-101085292D01*
X134821663Y-101265452D01*
X134952804Y-101456712D01*
X134959174Y-101466166D01*
X135136476Y-101723672D01*
X135290312Y-101924911D01*
X135434223Y-102075448D01*
X135581748Y-102180847D01*
X135746429Y-102246672D01*
X135941806Y-102278487D01*
X136181419Y-102281856D01*
X136478809Y-102262344D01*
X136815367Y-102228937D01*
X137308984Y-102170908D01*
X137720723Y-102110075D01*
X138053343Y-102045833D01*
X138246629Y-101994350D01*
X139701710Y-101994350D01*
X139747793Y-102126135D01*
X139844645Y-102257454D01*
X139977876Y-102373583D01*
X140133096Y-102459798D01*
X140295914Y-102501373D01*
X140332816Y-102503072D01*
X140470251Y-102461574D01*
X140593036Y-102363763D01*
X140707333Y-102212162D01*
X140782909Y-102036106D01*
X140819139Y-101853374D01*
X140815394Y-101681746D01*
X140771047Y-101538999D01*
X140685472Y-101442914D01*
X140626406Y-101417768D01*
X140508875Y-101420718D01*
X140349013Y-101466512D01*
X140169442Y-101543683D01*
X139992783Y-101640763D01*
X139841658Y-101746287D01*
X139738689Y-101848786D01*
X139720788Y-101876825D01*
X139701710Y-101994350D01*
X138246629Y-101994350D01*
X138309602Y-101977577D01*
X138492260Y-101904701D01*
X138590665Y-101839626D01*
X138639412Y-101770605D01*
X138613430Y-101716456D01*
X138509814Y-101675393D01*
X138325660Y-101645628D01*
X138265702Y-101639652D01*
X138075025Y-101616221D01*
X137885876Y-101583003D01*
X137747483Y-101549446D01*
X137619734Y-101515464D01*
X137436682Y-101472967D01*
X137226382Y-101428264D01*
X137082406Y-101399877D01*
X136831673Y-101347581D01*
X136630139Y-101291221D01*
X136451820Y-101219590D01*
X136270729Y-101121482D01*
X136060883Y-100985691D01*
X135958735Y-100915294D01*
X135792388Y-100803196D01*
X135628989Y-100699458D01*
X135496852Y-100621874D01*
X135465902Y-100605531D01*
X135252036Y-100480687D01*
X135104569Y-100348155D01*
X135006036Y-100188619D01*
X134953516Y-100038814D01*
X134907734Y-99901966D01*
X134859663Y-99801405D01*
X134825496Y-99763008D01*
X134741930Y-99772492D01*
X134647360Y-99846707D01*
X134552584Y-99968571D01*
X134468395Y-100121003D01*
X134405589Y-100286922D01*
X134374962Y-100449245D01*
X134373678Y-100477917D01*
X132973309Y-100477917D01*
X133165162Y-100399203D01*
X133340509Y-100258215D01*
X133455988Y-100067113D01*
X133503124Y-99912831D01*
X133529921Y-99749286D01*
X133531022Y-99626643D01*
X133507882Y-99558924D01*
X133466211Y-99557327D01*
X133438887Y-99609627D01*
X133412382Y-99715483D01*
X133403122Y-99772407D01*
X133337850Y-100025927D01*
X133220919Y-100212641D01*
X133052726Y-100332166D01*
X132833669Y-100384116D01*
X132767850Y-100386508D01*
X132627434Y-100377121D01*
X132527367Y-100336973D01*
X132424364Y-100248493D01*
X132421938Y-100246072D01*
X132291894Y-100066182D01*
X132244079Y-99867532D01*
X132278007Y-99647682D01*
X132293636Y-99603360D01*
X132402922Y-99417614D01*
X132510357Y-99326567D01*
X132601442Y-99267105D01*
X132652016Y-99227937D01*
X132655666Y-99222509D01*
X132668714Y-99176114D01*
X132681362Y-99141295D01*
X132688820Y-99079816D01*
X132648007Y-99074215D01*
X132569136Y-99119144D01*
X132462419Y-99209259D01*
X132368704Y-99304972D01*
X132202609Y-99526676D01*
X132120037Y-99739800D01*
X131878993Y-99739800D01*
X131868554Y-99434166D01*
X131648277Y-99001019D01*
X131545133Y-98790434D01*
X131478914Y-98632674D01*
X131442844Y-98508044D01*
X131430151Y-98396852D01*
X131429858Y-98366019D01*
X131431716Y-98164166D01*
X131490508Y-98329138D01*
X131559650Y-98485293D01*
X131639654Y-98571561D01*
X131748848Y-98602390D01*
X131834600Y-98600409D01*
X131999500Y-98586309D01*
X131839226Y-98514344D01*
X131696571Y-98411008D01*
X131603016Y-98264248D01*
X131572237Y-98099854D01*
X131581949Y-98029195D01*
X131644516Y-97906234D01*
X131766201Y-97764475D01*
X131929286Y-97620681D01*
X132116050Y-97491611D01*
X132200482Y-97444156D01*
X132355226Y-97356897D01*
X132431117Y-97296877D01*
X132429091Y-97263017D01*
X132365896Y-97254000D01*
X132261019Y-97283301D01*
X132117644Y-97361925D01*
X131953566Y-97475945D01*
X131786577Y-97611441D01*
X131634469Y-97754486D01*
X131515036Y-97891159D01*
X131473285Y-97952500D01*
X131448798Y-97981029D01*
X131436537Y-97955825D01*
X131435244Y-97866630D01*
X131443328Y-97708447D01*
X131468026Y-97482262D01*
X131517702Y-97292289D01*
X131599284Y-97101828D01*
X131664161Y-96957508D01*
X131699928Y-96835477D01*
X131706975Y-96712187D01*
X131685692Y-96564090D01*
X131636470Y-96367639D01*
X131612834Y-96283521D01*
X131583590Y-96180875D01*
X131740104Y-96300254D01*
X131924603Y-96399467D01*
X132109370Y-96420512D01*
X132185757Y-96404713D01*
X132223767Y-96419108D01*
X132258323Y-96495106D01*
X132293860Y-96643225D01*
X132300366Y-96676588D01*
X132360505Y-96921352D01*
X132438610Y-97090935D01*
X132544383Y-97194418D01*
X132687525Y-97240882D01*
X132877738Y-97239407D01*
X132899135Y-97237042D01*
X133081171Y-97205686D01*
X133278243Y-97157301D01*
X133359039Y-97132432D01*
X133492633Y-97092377D01*
X133555525Y-97084901D01*
X133553379Y-97106024D01*
X133491858Y-97151765D01*
X133376627Y-97218143D01*
X133213349Y-97301176D01*
X133007688Y-97396884D01*
X132940495Y-97426631D01*
X132601961Y-97590639D01*
X132344985Y-97751668D01*
X132166668Y-97912735D01*
X132064113Y-98076854D01*
X132034424Y-98247039D01*
X132050302Y-98353015D01*
X132071691Y-98406865D01*
X132114208Y-98432226D01*
X132200463Y-98435448D01*
X132312568Y-98426685D01*
X132462535Y-98409208D01*
X132589859Y-98388176D01*
X132641594Y-98375684D01*
X132699870Y-98364274D01*
X132721364Y-98393784D01*
X132716525Y-98483649D01*
X132713461Y-98509391D01*
X132729344Y-98710399D01*
X132819083Y-98897873D01*
X132972204Y-99050699D01*
X132986920Y-99060823D01*
X133121479Y-99131952D01*
X133296639Y-99200483D01*
X133477802Y-99254971D01*
X133630371Y-99283972D01*
X133667598Y-99286000D01*
X133721805Y-99290629D01*
X133747944Y-99315841D01*
X133747559Y-99378622D01*
X133722193Y-99495958D01*
X133695971Y-99598279D01*
X133658351Y-99805790D01*
X133671300Y-99962714D01*
X133736744Y-100087762D01*
X133747698Y-100100916D01*
X133853887Y-100166575D01*
X133989583Y-100169624D01*
X134140819Y-100120110D01*
X134293629Y-100028078D01*
X134434047Y-99903571D01*
X134548107Y-99756637D01*
X134621842Y-99597319D01*
X134642343Y-99457442D01*
X134639352Y-99307166D01*
X134555222Y-99497666D01*
X134452749Y-99681914D01*
X134324708Y-99842142D01*
X134185277Y-99966733D01*
X134048630Y-100044074D01*
X133928944Y-100062549D01*
X133883450Y-100048062D01*
X133793483Y-99957255D01*
X133766409Y-99822578D01*
X133800379Y-99654717D01*
X133893541Y-99464360D01*
X134013266Y-99298419D01*
X134125051Y-99153537D01*
X134174062Y-99064425D01*
X134160114Y-99029834D01*
X134083022Y-99048518D01*
X133983422Y-99096865D01*
X133833781Y-99138269D01*
X133638739Y-99139580D01*
X133424248Y-99106286D01*
X133216257Y-99043875D01*
X133128200Y-99000714D01*
X134819468Y-99000714D01*
X134844987Y-99282292D01*
X134914619Y-99522493D01*
X134951905Y-99603500D01*
X135049805Y-99753057D01*
X135201110Y-99933361D01*
X135389240Y-100127510D01*
X135597612Y-100318606D01*
X135809645Y-100489748D01*
X135851833Y-100520671D01*
X136196893Y-100736177D01*
X136617535Y-100942792D01*
X137104851Y-101137104D01*
X137649934Y-101315704D01*
X138243877Y-101475179D01*
X138497666Y-101533851D01*
X138755177Y-101575967D01*
X139042360Y-101598759D01*
X139336397Y-101602608D01*
X139614470Y-101587896D01*
X139853759Y-101555004D01*
X140021666Y-101508364D01*
X140282225Y-101379445D01*
X140556153Y-101200832D01*
X140835187Y-100982101D01*
X141111061Y-100732832D01*
X141375512Y-100462602D01*
X141620275Y-100180989D01*
X141837084Y-99897571D01*
X142017676Y-99621927D01*
X142153786Y-99363634D01*
X142237150Y-99132271D01*
X142259502Y-98937416D01*
X142257694Y-98916960D01*
X142243820Y-98847258D01*
X142207713Y-98813316D01*
X142126147Y-98803575D01*
X142032500Y-98804886D01*
X141915838Y-98816894D01*
X141737930Y-98846058D01*
X141519539Y-98888502D01*
X141281431Y-98940348D01*
X141181872Y-98963677D01*
X140861261Y-99038892D01*
X140580787Y-99099999D01*
X140325342Y-99148650D01*
X140079819Y-99186499D01*
X139829107Y-99215200D01*
X139558099Y-99236405D01*
X139251687Y-99251768D01*
X138894763Y-99262942D01*
X138472216Y-99271580D01*
X138349500Y-99273618D01*
X137797150Y-99279853D01*
X137322335Y-99278747D01*
X136918150Y-99269210D01*
X136577693Y-99250149D01*
X136294062Y-99220473D01*
X136060354Y-99179090D01*
X135869667Y-99124907D01*
X135715098Y-99056833D01*
X135589745Y-98973777D01*
X135542875Y-98928684D01*
X137150257Y-98928684D01*
X137151618Y-98940168D01*
X137181964Y-98988396D01*
X137257541Y-99023254D01*
X137386866Y-99045859D01*
X137578456Y-99057329D01*
X137840828Y-99058783D01*
X138029849Y-99055453D01*
X138260256Y-99049282D01*
X138421562Y-99041602D01*
X138529324Y-99029628D01*
X138599100Y-99010576D01*
X138646445Y-98981660D01*
X138686916Y-98940097D01*
X138689224Y-98937420D01*
X138741200Y-98864988D01*
X138825097Y-98734351D01*
X138931288Y-98561075D01*
X139050146Y-98360727D01*
X139114708Y-98249374D01*
X139268175Y-97992441D01*
X139404218Y-97784469D01*
X139516316Y-97634911D01*
X139591888Y-97557645D01*
X139773172Y-97469521D01*
X140024275Y-97428777D01*
X140344825Y-97435448D01*
X140600975Y-97466881D01*
X140765238Y-97488671D01*
X140896310Y-97499034D01*
X140972814Y-97496542D01*
X140982701Y-97492409D01*
X140990441Y-97431961D01*
X140964093Y-97321497D01*
X140912913Y-97183731D01*
X140846155Y-97041380D01*
X140773074Y-96917158D01*
X140721601Y-96851554D01*
X140540454Y-96714060D01*
X140300577Y-96610659D01*
X140023628Y-96548861D01*
X139807076Y-96534333D01*
X139433706Y-96574123D01*
X139067616Y-96694293D01*
X138706458Y-96896037D01*
X138347884Y-97180552D01*
X138140817Y-97383291D01*
X137970433Y-97574514D01*
X137797298Y-97791563D01*
X137629440Y-98021802D01*
X137474886Y-98252600D01*
X137341664Y-98471320D01*
X137237800Y-98665330D01*
X137171322Y-98821996D01*
X137150257Y-98928684D01*
X135542875Y-98928684D01*
X135486705Y-98874645D01*
X135437064Y-98812903D01*
X135369711Y-98667655D01*
X135334472Y-98476637D01*
X135334805Y-98273749D01*
X135365995Y-98116185D01*
X135443020Y-97938926D01*
X135570202Y-97715732D01*
X135737563Y-97460267D01*
X135935129Y-97186198D01*
X136152921Y-96907192D01*
X136380965Y-96636914D01*
X136609284Y-96389033D01*
X136676536Y-96320885D01*
X137149798Y-95908368D01*
X137676655Y-95555254D01*
X138245183Y-95267325D01*
X138843457Y-95050360D01*
X139459553Y-94910139D01*
X139639556Y-94884691D01*
X139927642Y-94859223D01*
X140254363Y-94846061D01*
X140594903Y-94844886D01*
X140924451Y-94855379D01*
X141218194Y-94877220D01*
X141439833Y-94907876D01*
X141683920Y-94953677D01*
X141857598Y-94984279D01*
X141973680Y-95000041D01*
X142044983Y-95001328D01*
X142084320Y-94988499D01*
X142104506Y-94961918D01*
X142116746Y-94926991D01*
X142113226Y-94828574D01*
X142064525Y-94679074D01*
X141977946Y-94493844D01*
X141860794Y-94288238D01*
X141720371Y-94077608D01*
X141698160Y-94047083D01*
X141490417Y-93812704D01*
X141218482Y-93577440D01*
X140901780Y-93353689D01*
X140559737Y-93153852D01*
X140211780Y-92990325D01*
X139877333Y-92875509D01*
X139852333Y-92868950D01*
X139485532Y-92804532D01*
X139159013Y-92810655D01*
X138865830Y-92887589D01*
X138815065Y-92909434D01*
X138730452Y-92950561D01*
X138653007Y-92996138D01*
X138573251Y-93054929D01*
X138481708Y-93135698D01*
X138368901Y-93247211D01*
X138225352Y-93398231D01*
X138041585Y-93597522D01*
X137883403Y-93771035D01*
X137794015Y-93864800D01*
X137717911Y-93923427D01*
X137628603Y-93958780D01*
X137499599Y-93982726D01*
X137375403Y-93998583D01*
X136919746Y-94073655D01*
X136539163Y-94180459D01*
X136229531Y-94320795D01*
X135986725Y-94496461D01*
X135832081Y-94671666D01*
X135740719Y-94820939D01*
X135709354Y-94918567D01*
X135730407Y-94963909D01*
X135796295Y-94956324D01*
X135899438Y-94895172D01*
X136032255Y-94779812D01*
X136113047Y-94695413D01*
X136298219Y-94511993D01*
X136484063Y-94379941D01*
X136697903Y-94283915D01*
X136967058Y-94208572D01*
X136988770Y-94203656D01*
X137142047Y-94175404D01*
X137234224Y-94175453D01*
X137278880Y-94197946D01*
X137295693Y-94253821D01*
X137249497Y-94330568D01*
X137136058Y-94432589D01*
X136951139Y-94564286D01*
X136883955Y-94608388D01*
X136737547Y-94708784D01*
X136618932Y-94807482D01*
X136515644Y-94920145D01*
X136415221Y-95062438D01*
X136305198Y-95250025D01*
X136173112Y-95498571D01*
X136168360Y-95507750D01*
X136077319Y-95678810D01*
X135998414Y-95818095D01*
X135940447Y-95910646D01*
X135912984Y-95941666D01*
X135882027Y-95905579D01*
X135854077Y-95825250D01*
X135796250Y-95603233D01*
X135750511Y-95464216D01*
X135717427Y-95407321D01*
X135697570Y-95431669D01*
X135691508Y-95536381D01*
X135699811Y-95720577D01*
X135723048Y-95983379D01*
X135726998Y-96021402D01*
X135754180Y-96304722D01*
X135764127Y-96523859D01*
X135751234Y-96698492D01*
X135709894Y-96848302D01*
X135634504Y-96992968D01*
X135519456Y-97152172D01*
X135359145Y-97345593D01*
X135345146Y-97362021D01*
X134995164Y-97772386D01*
X134899094Y-98271238D01*
X134837643Y-98667211D01*
X134819468Y-99000714D01*
X133128200Y-99000714D01*
X133040717Y-98957835D01*
X132941919Y-98876618D01*
X132878759Y-98772479D01*
X132842788Y-98665859D01*
X132836954Y-98608372D01*
X132844548Y-98576037D01*
X133502333Y-98576037D01*
X133537488Y-98668852D01*
X133630739Y-98721766D01*
X133763769Y-98731333D01*
X133918259Y-98694107D01*
X133980685Y-98666001D01*
X134092428Y-98598927D01*
X134236129Y-98499964D01*
X134388054Y-98386975D01*
X134524467Y-98277826D01*
X134621633Y-98190381D01*
X134641855Y-98168357D01*
X134678968Y-98109531D01*
X134655079Y-98099168D01*
X134576522Y-98134403D01*
X134449630Y-98212369D01*
X134280734Y-98330202D01*
X134275117Y-98334299D01*
X134073391Y-98474364D01*
X133920798Y-98561670D01*
X133804996Y-98601674D01*
X133713644Y-98599834D01*
X133690952Y-98592636D01*
X133661916Y-98567886D01*
X133665998Y-98516543D01*
X133707584Y-98422158D01*
X133764941Y-98315188D01*
X133839048Y-98172068D01*
X133870709Y-98081823D01*
X133864878Y-98027172D01*
X133852288Y-98010523D01*
X133802823Y-97974802D01*
X133788788Y-97976488D01*
X133728038Y-98083692D01*
X133658026Y-98219397D01*
X133590016Y-98360033D01*
X133535268Y-98482029D01*
X133505045Y-98561814D01*
X133502333Y-98576037D01*
X132844548Y-98576037D01*
X132850278Y-98551644D01*
X132891701Y-98482761D01*
X132970164Y-98388811D01*
X133094605Y-98256881D01*
X133201907Y-98147159D01*
X133358969Y-97994192D01*
X133505084Y-97863905D01*
X133625004Y-97769147D01*
X133703484Y-97722769D01*
X133706632Y-97721779D01*
X133799091Y-97710167D01*
X133951478Y-97706610D01*
X134139423Y-97711245D01*
X134267760Y-97718620D01*
X134481504Y-97729634D01*
X134655212Y-97730638D01*
X134779447Y-97722624D01*
X134844772Y-97706585D01*
X134841749Y-97683515D01*
X134792804Y-97663370D01*
X134716925Y-97648754D01*
X134578585Y-97629845D01*
X134399689Y-97609430D01*
X134260055Y-97595550D01*
X133995667Y-97575678D01*
X133797111Y-97576053D01*
X133646912Y-97601806D01*
X133527596Y-97658070D01*
X133421689Y-97749978D01*
X133320176Y-97871596D01*
X133201306Y-98008264D01*
X133094176Y-98098256D01*
X133036666Y-98124750D01*
X132948077Y-98147363D01*
X132805323Y-98188402D01*
X132634788Y-98240203D01*
X132579923Y-98257402D01*
X132380164Y-98314288D01*
X132248302Y-98333986D01*
X132175212Y-98314468D01*
X132151769Y-98253709D01*
X132164791Y-98165197D01*
X132228851Y-98023294D01*
X132351925Y-97888235D01*
X132541191Y-97754383D01*
X132803828Y-97616098D01*
X132945417Y-97551986D01*
X133198727Y-97435374D01*
X133412888Y-97324565D01*
X133577585Y-97225695D01*
X133682498Y-97144897D01*
X133717238Y-97093095D01*
X133746981Y-96958757D01*
X133757044Y-96939760D01*
X134017086Y-96939760D01*
X134039142Y-97129827D01*
X134132935Y-97300827D01*
X134276971Y-97425047D01*
X134431938Y-97493705D01*
X134585504Y-97498226D01*
X134754981Y-97445634D01*
X134899716Y-97375064D01*
X135022575Y-97297270D01*
X135106032Y-97225315D01*
X135132558Y-97172262D01*
X135130126Y-97166032D01*
X135083516Y-97164012D01*
X134985360Y-97197031D01*
X134865045Y-97253845D01*
X134667623Y-97343787D01*
X134514493Y-97375911D01*
X134388048Y-97350161D01*
X134270678Y-97266483D01*
X134255777Y-97251956D01*
X134173273Y-97156788D01*
X134143062Y-97070043D01*
X134149858Y-96950502D01*
X134212431Y-96764889D01*
X134313908Y-96632657D01*
X134454833Y-96487223D01*
X134941666Y-96515751D01*
X135159050Y-96526369D01*
X135300360Y-96527733D01*
X135373717Y-96519489D01*
X135387246Y-96501279D01*
X135383481Y-96496404D01*
X135320482Y-96468698D01*
X135196430Y-96439986D01*
X135034839Y-96413288D01*
X134859227Y-96391626D01*
X134693109Y-96378020D01*
X134560003Y-96375492D01*
X134496751Y-96382488D01*
X134367855Y-96443909D01*
X134229667Y-96553195D01*
X134113069Y-96683681D01*
X134072312Y-96748940D01*
X134017086Y-96939760D01*
X133757044Y-96939760D01*
X133815730Y-96828980D01*
X133849605Y-96780333D01*
X133972953Y-96590248D01*
X134035032Y-96441770D01*
X134040493Y-96323371D01*
X134038113Y-96312776D01*
X133968027Y-96157501D01*
X133937820Y-96116734D01*
X134398561Y-96116734D01*
X134413458Y-96148331D01*
X134423275Y-96158987D01*
X134513781Y-96205138D01*
X134675385Y-96239444D01*
X134895117Y-96260125D01*
X135160009Y-96265404D01*
X135195666Y-96264892D01*
X135513166Y-96259166D01*
X135540351Y-95595760D01*
X135551413Y-95365186D01*
X135564131Y-95163433D01*
X135577282Y-95006154D01*
X135589641Y-94908998D01*
X135595815Y-94886597D01*
X135585805Y-94839910D01*
X135507958Y-94799018D01*
X135379101Y-94769391D01*
X135216065Y-94756496D01*
X135194994Y-94756333D01*
X135037324Y-94764282D01*
X134873601Y-94785166D01*
X134725430Y-94814540D01*
X134614417Y-94847959D01*
X134562167Y-94880977D01*
X134560666Y-94886841D01*
X134600728Y-94917035D01*
X134719109Y-94922690D01*
X134913096Y-94903823D01*
X135044893Y-94884009D01*
X135179794Y-94864161D01*
X135275924Y-94854244D01*
X135308933Y-94855488D01*
X135299075Y-94897076D01*
X135260338Y-94990926D01*
X135220272Y-95076817D01*
X135140545Y-95245093D01*
X135058573Y-95424145D01*
X135030507Y-95487320D01*
X134908433Y-95682603D01*
X134745225Y-95825986D01*
X134577823Y-95943805D01*
X134470845Y-96024710D01*
X134414390Y-96078940D01*
X134398561Y-96116734D01*
X133937820Y-96116734D01*
X133837450Y-95981278D01*
X133661282Y-95801683D01*
X133480286Y-95654747D01*
X133208494Y-95457635D01*
X133391224Y-95263127D01*
X133522877Y-95390730D01*
X133632145Y-95486748D01*
X133694641Y-95516487D01*
X133714000Y-95483399D01*
X133689717Y-95435137D01*
X133625671Y-95340232D01*
X133535059Y-95218096D01*
X133522936Y-95202413D01*
X133394004Y-95018333D01*
X133266018Y-94804641D01*
X133151388Y-94585199D01*
X133062523Y-94383871D01*
X133011835Y-94224518D01*
X133010235Y-94216583D01*
X132998678Y-94122820D01*
X133024279Y-94085427D01*
X133092101Y-94079000D01*
X133175760Y-94106244D01*
X133303080Y-94179371D01*
X133456796Y-94285467D01*
X133619647Y-94411619D01*
X133774368Y-94544915D01*
X133903697Y-94672442D01*
X133939114Y-94712547D01*
X134090143Y-94932197D01*
X134229689Y-95212178D01*
X134326644Y-95469218D01*
X134377965Y-95602719D01*
X134419686Y-95657292D01*
X134444908Y-95651025D01*
X134458612Y-95584172D01*
X134438326Y-95462280D01*
X134390738Y-95304568D01*
X134322535Y-95130250D01*
X134240403Y-94958545D01*
X134152540Y-94810878D01*
X134016264Y-94637425D01*
X133843519Y-94456525D01*
X133651054Y-94282055D01*
X133455619Y-94127894D01*
X133273963Y-94007919D01*
X133122835Y-93936008D01*
X133083940Y-93925471D01*
X132986687Y-93918284D01*
X132930510Y-93960846D01*
X132903348Y-94012460D01*
X132879590Y-94087249D01*
X132880545Y-94173577D01*
X132908786Y-94296536D01*
X132944304Y-94412063D01*
X132989877Y-94557026D01*
X133022875Y-94668592D01*
X133036600Y-94724048D01*
X133036666Y-94725253D01*
X133003928Y-94712840D01*
X132914237Y-94660331D01*
X132780378Y-94575640D01*
X132615138Y-94466680D01*
X132571801Y-94437508D01*
X132341839Y-94284949D01*
X132168477Y-94179030D01*
X132040250Y-94116030D01*
X131945697Y-94092230D01*
X131873354Y-94103910D01*
X131811758Y-94147352D01*
X131780578Y-94180783D01*
X131706106Y-94304896D01*
X131685658Y-94453285D01*
X131717059Y-94646500D01*
X131727256Y-94684773D01*
X131757538Y-94823476D01*
X131749176Y-94888433D01*
X131700317Y-94882151D01*
X131625500Y-94822614D01*
X131554099Y-94746504D01*
X131525216Y-94672348D01*
X131528255Y-94563956D01*
X131534716Y-94512580D01*
X131575814Y-94276180D01*
X131631954Y-94110102D01*
X131714469Y-94000082D01*
X131834690Y-93931856D01*
X131910469Y-93913637D01*
X133544666Y-93913637D01*
X133570012Y-93949795D01*
X133648167Y-93930385D01*
X133782304Y-93854199D01*
X133888223Y-93782666D01*
X134018760Y-93697465D01*
X134129258Y-93636647D01*
X134195867Y-93613333D01*
X134196002Y-93613333D01*
X134286042Y-93653811D01*
X134355243Y-93772127D01*
X134401735Y-93963605D01*
X134421882Y-94177819D01*
X134435427Y-94410737D01*
X134451833Y-94569711D01*
X134473043Y-94665461D01*
X134501001Y-94708704D01*
X134519139Y-94714000D01*
X134538364Y-94674212D01*
X134552382Y-94564875D01*
X134559615Y-94401029D01*
X134560253Y-94322416D01*
X134557812Y-94207475D01*
X134882995Y-94207475D01*
X134897798Y-94255365D01*
X134972160Y-94308128D01*
X135085296Y-94360810D01*
X135167341Y-94364893D01*
X135256961Y-94319762D01*
X135281497Y-94303192D01*
X135389671Y-94216232D01*
X135465841Y-94116236D01*
X135529159Y-93974579D01*
X135558929Y-93888500D01*
X135636837Y-93683963D01*
X135710632Y-93548505D01*
X135775730Y-93484392D01*
X135827542Y-93493890D01*
X135861484Y-93579267D01*
X135873000Y-93733277D01*
X135876740Y-93870116D01*
X135886422Y-93969453D01*
X135896563Y-94003785D01*
X135946734Y-94005241D01*
X136049945Y-93983516D01*
X136131623Y-93959715D01*
X136270495Y-93921874D01*
X136360367Y-93917776D01*
X136425560Y-93943566D01*
X136485209Y-93971172D01*
X136506002Y-93937416D01*
X136508000Y-93882936D01*
X136503968Y-93819395D01*
X136478108Y-93788689D01*
X136409768Y-93783004D01*
X136278298Y-93794528D01*
X136275166Y-93794852D01*
X136042333Y-93818882D01*
X136042333Y-93673774D01*
X136011604Y-93531722D01*
X135932131Y-93420045D01*
X135822986Y-93362506D01*
X135789982Y-93359333D01*
X135677967Y-93400901D01*
X135576693Y-93523312D01*
X135488864Y-93723123D01*
X135478108Y-93756085D01*
X135420350Y-93907985D01*
X135352222Y-94044102D01*
X135315550Y-94099598D01*
X135242394Y-94175207D01*
X135163257Y-94198637D01*
X135064712Y-94189111D01*
X134940747Y-94182672D01*
X134882995Y-94207475D01*
X134557812Y-94207475D01*
X134555799Y-94112744D01*
X134539791Y-93958837D01*
X134507471Y-93832065D01*
X134459340Y-93715000D01*
X134374306Y-93560695D01*
X134290970Y-93481800D01*
X134195155Y-93470560D01*
X134087267Y-93511498D01*
X133966088Y-93581516D01*
X133832445Y-93669807D01*
X133705638Y-93762065D01*
X133604966Y-93843988D01*
X133549729Y-93901273D01*
X133544666Y-93913637D01*
X131910469Y-93913637D01*
X132003948Y-93891163D01*
X132031770Y-93886914D01*
X132154097Y-93863198D01*
X132236807Y-93836154D01*
X132254310Y-93823688D01*
X132226953Y-93796046D01*
X132135909Y-93751583D01*
X131998443Y-93698284D01*
X131938733Y-93677743D01*
X131528771Y-93503315D01*
X131170875Y-93267301D01*
X130870328Y-92982474D01*
X130631532Y-92668330D01*
X130436746Y-92310452D01*
X130294999Y-91931065D01*
X130215323Y-91552399D01*
X130201068Y-91335133D01*
X130181529Y-91149386D01*
X130126298Y-91032291D01*
X130037814Y-90988825D01*
X130031142Y-90988666D01*
X129977968Y-91008318D01*
X129935543Y-91072930D01*
X129901961Y-91190986D01*
X129875316Y-91370972D01*
X129853703Y-91621372D01*
X129840952Y-91835333D01*
X129829942Y-92284687D01*
X129851123Y-92671182D01*
X129909180Y-93012032D01*
X130008797Y-93324451D01*
X130154658Y-93625653D01*
X130351446Y-93932853D01*
X130447265Y-94063646D01*
X130626475Y-94292882D01*
X130773143Y-94459042D01*
X130898723Y-94571385D01*
X131014672Y-94639173D01*
X131132443Y-94671665D01*
X131207223Y-94678024D01*
X131406833Y-94684383D01*
X131216711Y-94709774D01*
X131075143Y-94743800D01*
X131015129Y-94797370D01*
X131013709Y-94803097D01*
X131025770Y-94871087D01*
X131069287Y-94990677D01*
X131135620Y-95138899D01*
X131154417Y-95177065D01*
X131223086Y-95321402D01*
X131270079Y-95435005D01*
X131287662Y-95498610D01*
X131286108Y-95505002D01*
X131257643Y-95481884D01*
X131204181Y-95400194D01*
X131138130Y-95279200D01*
X131074578Y-95161491D01*
X131000479Y-95040652D01*
X130907362Y-94904988D01*
X130786758Y-94742805D01*
X130630197Y-94542407D01*
X130429207Y-94292099D01*
X130373191Y-94223019D01*
X130114606Y-93856234D01*
X129898685Y-93452495D01*
X129738381Y-93038547D01*
X129668265Y-92767436D01*
X129622339Y-92391740D01*
X129622603Y-91969827D01*
X129668151Y-91525841D01*
X129726382Y-91215351D01*
X129795686Y-90956767D01*
X129870184Y-90778967D01*
X129951947Y-90678124D01*
X130032598Y-90650000D01*
X130101374Y-90671669D01*
G04 #@! TO.C,J1*
D14*
X154533333Y-64682380D02*
X154533333Y-65396666D01*
X154580952Y-65539523D01*
X154676190Y-65634761D01*
X154819047Y-65682380D01*
X154914285Y-65682380D01*
X153533333Y-65682380D02*
X154104761Y-65682380D01*
X153819047Y-65682380D02*
X153819047Y-64682380D01*
X153914285Y-64825238D01*
X154009523Y-64920476D01*
X154104761Y-64968095D01*
G04 #@! TD*
M02*
