G04 #@! TF.GenerationSoftware,KiCad,Pcbnew,5.0.2+dfsg1-1*
G04 #@! TF.CreationDate,2019-07-05T17:04:00+02:00*
G04 #@! TF.ProjectId,PollFoll,506f6c6c-466f-46c6-9c2e-6b696361645f,rev?*
G04 #@! TF.SameCoordinates,Original*
G04 #@! TF.FileFunction,Soldermask,Bot*
G04 #@! TF.FilePolarity,Negative*
%FSLAX46Y46*%
G04 Gerber Fmt 4.6, Leading zero omitted, Abs format (unit mm)*
G04 Created by KiCad (PCBNEW 5.0.2+dfsg1-1) date vie 05 jul 2019 17:04:00 CEST*
%MOMM*%
%LPD*%
G01*
G04 APERTURE LIST*
%ADD10C,0.100000*%
G04 APERTURE END LIST*
D10*
G36*
X132446030Y-87534469D02*
X132446033Y-87534470D01*
X132446034Y-87534470D01*
X132634535Y-87591651D01*
X132634537Y-87591652D01*
X132808260Y-87684509D01*
X132960528Y-87809472D01*
X133085491Y-87961740D01*
X133178348Y-88135463D01*
X133235531Y-88323970D01*
X133254838Y-88520000D01*
X133235531Y-88716030D01*
X133178348Y-88904537D01*
X133085491Y-89078260D01*
X132960528Y-89230528D01*
X132808260Y-89355491D01*
X132808258Y-89355492D01*
X132634535Y-89448349D01*
X132446034Y-89505530D01*
X132446033Y-89505530D01*
X132446030Y-89505531D01*
X132299124Y-89520000D01*
X132200876Y-89520000D01*
X132053970Y-89505531D01*
X132053967Y-89505530D01*
X132053966Y-89505530D01*
X131865465Y-89448349D01*
X131691742Y-89355492D01*
X131691740Y-89355491D01*
X131539472Y-89230528D01*
X131414509Y-89078260D01*
X131321652Y-88904537D01*
X131264469Y-88716030D01*
X131245162Y-88520000D01*
X131264469Y-88323970D01*
X131321652Y-88135463D01*
X131414509Y-87961740D01*
X131539472Y-87809472D01*
X131691740Y-87684509D01*
X131865463Y-87591652D01*
X131865465Y-87591651D01*
X132053966Y-87534470D01*
X132053967Y-87534470D01*
X132053970Y-87534469D01*
X132200876Y-87520000D01*
X132299124Y-87520000D01*
X132446030Y-87534469D01*
X132446030Y-87534469D01*
G37*
G36*
X140066030Y-87534469D02*
X140066033Y-87534470D01*
X140066034Y-87534470D01*
X140254535Y-87591651D01*
X140254537Y-87591652D01*
X140428260Y-87684509D01*
X140580528Y-87809472D01*
X140705491Y-87961740D01*
X140798348Y-88135463D01*
X140855531Y-88323970D01*
X140874838Y-88520000D01*
X140855531Y-88716030D01*
X140798348Y-88904537D01*
X140705491Y-89078260D01*
X140580528Y-89230528D01*
X140428260Y-89355491D01*
X140428258Y-89355492D01*
X140254535Y-89448349D01*
X140066034Y-89505530D01*
X140066033Y-89505530D01*
X140066030Y-89505531D01*
X139919124Y-89520000D01*
X139820876Y-89520000D01*
X139673970Y-89505531D01*
X139673967Y-89505530D01*
X139673966Y-89505530D01*
X139485465Y-89448349D01*
X139311742Y-89355492D01*
X139311740Y-89355491D01*
X139159472Y-89230528D01*
X139034509Y-89078260D01*
X138941652Y-88904537D01*
X138884469Y-88716030D01*
X138865162Y-88520000D01*
X138884469Y-88323970D01*
X138941652Y-88135463D01*
X139034509Y-87961740D01*
X139159472Y-87809472D01*
X139311740Y-87684509D01*
X139485463Y-87591652D01*
X139485465Y-87591651D01*
X139673966Y-87534470D01*
X139673967Y-87534470D01*
X139673970Y-87534469D01*
X139820876Y-87520000D01*
X139919124Y-87520000D01*
X140066030Y-87534469D01*
X140066030Y-87534469D01*
G37*
G36*
X132446030Y-84994469D02*
X132446033Y-84994470D01*
X132446034Y-84994470D01*
X132634535Y-85051651D01*
X132634537Y-85051652D01*
X132808260Y-85144509D01*
X132960528Y-85269472D01*
X133085491Y-85421740D01*
X133178348Y-85595463D01*
X133235531Y-85783970D01*
X133254838Y-85980000D01*
X133235531Y-86176030D01*
X133178348Y-86364537D01*
X133085491Y-86538260D01*
X132960528Y-86690528D01*
X132808260Y-86815491D01*
X132808258Y-86815492D01*
X132634535Y-86908349D01*
X132446034Y-86965530D01*
X132446033Y-86965530D01*
X132446030Y-86965531D01*
X132299124Y-86980000D01*
X132200876Y-86980000D01*
X132053970Y-86965531D01*
X132053967Y-86965530D01*
X132053966Y-86965530D01*
X131865465Y-86908349D01*
X131691742Y-86815492D01*
X131691740Y-86815491D01*
X131539472Y-86690528D01*
X131414509Y-86538260D01*
X131321652Y-86364537D01*
X131264469Y-86176030D01*
X131245162Y-85980000D01*
X131264469Y-85783970D01*
X131321652Y-85595463D01*
X131414509Y-85421740D01*
X131539472Y-85269472D01*
X131691740Y-85144509D01*
X131865463Y-85051652D01*
X131865465Y-85051651D01*
X132053966Y-84994470D01*
X132053967Y-84994470D01*
X132053970Y-84994469D01*
X132200876Y-84980000D01*
X132299124Y-84980000D01*
X132446030Y-84994469D01*
X132446030Y-84994469D01*
G37*
G36*
X140066030Y-84994469D02*
X140066033Y-84994470D01*
X140066034Y-84994470D01*
X140254535Y-85051651D01*
X140254537Y-85051652D01*
X140428260Y-85144509D01*
X140580528Y-85269472D01*
X140705491Y-85421740D01*
X140798348Y-85595463D01*
X140855531Y-85783970D01*
X140874838Y-85980000D01*
X140855531Y-86176030D01*
X140798348Y-86364537D01*
X140705491Y-86538260D01*
X140580528Y-86690528D01*
X140428260Y-86815491D01*
X140428258Y-86815492D01*
X140254535Y-86908349D01*
X140066034Y-86965530D01*
X140066033Y-86965530D01*
X140066030Y-86965531D01*
X139919124Y-86980000D01*
X139820876Y-86980000D01*
X139673970Y-86965531D01*
X139673967Y-86965530D01*
X139673966Y-86965530D01*
X139485465Y-86908349D01*
X139311742Y-86815492D01*
X139311740Y-86815491D01*
X139159472Y-86690528D01*
X139034509Y-86538260D01*
X138941652Y-86364537D01*
X138884469Y-86176030D01*
X138865162Y-85980000D01*
X138884469Y-85783970D01*
X138941652Y-85595463D01*
X139034509Y-85421740D01*
X139159472Y-85269472D01*
X139311740Y-85144509D01*
X139485463Y-85051652D01*
X139485465Y-85051651D01*
X139673966Y-84994470D01*
X139673967Y-84994470D01*
X139673970Y-84994469D01*
X139820876Y-84980000D01*
X139919124Y-84980000D01*
X140066030Y-84994469D01*
X140066030Y-84994469D01*
G37*
G36*
X132446030Y-82454469D02*
X132446033Y-82454470D01*
X132446034Y-82454470D01*
X132634535Y-82511651D01*
X132634537Y-82511652D01*
X132808260Y-82604509D01*
X132960528Y-82729472D01*
X133085491Y-82881740D01*
X133178348Y-83055463D01*
X133235531Y-83243970D01*
X133254838Y-83440000D01*
X133235531Y-83636030D01*
X133178348Y-83824537D01*
X133085491Y-83998260D01*
X132960528Y-84150528D01*
X132808260Y-84275491D01*
X132808258Y-84275492D01*
X132634535Y-84368349D01*
X132446034Y-84425530D01*
X132446033Y-84425530D01*
X132446030Y-84425531D01*
X132299124Y-84440000D01*
X132200876Y-84440000D01*
X132053970Y-84425531D01*
X132053967Y-84425530D01*
X132053966Y-84425530D01*
X131865465Y-84368349D01*
X131691742Y-84275492D01*
X131691740Y-84275491D01*
X131539472Y-84150528D01*
X131414509Y-83998260D01*
X131321652Y-83824537D01*
X131264469Y-83636030D01*
X131245162Y-83440000D01*
X131264469Y-83243970D01*
X131321652Y-83055463D01*
X131414509Y-82881740D01*
X131539472Y-82729472D01*
X131691740Y-82604509D01*
X131865463Y-82511652D01*
X131865465Y-82511651D01*
X132053966Y-82454470D01*
X132053967Y-82454470D01*
X132053970Y-82454469D01*
X132200876Y-82440000D01*
X132299124Y-82440000D01*
X132446030Y-82454469D01*
X132446030Y-82454469D01*
G37*
G36*
X140066030Y-82454469D02*
X140066033Y-82454470D01*
X140066034Y-82454470D01*
X140254535Y-82511651D01*
X140254537Y-82511652D01*
X140428260Y-82604509D01*
X140580528Y-82729472D01*
X140705491Y-82881740D01*
X140798348Y-83055463D01*
X140855531Y-83243970D01*
X140874838Y-83440000D01*
X140855531Y-83636030D01*
X140798348Y-83824537D01*
X140705491Y-83998260D01*
X140580528Y-84150528D01*
X140428260Y-84275491D01*
X140428258Y-84275492D01*
X140254535Y-84368349D01*
X140066034Y-84425530D01*
X140066033Y-84425530D01*
X140066030Y-84425531D01*
X139919124Y-84440000D01*
X139820876Y-84440000D01*
X139673970Y-84425531D01*
X139673967Y-84425530D01*
X139673966Y-84425530D01*
X139485465Y-84368349D01*
X139311742Y-84275492D01*
X139311740Y-84275491D01*
X139159472Y-84150528D01*
X139034509Y-83998260D01*
X138941652Y-83824537D01*
X138884469Y-83636030D01*
X138865162Y-83440000D01*
X138884469Y-83243970D01*
X138941652Y-83055463D01*
X139034509Y-82881740D01*
X139159472Y-82729472D01*
X139311740Y-82604509D01*
X139485463Y-82511652D01*
X139485465Y-82511651D01*
X139673966Y-82454470D01*
X139673967Y-82454470D01*
X139673970Y-82454469D01*
X139820876Y-82440000D01*
X139919124Y-82440000D01*
X140066030Y-82454469D01*
X140066030Y-82454469D01*
G37*
G36*
X140066030Y-79914469D02*
X140066033Y-79914470D01*
X140066034Y-79914470D01*
X140254535Y-79971651D01*
X140254537Y-79971652D01*
X140428260Y-80064509D01*
X140580528Y-80189472D01*
X140705491Y-80341740D01*
X140798348Y-80515463D01*
X140855531Y-80703970D01*
X140874838Y-80900000D01*
X140855531Y-81096030D01*
X140798348Y-81284537D01*
X140705491Y-81458260D01*
X140580528Y-81610528D01*
X140428260Y-81735491D01*
X140428258Y-81735492D01*
X140254535Y-81828349D01*
X140066034Y-81885530D01*
X140066033Y-81885530D01*
X140066030Y-81885531D01*
X139919124Y-81900000D01*
X139820876Y-81900000D01*
X139673970Y-81885531D01*
X139673967Y-81885530D01*
X139673966Y-81885530D01*
X139485465Y-81828349D01*
X139311742Y-81735492D01*
X139311740Y-81735491D01*
X139159472Y-81610528D01*
X139034509Y-81458260D01*
X138941652Y-81284537D01*
X138884469Y-81096030D01*
X138865162Y-80900000D01*
X138884469Y-80703970D01*
X138941652Y-80515463D01*
X139034509Y-80341740D01*
X139159472Y-80189472D01*
X139311740Y-80064509D01*
X139485463Y-79971652D01*
X139485465Y-79971651D01*
X139673966Y-79914470D01*
X139673967Y-79914470D01*
X139673970Y-79914469D01*
X139820876Y-79900000D01*
X139919124Y-79900000D01*
X140066030Y-79914469D01*
X140066030Y-79914469D01*
G37*
G36*
X133250000Y-81900000D02*
X131250000Y-81900000D01*
X131250000Y-79900000D01*
X133250000Y-79900000D01*
X133250000Y-81900000D01*
X133250000Y-81900000D01*
G37*
G36*
X154328707Y-71597596D02*
X154405836Y-71605193D01*
X154537787Y-71645220D01*
X154603763Y-71665233D01*
X154786172Y-71762733D01*
X154946054Y-71893946D01*
X155077267Y-72053828D01*
X155174767Y-72236237D01*
X155174767Y-72236238D01*
X155234807Y-72434164D01*
X155255080Y-72640000D01*
X155234807Y-72845836D01*
X155194780Y-72977787D01*
X155174767Y-73043763D01*
X155077267Y-73226172D01*
X154946054Y-73386054D01*
X154786172Y-73517267D01*
X154603763Y-73614767D01*
X154537787Y-73634780D01*
X154405836Y-73674807D01*
X154328707Y-73682403D01*
X154251580Y-73690000D01*
X154148420Y-73690000D01*
X154071293Y-73682403D01*
X153994164Y-73674807D01*
X153862213Y-73634780D01*
X153796237Y-73614767D01*
X153613828Y-73517267D01*
X153453946Y-73386054D01*
X153322733Y-73226172D01*
X153225233Y-73043763D01*
X153205220Y-72977787D01*
X153165193Y-72845836D01*
X153144920Y-72640000D01*
X153165193Y-72434164D01*
X153225233Y-72236238D01*
X153225233Y-72236237D01*
X153322733Y-72053828D01*
X153453946Y-71893946D01*
X153613828Y-71762733D01*
X153796237Y-71665233D01*
X153862213Y-71645220D01*
X153994164Y-71605193D01*
X154071293Y-71597596D01*
X154148420Y-71590000D01*
X154251580Y-71590000D01*
X154328707Y-71597596D01*
X154328707Y-71597596D01*
G37*
G36*
X154328707Y-69057597D02*
X154405836Y-69065193D01*
X154537787Y-69105220D01*
X154603763Y-69125233D01*
X154786172Y-69222733D01*
X154946054Y-69353946D01*
X155077267Y-69513828D01*
X155174767Y-69696237D01*
X155174767Y-69696238D01*
X155234807Y-69894164D01*
X155255080Y-70100000D01*
X155234807Y-70305836D01*
X155194780Y-70437787D01*
X155174767Y-70503763D01*
X155077267Y-70686172D01*
X154946054Y-70846054D01*
X154786172Y-70977267D01*
X154603763Y-71074767D01*
X154537787Y-71094780D01*
X154405836Y-71134807D01*
X154328707Y-71142404D01*
X154251580Y-71150000D01*
X154148420Y-71150000D01*
X154071293Y-71142404D01*
X153994164Y-71134807D01*
X153862213Y-71094780D01*
X153796237Y-71074767D01*
X153613828Y-70977267D01*
X153453946Y-70846054D01*
X153322733Y-70686172D01*
X153225233Y-70503763D01*
X153205220Y-70437787D01*
X153165193Y-70305836D01*
X153144920Y-70100000D01*
X153165193Y-69894164D01*
X153225233Y-69696238D01*
X153225233Y-69696237D01*
X153322733Y-69513828D01*
X153453946Y-69353946D01*
X153613828Y-69222733D01*
X153796237Y-69125233D01*
X153862213Y-69105220D01*
X153994164Y-69065193D01*
X154071293Y-69057597D01*
X154148420Y-69050000D01*
X154251580Y-69050000D01*
X154328707Y-69057597D01*
X154328707Y-69057597D01*
G37*
G36*
X148430000Y-70050000D02*
X146290000Y-70050000D01*
X146290000Y-64550000D01*
X148430000Y-64550000D01*
X148430000Y-70050000D01*
X148430000Y-70050000D01*
G37*
G36*
X125710000Y-70050000D02*
X123570000Y-70050000D01*
X123570000Y-64550000D01*
X125710000Y-64550000D01*
X125710000Y-70050000D01*
X125710000Y-70050000D01*
G37*
G36*
X138180000Y-69480000D02*
X133820000Y-69480000D01*
X133820000Y-65120000D01*
X138180000Y-65120000D01*
X138180000Y-69480000D01*
X138180000Y-69480000D01*
G37*
G36*
X155250000Y-68610000D02*
X153150000Y-68610000D01*
X153150000Y-66510000D01*
X155250000Y-66510000D01*
X155250000Y-68610000D01*
X155250000Y-68610000D01*
G37*
M02*
