<?xml version="1.0" encoding="UTF-8" standalone="no"?>
<!-- Created with Inkscape (http://www.inkscape.org/) -->

<svg
   xmlns:dc="http://purl.org/dc/elements/1.1/"
   xmlns:cc="http://creativecommons.org/ns#"
   xmlns:rdf="http://www.w3.org/1999/02/22-rdf-syntax-ns#"
   xmlns:svg="http://www.w3.org/2000/svg"
   xmlns="http://www.w3.org/2000/svg"
   xmlns:sodipodi="http://sodipodi.sourceforge.net/DTD/sodipodi-0.dtd"
   xmlns:inkscape="http://www.inkscape.org/namespaces/inkscape"
   version="1.1"
   id="svg874"
   width="13.0mm"
   height="14.0mm"
   viewBox="0 0 13.0 14.0"
   sodipodi:docname="pollfoll.svg"
   inkscape:version="0.92.4 (5da689c313, 2019-01-14)">
  <metadata
     id="metadata880">
    <rdf:RDF>
      <cc:Work
         rdf:about="">
        <dc:format>image/svg+xml</dc:format>
        <dc:type
           rdf:resource="http://purl.org/dc/dcmitype/StillImage" />
        <dc:title />
      </cc:Work>
    </rdf:RDF>
  </metadata>
  <defs
     id="defs878" />
  <sodipodi:namedview
     pagecolor="#ffffff"
     bordercolor="#666666"
     borderopacity="1"
     objecttolerance="10"
     gridtolerance="10"
     guidetolerance="10"
     inkscape:pageopacity="0"
     inkscape:pageshadow="2"
     inkscape:window-width="1860"
     inkscape:window-height="1016"
     id="namedview876"
     showgrid="true"
     inkscape:zoom="6.3901502"
     inkscape:cx="21.674832"
     inkscape:cy="20.436591"
     inkscape:window-x="60"
     inkscape:window-y="27"
     inkscape:window-maximized="1"
     inkscape:current-layer="g942"
     borderlayer="true"
     inkscape:document-units="mm">
    <inkscape:grid
       id="grid928"
       units="mm"
       type="xygrid"
       empspacing="1"
       spacingy="2.54"
       spacingx="2.54" />
  </sodipodi:namedview>
  <g
     id="g934"
     sodipodi:insensitive="true"
     inkscape:groupmode="layer"
     inkscape:label="[fixed] BG">
    <rect
       id="rect932"
       style="stroke:none;fill-opacity:1;fill:#FFFFFF"
       height="14.0"
       width="13.0"
       y="0"
       x="0" />
  </g>
  <g
     id="g936"
     inkscape:groupmode="layer"
     inkscape:label="Edge.Cuts-disabled" />
  <g
     id="g938"
     inkscape:groupmode="layer"
     inkscape:label="B.Cu-disabled" />
  <g
     id="g940"
     inkscape:groupmode="layer"
     inkscape:label="B.Mask-disabled" />
  <g
     id="g942"
     inkscape:groupmode="layer"
     inkscape:label="B.Silk">
    <path
       inkscape:connector-curvature="0"
       id="path888"
       d="M 5.0077148,13.622194 C 4.8478299,13.552551 4.7652814,13.545314 4.371595,13.566435 3.8859321,13.592497 3.6899182,13.55365 3.2929462,13.352813 3.0750144,13.242548 2.790779,12.976682 2.6940237,12.792599 2.5929681,12.60033 2.575279,12.028664 2.6615246,11.742296 c 0.1498848,-0.497634 0.115687,-0.7411 -0.160475,-1.142569 L 2.353905,10.385818 V 9.9034333 c 0,-0.4764107 -0.00179,-0.4858427 -0.148414,-0.7609457 C 2.1238676,8.9892866 2.0182253,8.7904473 1.9707328,8.7006255 1.89704,8.5612545 1.88455,8.4684914 1.8855021,8.067796 1.8868418,7.5383289 1.9470045,7.2389166 2.0917352,7.0427462 2.2305516,6.8545904 2.2196172,6.6454793 2.046067,6.1693017 c -0.021234,-0.058206 0.00541,-0.044522 0.09279,0.047624 0.1335502,0.140881 0.4102621,0.2430186 0.4771558,0.1761252 0.078252,-0.078252 0.14617,-0.040859 0.14617,0.080453 0,0.2057678 0.084082,0.5248408 0.1656204,0.6285065 0.042871,0.054474 0.1399249,0.1106805 0.2157144,0.1248964 0.1507879,0.028295 0.6238445,-0.066914 0.8094739,-0.162907 0.063625,-0.032907 0.1156781,-0.042245 0.1156781,-0.020698 0,0.07431 -0.2341232,0.2052808 -0.6633038,0.3710536 -0.6323698,0.2442563 -0.9137083,0.5198732 -0.8808919,0.862974 0.011624,0.1215924 0.028297,0.1389998 0.1439394,0.1501846 0.1226607,0.011846 0.29829,-0.023693 0.477728,-0.096666 0.071324,-0.029012 0.075499,-0.017568 0.050532,0.1385836 -0.035047,0.219094 0.044167,0.4118676 0.2262199,0.550742 0.1337962,0.102047 0.5303524,0.23166 0.7087935,0.23166 0.1257185,0 0.1404839,0.03187 0.081851,0.176845 -0.028789,0.07115 -0.063366,0.2149017 -0.076871,0.3194487 -0.06322,0.4894127 0.4244733,0.5552297 0.8065546,0.108847 0.1554191,-0.181574 0.2509405,-0.4984827 0.1608551,-0.5336917 -0.01435,-0.0056 -0.049943,0.0705 -0.07907,0.1691477 C 4.9664774,9.6906663 4.7346646,9.9546333 4.553054,10.02986 4.456884,10.06969 4.4187839,10.06643 4.3342908,10.01104 4.1512804,9.8911263 4.2303377,9.4998863 4.4838577,9.2708406 c 0.2165057,-0.195598 0.2150887,-0.3495642 -0.00179,-0.197641 -0.073434,0.05143 -0.1603946,0.0621 -0.3867439,0.04741 C 3.662657,9.0925376 3.3581802,8.9129622 3.3102719,8.6575829 3.277639,8.4837419 3.3389711,8.3788725 3.5388788,8.2665118 3.6326792,8.2137981 3.7574365,8.0894652 3.829985,7.9764118 4.0167186,7.6854075 4.1272291,7.6418672 4.5769551,7.6820996 5.1038162,7.7292347 5.3042825,7.7273783 5.3220252,7.6752102 5.3320388,7.6457961 5.2319575,7.6208316 5.0399355,7.6047945 4.8762688,7.5911114 4.6137501,7.5691226 4.4565609,7.5558988 4.1106263,7.5268005 3.9849078,7.5894656 3.759305,7.9034959 3.615236,8.1040344 3.585218,8.1244414 3.4527897,8.1119017 3.4172058,8.1083613 3.2996147,8.1436887 3.1915137,8.1900201 2.6927394,8.4038217 2.5359748,8.3646841 2.6707858,8.0600234 2.7639384,7.8495038 2.960542,7.7036424 3.3465887,7.5586297 3.9120866,7.3462146 4.2565862,7.1178226 4.2068764,6.9882863 4.1921695,6.9500691 4.2328936,6.8674669 4.3093403,6.7804124 c 0.069746,-0.079429 0.1268091,-0.165303 0.1268091,-0.1908235 0,-0.025529 0.028611,-0.078032 0.063617,-0.1166934 0.056219,-0.06212 0.056786,-0.086232 0.00487,-0.2073552 C 4.3981442,6.0170658 4.2009366,5.79288 3.9351323,5.6181224 L 3.6731143,5.4458547 3.7738526,5.3451209 3.8745821,5.244387 4.0042074,5.370025 C 4.2620234,5.619906 4.2624614,5.4848626 4.0046545,5.1982446 3.9021235,5.0842026 3.7353768,4.8205753 3.6341065,4.6124067 3.2795129,3.8834966 3.5170203,3.8400766 4.2329664,4.5029155 4.5112831,4.7605882 4.6426564,4.9619487 4.762921,5.3152011 4.8897703,5.6878055 4.8839008,5.6765493 4.9282284,5.6322262 4.9823011,5.5781489 4.8409636,5.1303854 4.684038,4.8586221 4.5646631,4.6518972 4.1161529,4.2204101 3.8039422,4.0119374 3.4400104,3.7689316 3.2613501,3.9340871 3.414239,4.3721814 3.5691485,4.8160648 3.5707713,4.7951125 3.3920663,4.6590186 3.0033107,4.3629904 2.5357392,4.0666897 2.4573479,4.0666897 c -0.2496665,0 -0.3499578,0.2418123 -0.2470738,0.5957128 0.036702,0.1262906 0.059754,0.2366178 0.051203,0.245165 -0.032097,0.032142 -0.2947852,-0.1953255 -0.2788798,-0.2414859 0.00912,-0.026509 0.029817,-0.1640379 0.045995,-0.305599 0.020832,-0.18246 0.056102,-0.2858313 0.121199,-0.3551254 0.088977,-0.094712 0.126,-0.10773 0.4645495,-0.1633182 C 2.8165592,3.8088246 2.7680206,3.7584041 2.4555107,3.6770043 1.460832,3.4179233 0.67990997,2.3859937 0.67990997,1.3306888 c 0,-0.2472929 -0.0540415,-0.36691377 -0.16575891,-0.36691377 -0.13435502,0 -0.17281305,0.18419877 -0.19224099,0.92073537 -0.0210999,0.800417 0.0195799,1.1360878 0.18145414,1.4967832 0.12648727,0.2818573 0.47686529,0.7754325 0.76086829,1.0718361 0.1730097,0.1805601 0.1920934,0.1895543 0.3764667,0.1774667 0.1316057,-0.00863 0.2001847,0.00447 0.2127149,0.040099 0.013367,0.038132 -0.010147,0.045619 -0.084626,0.026911 -0.1289505,-0.032365 -0.2574628,0.00635 -0.288366,0.086893 -0.012964,0.033796 0.022932,0.1317578 0.079782,0.2176636 C 1.6664083,5.1626558 1.8387434,5.5752605 1.8111124,5.6028958 1.802575,5.6113876 1.7440788,5.5126811 1.6810752,5.3834985 1.5014045,5.0150828 1.3306388,4.7717775 0.94630437,4.3365977 0.22982625,3.5253179 -0.04153465,2.6119363 0.1261733,1.5760638 0.25854796,0.75843153 0.36238421,0.54640503 0.58152749,0.64625373 0.7012959,0.70082753 0.77189541,0.88739533 0.90251772,1.4945299 1.1231451,2.520009 1.2437942,2.7782809 1.6287009,3.0490516 1.7575708,3.1397049 2.0607201,3.3093039 2.3023623,3.4259341 2.738995,3.6366777 2.7441582,3.6379875 3.1372232,3.6378758 3.5191749,3.6377506 3.5370249,3.6338569 3.6580047,3.5177408 3.7643935,3.4158133 3.8173621,3.3971945 4.0093482,3.3942485 4.2249556,3.3911194 4.2445847,3.381374 4.4333925,3.1877607 4.5422802,3.0761014 4.7022545,2.9192026 4.7888935,2.8390948 5.0047198,2.6395314 5.2375512,2.2466364 5.2701307,2.0270238 c 0.074082,-0.499436 0.4404502,-0.9266005 0.7189188,-0.838218 0.04229,0.013411 0.1316283,0.141436 0.200614,0.287445 0.068404,0.1447843 0.1487539,0.2632429 0.1785529,0.2632429 0.029817,0 0.098718,-0.047676 0.1531571,-0.1059461 0.1221153,-0.1307162 0.2897786,-0.2206721 0.4112859,-0.2206721 0.057617,0 0.1644894,0.077412 0.2869668,0.2078691 0.1843553,0.1963582 0.2037207,0.2064254 0.3496672,0.1817672 0.1396746,-0.023603 0.1778691,-0.00797 0.3978392,0.1628487 0.2244407,0.1742792 0.2564704,0.1869794 0.4126003,0.1635639 0.1020073,-0.015289 0.286542,0.00134 0.4643842,0.041752 0.2197155,0.049973 0.3069267,0.055315 0.341339,0.020877 0.028476,-0.028476 0.052205,-0.2693179 0.061784,-0.6268038 0.00854,-0.3193184 0.032544,-0.61273137 0.053295,-0.65202537 0.051627,-0.097748 0.2576504,-0.091816 0.4260602,0.012249 C 9.9946482,1.0906427 10.135807,1.456211 10.175096,2.086506 c 0.0346,0.5551763 0.01994,0.5273755 0.333445,0.6311357 0.297477,0.09845 1.014022,0.4602892 1.29685,0.6548773 0.627906,0.4320148 1.201246,1.484843 0.964163,1.7705088 -0.03116,0.037506 -0.183368,0.134829 -0.338277,0.2162332 -0.371026,0.1949683 -0.600934,0.4574735 -0.851977,0.9727882 -0.218785,0.4490915 -0.23529,0.5332133 -0.140582,0.7163618 0.03406,0.065861 0.07302,0.2007931 0.08661,0.2998457 0.02388,0.1742975 0.02074,0.180962 -0.09751,0.2069352 -0.06721,0.014754 -0.165893,0.016535 -0.219305,0.00402 -0.0534,-0.012602 -0.118476,-0.0088 -0.144605,0.00832 -0.08345,0.054904 -0.375305,0.6748684 -0.444067,0.9432925 -0.07505,0.2929658 -0.05602,0.4379152 0.06242,0.4755102 0.115924,0.03679 0.717341,-0.083984 1.204318,-0.2418431 0.579258,-0.1877797 0.815916,-0.244561 0.894149,-0.2145432 0.08298,0.031825 0.147522,0.1939975 0.147522,0.3706555 0,0.1804788 -0.144495,0.6286365 -0.288277,0.8941005 -0.114672,0.2117227 -0.650233,0.8182757 -1.038541,1.1762047 -0.106159,0.09785 -0.207061,0.214999 -0.224231,0.260333 -0.01717,0.04534 -0.0057,0.254311 0.02543,0.464392 0.06225,0.419762 0.03639,0.609852 -0.107945,0.793345 -0.07717,0.0981 -1.226066,0.693447 -1.6072808,0.832871 -0.5450463,0.199344 -1.2914978,0.299926 -2.3933832,0.322502 -0.9058447,0.01855 -1.0031989,0.01914 -1.2452481,0.0075 -0.067368,-0.0032 -0.2878385,0.0068 -0.4899365,0.02227 -0.3154784,0.02414 -0.393436,0.01681 -0.5511752,-0.05191 z m 1.7426769,-0.186837 c 0.1591562,-0.06553 0.2566759,-0.243149 0.2615664,-0.476408 l 0.00358,-0.175545 0.038802,0.142897 c 0.074511,0.274454 0.1294869,0.371733 0.2433589,0.430616 0.13292,0.06874 0.3755638,0.0777 0.4871113,0.01802 0.085146,-0.04557 0.1618295,-0.272788 0.1621826,-0.480558 1.252e-4,-0.0737 0.028029,-0.200533 0.062002,-0.281857 0.07419,-0.177547 0.041663,-0.232086 -0.062102,-0.104116 -0.046442,0.05729 -0.085851,0.197062 -0.1036041,0.36745 -0.039651,0.380474 -0.065195,0.417899 -0.2853707,0.417899 -0.2216244,0 -0.3298639,-0.09257 -0.3672981,-0.314138 -0.046165,-0.273193 -0.062914,-0.29925 -0.248406,-0.386444 -0.1001799,-0.04708 -0.1903411,-0.07741 -0.2003681,-0.06739 -0.01001,0.01004 0.018239,0.08976 0.062813,0.177177 0.096777,0.189826 0.1045959,0.416507 0.018596,0.539293 -0.1197012,0.170909 -0.6387528,0.23256 -0.9028405,0.107237 -0.2942936,-0.139652 -0.3211064,-0.399351 -0.091824,-0.889323 0.070211,-0.150032 0.1141583,-0.285662 0.097663,-0.301397 -0.016495,-0.01573 -0.050804,0.0051 -0.076241,0.04637 -0.1284183,0.208227 -0.1456514,0.217605 -0.1470148,0.08004 -0.00134,-0.14423 -0.076482,-0.33875 -0.130694,-0.33875 -0.019044,0 -0.023559,0.09646 -0.00996,0.214341 0.042289,0.367898 -0.2120578,0.874834 -0.5184257,1.033263 -0.1867292,0.09656 -0.475247,0.08719 -0.5810503,-0.01886 -0.073952,-0.07413 -0.087252,-0.132147 -0.083094,-0.362498 0.00268,-0.150832 0.028387,-0.329358 0.05701,-0.396721 l 0.052057,-0.122486 0.048525,0.163314 c 0.058261,0.196103 0.1856293,0.275706 0.4003962,0.250243 0.2183654,-0.02589 0.350682,-0.126484 0.4440666,-0.337584 0.068579,-0.15504 0.074417,-0.211983 0.038803,-0.378135 C 5.3539758,11.680589 5.2221912,11.370162 5.0679164,11.160509 4.9269767,10.968983 4.82268,10.922917 4.7330102,11.012586 c -0.034153,0.03411 -0.053456,-0.02955 -0.074837,-0.246558 -0.041887,-0.425078 -0.1186553,-0.355185 -0.1194241,0.108726 -4.471e-4,0.31006 -0.014529,0.390338 -0.0849,0.486736 C 4.3315456,11.528974 4.124347,11.616167 3.7798429,11.645126 3.1984081,11.693995 3.0672315,11.545013 3.1056717,10.87943 l 0.019312,-0.334835 0.2679679,-0.06745 c 0.3417996,-0.08604 0.4817514,-0.215666 0.5691459,-0.5271297 0.082454,-0.293856 0.083725,-0.412412 0.00447,-0.412412 -0.057202,0 -0.080595,0.05133 -0.063711,0.139795 0.00402,0.02074 -0.013992,0.126018 -0.039876,0.233931 C 3.7445117,10.405137 3.0837872,10.562148 2.8197844,10.159226 2.7005391,9.9772403 2.6814464,9.8349463 2.7467624,9.6150113 2.7979034,9.4428066 2.8376164,9.3908746 2.9879085,9.2997126 c 0.1685439,-0.102241 0.2471096,-0.2526 0.1314672,-0.251603 -0.081904,8.94e-4 -0.4041468,0.330749 -0.4648983,0.4761547 -0.07204,0.17241 -0.071073,0.437075 0.00224,0.5767497 0.031785,0.06064 0.1236262,0.173564 0.2041364,0.250949 l 0.1463792,0.140699 v 0.459592 c 0,0.258728 0.020474,0.504509 0.046836,0.562378 0.040233,0.08829 0.034466,0.113036 -0.040724,0.175437 -0.089629,0.07437 -0.2918884,0.607138 -0.2918884,0.768887 0,0.124463 0.1081102,0.371325 0.2050797,0.468296 0.1328619,0.132866 0.2678785,0.103442 0.4070794,-0.08872 0.1281859,-0.176947 0.1509845,-0.15232 0.081524,0.08804 -0.079156,0.273918 0.078713,0.448837 0.4050811,0.448837 0.1664741,0 0.3710352,-0.125436 0.3710352,-0.227515 0,-0.08964 0.045338,-0.07021 0.1618564,0.06936 0.2210879,0.264835 0.7609575,0.178124 1.0114019,-0.162437 0.060232,-0.0819 0.115848,-0.157583 0.1235905,-0.16816 0.025928,-0.03545 0.090041,0.09984 0.090671,0.19133 8.941e-4,0.134055 0.2242395,0.365027 0.399538,0.413238 0.1797063,0.04943 0.5882251,0.01989 0.7721736,-0.05587 z M 3.5750492,13.217314 c -0.089787,-0.07271 -0.091999,-0.08681 -0.045351,-0.288907 0.026956,-0.116858 0.049044,-0.364987 0.049044,-0.551395 0,-0.382756 0.021413,-0.418022 0.2659922,-0.437821 0.1538856,-0.01246 0.1669971,-0.0045 0.2420311,0.149389 0.1520441,0.311571 0.087198,1.064294 -0.1003317,1.164657 -0.1194688,0.06394 -0.3084375,0.04745 -0.4113843,-0.03594 z M 2.9263276,12.723787 c -0.1041668,-0.204176 -0.1040013,-0.349336 8.94e-4,-0.629204 0.1128799,-0.301692 0.1719234,-0.345849 0.2962247,-0.221544 0.2396978,0.239693 0.1328799,1.012435 -0.1399518,1.012435 -0.045687,0 -0.1063981,-0.06255 -0.1569836,-0.161687 z m 1.7816355,-0.184722 c -0.069759,-0.06976 -0.1311632,-0.600768 -0.090747,-0.784779 0.049195,-0.223985 0.2226613,-0.603992 0.2757105,-0.603992 0.089795,0 0.3104404,0.422225 0.3842405,0.735285 0.079885,0.338853 0.047448,0.488277 -0.1375871,0.633831 -0.1206669,0.09492 -0.3460908,0.105177 -0.4316167,0.01962 z M 4.2509906,12.289171 C 4.1905923,12.018163 4.1390543,11.902664 4.0458037,11.829312 l -0.09862,-0.07757 0.1797554,-0.04526 c 0.098865,-0.0249 0.2392283,-0.0953 0.3119155,-0.15647 l 0.13216,-0.111203 -0.028789,0.161955 c -0.044301,0.249062 -0.066501,0.304847 -0.1214137,0.304847 -0.033571,0 -0.050636,0.06896 -0.050636,0.204454 0,0.243697 -0.078494,0.361661 -0.1191828,0.179112 z M 3.3774752,11.870148 c -0.022442,-0.04198 -0.029236,-0.08789 -0.015065,-0.102071 0.033036,-0.03303 0.248987,-0.03232 0.3744193,0.0013 0.086138,0.02307 0.074832,0.03428 -0.1020701,0.101477 -0.2393892,0.09092 -0.2082446,0.091 -0.2573018,-8.94e-4 z M 8.3465588,13.1365 c -0.084976,-0.321327 -0.081753,-0.38876 0.025436,-0.532704 0.056845,-0.07634 0.091669,-0.157695 0.077386,-0.180806 -0.040099,-0.06488 -0.2531623,0.216179 -0.2825188,0.372672 -0.02633,0.14038 0.038846,0.433762 0.1178819,0.530642 0.070814,0.0868 0.1062052,-0.0219 0.061802,-0.189804 z m 1.0012007,-0.207454 c 0.08439,-0.142866 0.090273,-0.407638 0.011444,-0.51543 -0.079987,-0.109389 -0.1238945,-0.04819 -0.072078,0.100463 0.054342,0.155887 -0.00684,0.39517 -0.115933,0.453565 -0.1845119,0.09875 -0.4737227,-0.108773 -0.4384877,-0.314637 0.010775,-0.06302 0.033348,-0.146717 0.050165,-0.18601 0.021279,-0.04969 0.01207,-0.07145 -0.030085,-0.07145 -0.086813,0 -0.1650615,0.216024 -0.1322897,0.365228 0.028565,0.129969 0.2219015,0.307253 0.3679374,0.337357 0.1336263,0.02754 0.2853619,-0.04385 0.3593365,-0.169081 z M 9.7398321,12.39286 c 0.127341,-0.311446 0.1411097,-0.403919 0.051936,-0.348809 -0.047015,0.02906 -0.25217,0.531264 -0.25217,0.6173 0,0.139683 0.073813,0.04072 0.200234,-0.268491 z m 1.2743459,0.01377 c 0.258432,-0.152657 0.386497,-0.762996 0.199361,-0.950131 -0.115504,-0.115504 -0.233506,-0.102325 -0.563942,0.06299 -0.334879,0.167529 -0.514179,0.350552 -0.472824,0.482632 0.06971,0.222661 0.388836,0.474482 0.601774,0.474867 0.0639,1.24e-4 0.169934,-0.03156 0.235631,-0.07035 z M 7.6200001,12.167869 C 8.5316516,12.058128 9.0581329,11.914949 9.1173376,11.760665 9.1562293,11.659311 9.0591566,11.621125 8.760813,11.620427 8.5866409,11.619981 8.3918877,11.585604 8.2062046,11.522469 8.0488051,11.468933 7.7628844,11.404221 7.5708312,11.378664 7.0797458,11.313313 6.9103481,11.245204 6.5383338,10.963543 6.3589227,10.827708 6.0701811,10.644224 5.8966752,10.555798 5.5394755,10.373744 5.4748886,10.297253 5.4159386,9.9864143 5.3696308,9.7422193 5.3141051,9.6818443 5.2056823,9.7577813 5.0094091,9.8952563 4.8444012,10.218825 4.8444012,10.46623 c 0,0.167243 0.053442,0.265179 0.2841549,0.520746 0.081086,0.08982 0.242532,0.319475 0.3587688,0.510344 0.3242894,0.532502 0.458774,0.651596 0.8472926,0.750331 0.1124462,0.02857 0.6756018,-0.0064 1.2853826,-0.07978 z m 2.8324829,-0.671966 c 0.786434,-0.244763 2.048755,-1.5795247 2.269664,-2.3999064 0.02589,-0.09616 0.03495,-0.2130541 0.02011,-0.2597596 C 12.718027,8.75988 12.692087,8.753449 12.484968,8.772453 12.358287,8.784079 11.951489,8.870737 11.580981,8.9650246 10.718213,9.1845876 10.202926,9.2460856 8.9679997,9.2768726 7.8628225,9.3044116 6.7786038,9.2506336 6.4534873,9.1521666 6.0176282,9.0201356 5.8180694,8.8047658 5.7915247,8.4377445 5.7672957,8.1026727 5.9000905,7.8331453 6.4485566,7.1042754 7.2562246,6.0309551 8.0303784,5.4468919 9.1144364,5.0929911 9.8061579,4.8671739 10.102973,4.8234185 10.948151,4.8226675 c 0.683589,-8.942e-4 0.823439,0.011037 1.17742,0.097927 0.422497,0.103733 0.473807,0.094699 0.475479,-0.083685 C 12.60235,4.6940212 12.260065,4.0959525 12.042317,3.8607607 11.664164,3.4523089 10.958607,3.0278401 10.396976,2.87091 9.6196031,2.6537024 9.1993364,2.7852366 8.6727792,3.4105518 8.1701471,4.0074671 8.2549621,3.9495632 7.8251156,3.9892283 7.1621693,4.0503999 6.6427959,4.2553142 6.3838088,4.5578824 6.2437809,4.7214732 6.163092,4.9090337 6.2117915,4.9577333 6.2568655,5.0028073 6.4567553,4.8515412 6.6028984,4.6617677 6.6830958,4.5576364 6.7908256,4.4429374 6.8423011,4.4068799 6.9871971,4.3053906 7.4608438,4.1501369 7.6284847,4.1491802 7.9352191,4.1473909 7.8541323,4.301032 7.4120192,4.5592413 7.0505861,4.7703247 6.9113003,4.94008 6.6521076,5.4853677 6.5320128,5.7380204 6.416746,5.9447408 6.3959635,5.9447408 c -0.038354,0 -0.094829,-0.1792683 -0.1456291,-0.4623636 -0.019312,-0.1076719 -0.041171,-0.1430274 -0.0703,-0.1138764 -0.029146,0.029146 -0.018999,0.2315841 0.032723,0.6519985 0.093407,0.7594378 0.078128,0.8118519 -0.3847323,1.3194729 -0.1775917,0.1947713 -0.3326845,0.3876827 -0.344647,0.4286929 -0.011936,0.040992 -0.061986,0.2749998 -0.1111631,0.5199732 -0.1745028,0.8693353 -0.067738,1.309142 0.4296857,1.7700037 0.7183824,0.665574 1.3482618,0.974727 2.7170021,1.333541 0.921151,0.241477 1.4071938,0.267551 1.9335802,0.10372 z M 8.9651237,9.0140066 C 9.14158,8.9871006 9.1512493,8.9774836 9.3640001,8.618962 9.4839204,8.4168638 9.6481775,8.1276536 9.729005,7.976271 10.046772,7.3811477 10.35098,7.273159 11.182699,7.4602143 11.504865,7.5326681 11.532755,7.4951686 11.399893,7.168192 11.278846,6.8702907 11.207116,6.7805847 11.00917,6.6795561 10.011868,6.1705448 8.8141346,6.7859048 7.9379774,8.2574531 7.7644311,8.5489348 7.617452,8.8321952 7.6113589,8.8869164 c -0.0097,0.087333 0.0089,0.1025312 0.1522318,0.1243232 0.2263495,0.03442 0.9827429,0.03617 1.201533,0.0027 z M 4.4565398,8.6434682 C 4.6185973,8.5682779 5.138118,8.1718378 5.1642203,8.1034469 5.1967192,8.0183147 5.0571654,8.0810084 4.8469448,8.2460445 4.521386,8.5015893 4.3499274,8.5982239 4.2217772,8.598399 4.0726389,8.5986047 4.0764834,8.5149796 4.2358135,8.2931212 4.3617107,8.1178142 4.3798959,7.9877506 4.2830241,7.9554927 c -0.029996,-0.01001 -0.051037,0.018238 -0.051037,0.068425 0,0.046973 -0.055114,0.1614985 -0.1224818,0.2544942 -0.2596577,0.3584431 -0.069598,0.5583683 0.3470342,0.3650588 z m -1.9801484,-0.0812 c 0,-0.01998 -0.063773,-0.048255 -0.1417266,-0.062875 C 2.17575,8.4695783 2.0805683,8.3594203 2.043639,8.1625667 1.9967766,7.9127927 2.2779188,7.6012388 2.7418113,7.3888639 2.9071232,7.3131855 2.9608472,7.2702529 2.9294926,7.2388985 2.8001801,7.1095908 1.9929457,7.7221567 1.9224313,8.0031015 c -0.029951,0.1193439 0.071561,0.4338382 0.1726744,0.5349529 0.064717,0.064722 0.3812857,0.084826 0.3812857,0.024228 z M 5.4067342,7.3308569 c 0.1173679,-0.072961 0.213399,-0.1482795 0.213399,-0.1673814 0,-0.065755 -0.1069608,-0.034418 -0.2996355,0.087754 -0.2143512,0.1359418 -0.3420722,0.151664 -0.5132,0.063172 C 4.5484358,7.1805384 4.5408453,6.8162221 4.7923218,6.5954296 L 4.9418446,6.4641459 5.4337613,6.4919519 C 5.8160126,6.5135488 5.9147706,6.5088498 5.8767462,6.4708047 5.8155211,6.409575 5.106088,6.329717 4.9566457,6.3672234 4.8957424,6.3825143 4.7815215,6.4515418 4.7028308,6.5206393 4.3754883,6.8080535 4.4482692,7.2868719 4.8444321,7.4522199 4.9968785,7.5158511 5.1688332,7.4787247 5.4067384,7.3308465 Z M 5.9739578,6.2398255 c 0.032276,-0.020515 0.045427,-0.1750525 0.040814,-0.4791048 -0.00358,-0.2468413 0.00912,-0.5615061 0.028565,-0.6992495 l 0.03536,-0.2504444 -0.1471356,-0.048561 c -0.2228893,-0.073559 -0.9865247,0.033617 -0.894584,0.1255397 0.025659,0.025659 0.1679583,0.019088 0.4032662,-0.018642 0.1999746,-0.032052 0.3695645,-0.052933 0.3768601,-0.046387 0.00729,0.00657 -0.032991,0.08249 -0.089482,0.1687585 C 5.6711122,5.0780025 5.6028376,5.2374848 5.575904,5.3461446 5.5215188,5.565556 5.3475475,5.7627234 5.0587345,5.9322775 4.751115,6.1128602 4.8302706,6.1994363 5.3343198,6.2336882 5.8888521,6.2713693 5.9238055,6.2716854 5.97394,6.2398174 Z M 5.0481443,4.2990158 C 5.0479164,3.9888259 5.0307102,3.8871712 4.9494578,3.7126684 4.7876105,3.3650664 4.7021517,3.3602162 4.2896096,3.6752072 4.1840926,3.7557751 4.082031,3.8216947 4.0628042,3.8216947 c -0.019223,0 -0.034958,0.027538 -0.034958,0.061243 0,0.033707 0.010375,0.061243 0.023111,0.061243 0.044958,0 0.2037252,-0.096308 0.3808477,-0.2310166 0.2413293,-0.1835462 0.3166272,-0.1768005 0.4137088,0.037059 0.058972,0.129916 0.07899,0.2667073 0.07966,0.5443714 4.47e-4,0.2039711 0.012651,0.3826044 0.027,0.396963 0.067935,0.067934 0.096345,-0.048248 0.095979,-0.3925689 z m 0.6892629,-0.0051 C 5.9030499,4.2082602 5.9498629,4.1363062 6.0663322,3.7883064 6.1598249,3.5089705 6.1824707,3.4746698 6.2733744,3.4746698 c 0.092446,0 0.101739,0.015378 0.098583,0.1633092 -0.00179,0.089822 -0.011128,0.2092415 -0.020429,0.2653797 -0.019848,0.1197192 0.01435,0.1211675 0.3024252,0.01283 0.1872879,-0.070452 0.1994248,-0.070577 0.2494698,-0.00268 0.075946,0.1031566 0.1121643,0.087966 0.097345,-0.040814 C 6.9898574,3.7776347 6.9690734,3.7606434 6.865367,3.7618726 6.797999,3.7627667 6.6923573,3.7768036 6.630609,3.7932546 6.5234336,3.8218196 6.5183283,3.8165456 6.5183283,3.6768388 6.5183283,3.4852193 6.4627173,3.3879275 6.3348447,3.3558353 6.1362153,3.3059759 6.05022,3.4079877 5.9453378,3.8178836 5.920036,3.9168697 5.8469064,4.0502412 5.7828778,4.1142694 5.6804277,4.2167195 5.6542046,4.2250926 5.5642397,4.184105 5.4616013,4.1373409 5.334323,4.1573274 5.334323,4.2201801 c 0,0.018506 0.059711,0.05325 0.1326921,0.077193 0.072978,0.023961 0.138195,0.046111 0.1449228,0.049272 0.00675,0.00313 0.063187,-0.020609 0.125459,-0.052812 z M 5.8415157,3.8832355 c 0.058422,-0.1180384 0.079294,-0.250489 0.081656,-0.5181709 0.00268,-0.2970293 0.01426,-0.3596226 0.066813,-0.3597568 0.035003,-8.04e-5 0.099308,-0.027135 0.1428978,-0.060099 0.043585,-0.032991 0.1137028,-0.060528 0.1558036,-0.061243 0.062222,-0.00134 0.072276,0.020071 0.053715,0.1129016 -0.027984,0.1399653 -0.00179,0.183457 0.1555263,0.2574583 0.088932,0.041841 0.1262727,0.091109 0.1363041,0.179818 0.018954,0.1675694 0.078431,0.2282717 0.1949902,0.199018 0.148213,-0.037194 0.30154,0.01502 0.30154,0.1026693 0,0.1559153 0.089979,0.1774801 0.5184122,0.1242566 0.4492612,-0.055809 0.3609324,0.00484 1.0139188,-0.696082 C 8.8092979,3.007062 9.016644,2.8403957 9.17344,2.7537701 9.4146576,2.6205013 9.4591013,2.6095447 9.686622,2.6272516 9.892931,2.6433 9.9401956,2.6349404 9.9618185,2.5786101 9.988372,2.5094188 9.9070752,1.844072 9.8268197,1.473752 9.7539403,1.1374552 9.70432,1.0454206 9.5958883,1.0454206 c -0.053416,0 -0.099733,0.013768 -0.1029284,0.030622 -0.00313,0.016853 -0.011174,0.2602747 -0.017792,0.5409651 -0.013456,0.5746399 -0.054337,0.8005736 -0.142375,0.787328 C 9.300562,2.3994627 9.1364125,2.3475356 8.9679981,2.2888987 8.7161993,2.201227 8.6174458,2.1865689 8.4122498,2.2064126 8.1645056,2.2303735 8.1609963,2.2292111 7.9253846,2.0462595 7.7948606,1.9449042 7.6719897,1.8619756 7.6523427,1.8619756 c -0.019625,0 -0.087693,0.026867 -0.1512169,0.059728 -0.131664,0.068087 -0.179979,0.03451 -0.3046379,-0.2116245 C 7.0539344,1.4286064 6.8637676,1.4262684 6.571794,1.7023902 6.3133389,1.9468264 6.2957661,1.9410777 6.1333734,1.5589962 6.0720409,1.4146768 5.9946062,1.2861377 5.9612979,1.2733572 5.7597185,1.1960029 5.3954423,1.6493411 5.3507035,2.0332374 5.3288884,2.2203778 5.2892457,2.3117017 5.1475282,2.5011666 4.7834263,2.987956 4.7970338,3.0295745 5.3163671,3.017621 c 0.1895185,-0.00447 0.34458,-0.00134 0.34458,0.00657 0,0.00797 -0.082249,0.05431 -0.1827728,0.1029729 -0.1005281,0.048661 -0.2299213,0.1445047 -0.2875435,0.2129853 -0.093044,0.1105778 -0.1034294,0.154762 -0.092812,0.3948889 0.0092,0.2078066 0.026106,0.2703819 0.073192,0.2703819 0.049633,0 0.058606,-0.050823 0.047323,-0.268102 C 5.2046542,3.4741509 5.2071128,3.4668776 5.3501537,3.3412666 5.5015316,3.2083554 5.7611445,3.1298389 5.8280426,3.1967327 c 0.045052,0.045052 -0.061726,0.6584088 -0.1257675,0.7224503 -0.022754,0.02271 -0.041306,0.066741 -0.041306,0.097806 0,0.1022676 0.1006354,0.027716 0.1805556,-0.1337605 z M 7.2532429,3.247712 c 0,-0.023782 0.018372,-0.031873 0.040814,-0.018015 0.022442,0.013902 0.040814,0.033348 0.040814,0.043228 0,0.00993 -0.018372,0.018015 -0.040814,0.018015 -0.022442,0 -0.040814,-0.019446 -0.040814,-0.043228 z m -3.768458,3.8551376 c -0.01569,-0.015693 -0.028521,-0.06345 -0.028521,-0.1061299 0,-0.060675 0.019044,-0.071564 0.087215,-0.04992 0.077073,0.024457 0.084203,0.015693 0.06131,-0.075525 -0.016585,-0.065995 -0.00756,-0.1093885 0.025078,-0.1203591 0.040233,-0.01354 0.039741,-0.030754 -0.00224,-0.081735 -0.044747,-0.054225 -0.041485,-0.071258 0.020429,-0.1061653 0.056446,-0.031826 0.062505,-0.052905 0.025883,-0.089926 -0.02633,-0.026601 -0.037015,-0.076617 -0.023737,-0.1111713 0.018463,-0.048198 0.00358,-0.05744 -0.06443,-0.0397 -0.091629,0.02396 -0.1283335,-0.062273 -0.047716,-0.1120969 0.080608,-0.049815 0.038757,-0.1031076 -0.061243,-0.078003 -0.084699,0.021281 -0.1020701,0.010957 -0.1020701,-0.060464 0,-0.1275466 0.097734,-0.1046449 0.2387276,0.055938 0.2198855,0.2504399 0.2282226,0.6755305 0.01739,0.8863726 -0.064574,0.064569 -0.1302378,0.1045605 -0.1459288,0.088874 z M 3.2300267,7.0443852 c -0.014797,-0.023959 -0.016674,-0.053775 -0.00402,-0.066281 0.033572,-0.033577 0.1487449,0.018869 0.1487449,0.067726 0,0.055412 -0.1101166,0.054321 -0.144574,-0.00134 z M 3.0888053,6.8837948 c 0,-0.022438 0.028654,-0.040811 0.063653,-0.040811 0.035002,0 0.052299,0.018371 0.0384,0.040811 -0.013902,0.022438 -0.042512,0.040811 -0.063647,0.040811 -0.021145,0 -0.0384,-0.018371 -0.0384,-0.040811 z m -0.08165,-0.2041411 c 0,-0.089505 0.00532,-0.092711 0.096148,-0.057862 0.073684,0.028294 0.042379,0.1395173 -0.039294,0.1395173 -0.031293,0 -0.056871,-0.036744 -0.056871,-0.081659 z m -0.018686,-0.160489 c -0.030174,-0.048857 0.046608,-0.09726 0.1009892,-0.063651 0.045659,0.028208 0.01569,0.1016558 -0.041485,0.1016558 -0.019804,0 -0.046581,-0.017081 -0.059495,-0.037997 z M 2.3630021,6.2623826 C 2.3081426,6.2356507 2.2138549,6.0985465 2.1329289,5.9278207 1.6284773,4.8635842 1.6189153,4.8398691 1.6842622,4.8147952 1.8191314,4.7630382 2.0594014,4.8819262 2.2287767,5.084225 2.4770888,5.3808073 2.5687211,5.6193383 2.573996,5.982877 2.578776,6.3145776 2.549588,6.3532866 2.3630021,6.2623826 Z m 0.6519582,0.00594 c 0.00805,-0.024142 0.032098,-0.0439 0.053419,-0.0439 0.021324,0 0.045369,0.019759 0.053416,0.0439 0.00805,0.024142 -0.016003,0.043902 -0.053416,0.043902 -0.037416,0 -0.061467,-0.019759 -0.053419,-0.043902 z M 2.7213417,6.0900744 c 0,-0.035002 0.018373,-0.063653 0.040814,-0.063653 0.022442,0 0.040814,0.017255 0.040814,0.0384 0,0.021145 -0.018373,0.049773 -0.040814,0.063653 -0.022441,0.013903 -0.040814,-0.00354 -0.040814,-0.0384 z m 0.4286934,0.018018 c -0.033304,-0.053871 0.015511,-0.1303228 0.064064,-0.1003226 0.049589,0.030666 0.049267,0.1411539 -4.47e-4,0.1411539 -0.021145,0 -0.049773,-0.018371 -0.063653,-0.040811 z m 0.36745,-0.2876462 c -0.1877528,-0.070273 -0.1938503,-0.07654 -0.075973,-0.078105 0.070492,-8.94e-4 0.1715389,0.034421 0.2245524,0.078601 0.1159283,0.096581 0.1107205,0.096563 -0.1485797,-4.471e-4 z M 2.6695041,5.6727405 C 2.658373,5.6539653 2.6364685,5.5788641 2.6208314,5.5058819 2.5939202,5.3803379 2.5985693,5.3733464 2.7078906,5.3760598 c 0.063536,0.00179 0.1482398,0.01578 0.1882311,0.031606 0.063948,0.025257 0.055888,0.045029 -0.06685,0.1639888 -0.076755,0.074394 -0.1486506,0.1198844 -0.1597683,0.1010908 z m -0.0422,-0.4638388 C 2.403901,5.0331786 2.1939084,4.394001 2.3125905,4.2510004 c 0.093675,-0.1128708 0.2264344,-0.064614 0.6567324,0.2387098 0.461863,0.3255812 0.7318873,0.591323 0.7318873,0.7202868 0,0.07692 -0.027448,0.081538 -0.484429,0.081538 -0.4245136,0 -0.4974198,-0.010238 -0.5894771,-0.082633 z"
       style="fill:#343434;stroke-width:0.04082779"
       sodipodi:nodetypes="csscsscscsscscsscssscsccccscccccccccsccsscscscsssscsccccccscsscsscscsccccsssssscscsccccssscscsccscssscscssccccssccssscssscsccccscsssscssscscccccccscccsscsscccscccscsccccsscssscccsscscscscsccccccsccsscssssscscccsscsccccssccccssscccccccsssccscsccsssccscssccsscccscsscsscccscccsscscscssssccssscssssscsssssccccsssssssssssscscssssccccccscsssscscscsscscsscscssccccccsccsccccsscccsssssscccccscccccccscscssscccccccccsccssssccssccscscscscscsscsccssccssscssssscsccccccccccsssccccsccsssssssssccscssccsscscscsssssccsccccccccsccscccsssc" />
  </g>
  <g
     id="g944"
     inkscape:groupmode="layer"
     inkscape:label="F.Cu-disabled" />
  <g
     id="g946"
     inkscape:groupmode="layer"
     inkscape:label="F.Mask-disabled" />
  <g
     id="g948"
     inkscape:groupmode="layer"
     inkscape:label="F.Silk-disabled" />
  <g
     id="g950"
     inkscape:groupmode="layer"
     inkscape:label="Drill" />
</svg>
